<?xml version="1.0" standalone="no"?>
<!DOCTYPE svg PUBLIC "-//W3C//DTD SVG 20010904//EN"
 "http://www.w3.org/TR/2001/REC-SVG-20010904/DTD/svg10.dtd">
<svg version="1.0" xmlns="http://www.w3.org/2000/svg"
 width="512.000000pt" height="512.000000pt" viewBox="0 0 512.000000 512.000000"
 preserveAspectRatio="xMidYMid meet">
<metadata>
Created by potrace 1.16, written by Peter Selinger 2001-2019
</metadata>
<g transform="translate(0.000000,512.000000) scale(0.100000,-0.100000)"
fill="#000000" stroke="none">
<path d="M2285 4975 c-403 -65 -808 -243 -1160 -509 -102 -77 -289 -259 -368
-356 -90 -111 -197 -279 -269 -420 -198 -389 -265 -638 -275 -1032 -8 -286 15
-456 93 -693 185 -559 582 -1086 1062 -1408 124 -83 360 -198 503 -245 257
-84 513 -119 794 -109 369 13 602 68 884 208 229 113 472 288 698 503 90 85
114 117 209 268 144 231 234 421 309 653 13 39 26 79 30 90 7 17 4 16 -19 -6
-17 -16 -41 -64 -66 -137 -115 -325 -302 -645 -481 -823 -99 -98 -373 -315
-491 -389 -160 -100 -317 -174 -482 -229 -518 -169 -1139 -125 -1637 118 -317
154 -619 415 -878 759 -101 133 -187 275 -275 452 -133 267 -202 507 -226 782
-23 266 33 679 125 913 53 137 217 449 293 560 98 144 217 280 335 383 84 74
237 190 237 179 0 -3 -33 -29 -72 -59 -143 -109 -329 -309 -443 -478 -66 -98
-226 -421 -279 -561 -124 -335 -186 -727 -140 -891 9 -32 19 -56 22 -53 3 2 7
82 9 177 8 393 75 661 262 1043 150 306 316 508 593 723 339 262 676 399 1108
452 109 13 351 13 460 0 300 -36 604 -138 853 -285 251 -148 595 -464 737
-677 40 -58 41 -61 12 -34 -36 33 -51 29 -34 -9 23 -50 -9 -23 -84 73 -90 112
-285 311 -394 399 -210 169 -419 274 -702 352 -233 63 -381 84 -603 85 -220 0
-337 -15 -569 -73 -546 -139 -1021 -478 -1271 -910 -26 -44 -45 -85 -43 -92 2
-7 17 10 32 37 265 459 761 817 1311 947 194 46 286 59 475 64 204 6 312 -3
506 -42 398 -80 668 -213 951 -467 216 -194 450 -500 544 -712 42 -95 90 -160
54 -72 -12 29 -13 41 -4 52 19 23 47 16 66 -16 22 -37 36 -39 22 -3 -15 39
-95 186 -156 286 -183 300 -411 545 -698 751 -246 177 -560 306 -885 363 -124
22 -176 26 -355 26 -115 0 -246 -2 -290 -6 -79 -6 -79 -6 -35 7 l45 14 -35 1
c-19 0 -71 -6 -115 -14 -43 -8 -81 -12 -83 -11 -4 5 144 40 232 55 414 75 925
-16 1314 -232 281 -155 391 -258 860 -800 75 -86 226 -316 272 -412 21 -44 48
-117 61 -162 12 -46 25 -81 27 -78 10 9 -73 267 -112 345 -126 259 -366 578
-581 774 -362 330 -730 519 -1165 598 -151 27 -491 34 -625 13z m-148 -111
c-3 -3 -12 -4 -19 -1 -8 3 -5 6 6 6 11 1 17 -2 13 -5z m-572 -187 c-66 -35
-146 -78 -177 -96 -32 -18 -58 -31 -58 -28 0 14 320 186 345 186 6 0 -44 -28
-110 -62z"/>
<path d="M1675 4657 c-66 -30 -158 -75 -205 -102 -102 -58 -233 -145 -227
-151 2 -2 44 21 93 52 103 65 324 174 404 199 69 22 85 30 83 41 -4 19 -33 12
-148 -39z"/>
<path d="M2385 4673 c-537 -35 -1207 -403 -1556 -853 -170 -219 -275 -406
-348 -625 -78 -231 -102 -364 -108 -587 -8 -275 13 -428 94 -670 48 -145 146
-358 207 -447 23 -35 36 -64 36 -86 0 -66 164 -277 382 -491 301 -297 552
-441 936 -539 419 -106 859 -97 1223 25 91 30 299 123 299 134 0 3 -46 -16
-102 -41 -130 -57 -310 -117 -414 -137 -167 -31 -328 -47 -414 -41 -425 31
-728 104 -1002 241 -154 77 -413 261 -413 293 0 9 -68 84 -150 166 -158 157
-295 326 -295 363 0 17 6 22 28 22 23 0 41 -16 109 -102 305 -384 784 -701
1234 -817 196 -51 324 -64 569 -58 172 4 245 10 365 31 287 50 476 110 655
208 114 62 318 200 383 258 115 104 287 328 375 490 53 97 185 384 207 449 10
30 29 61 47 76 41 34 64 107 84 259 25 192 25 191 58 189 l29 -2 -6 107 c-4
59 -13 148 -22 197 -16 92 -45 208 -51 202 -2 -1 3 -40 11 -86 18 -102 30
-298 21 -335 -14 -56 -23 -20 -29 117 -9 204 -41 378 -103 570 -34 104 -42 92
-10 -14 60 -203 86 -395 86 -650 0 -138 -19 -357 -36 -413 -5 -16 -8 -17 -22
-3 -13 14 -13 29 -3 119 41 350 16 688 -69 952 -29 87 -60 155 -45 96 3 -14
19 -74 34 -135 45 -171 64 -358 65 -610 1 -202 -13 -377 -32 -411 -4 -7 -23
-23 -42 -36 -27 -18 -51 -54 -106 -163 -56 -108 -77 -141 -95 -145 -26 -6 -27
-8 -98 -161 -58 -128 -157 -280 -261 -404 -42 -50 -87 -105 -100 -123 -13 -17
-31 -32 -39 -32 -20 0 -27 -5 -182 -108 -144 -97 -400 -226 -545 -276 -498
-170 -1075 -108 -1565 169 -239 136 -429 276 -564 417 -122 126 -185 216 -270
384 -69 138 -84 152 -35 34 34 -82 37 -112 14 -134 -32 -33 -75 17 -158 188
-56 115 -98 236 -141 401 -41 155 -55 256 -54 373 1 99 16 160 20 77 l2 -50 8
50 c4 28 15 115 24 195 30 267 79 440 186 656 164 333 407 611 708 814 l64 43
-33 -59 c-19 -32 -55 -83 -81 -113 -53 -59 -104 -152 -139 -247 -17 -49 -33
-71 -76 -109 -62 -53 -140 -159 -189 -255 -53 -106 -51 -122 5 -30 28 47 64
98 80 115 l30 30 0 -71 c0 -70 -1 -72 -30 -84 -58 -24 -120 -127 -120 -201 0
-9 -15 -27 -33 -39 -72 -50 -102 -135 -78 -223 17 -59 4 -86 -55 -117 -41 -21
-54 -35 -81 -88 -39 -76 -44 -139 -13 -190 22 -35 25 -46 11 -38 -9 6 -21 -16
-21 -40 0 -24 20 -16 31 13 7 18 13 23 20 16 7 -7 3 -31 -11 -74 -31 -91 -24
-152 22 -195 20 -17 64 -41 101 -53 76 -25 81 -30 97 -91 26 -98 64 -164 260
-455 77 -115 88 -132 109 -174 15 -29 18 -42 9 -39 -20 7 -58 68 -58 94 0 13
-4 26 -10 29 -12 8 -24 -39 -16 -68 8 -33 54 -77 87 -84 18 -3 47 -31 91 -87
149 -186 309 -336 360 -336 13 0 64 -16 112 -36 49 -20 131 -45 183 -55 85
-18 101 -25 161 -72 37 -28 92 -73 122 -100 86 -76 135 -101 196 -101 33 1 64
8 86 21 27 17 65 22 221 32 103 6 221 18 262 26 104 20 329 96 444 151 173 81
396 234 462 315 78 96 235 364 292 499 45 107 104 302 112 372 4 29 13 71 20
93 40 117 42 259 4 323 -12 21 -19 52 -19 83 0 28 -4 58 -9 67 -4 9 -11 33
-15 52 -5 33 -3 36 31 55 48 26 52 43 14 58 -23 8 -32 19 -35 42 -37 240 -64
339 -147 532 -40 91 -43 103 -40 176 1 42 -3 94 -10 115 -31 96 -189 324 -303
438 -85 84 -242 206 -308 240 -84 43 -162 57 -272 51 -137 -7 -202 13 -271 83
-58 59 -91 71 -264 96 -121 17 -157 15 -286 -17 -44 -12 -109 -22 -145 -25
-36 -2 -110 -13 -165 -25 l-101 -21 -57 26 c-31 14 -57 29 -57 34 0 26 142 64
340 93 47 7 171 12 275 12 219 0 371 -21 565 -79 351 -106 813 -433 992 -704
75 -115 268 -503 313 -631 123 -350 137 -799 40 -1230 -14 -63 -28 -123 -31
-134 -10 -31 45 53 61 94 81 209 107 586 65 947 -16 140 -26 190 -56 273 -37
102 -151 341 -219 459 -20 34 -34 62 -32 62 3 0 31 -38 61 -84 72 -108 174
-319 225 -470 68 -197 80 -271 105 -681 2 -33 2 37 1 155 -3 230 -16 315 -71
493 -154 491 -535 980 -997 1281 -332 217 -776 327 -1202 299z m447 -180 c25
-12 52 -31 58 -43 11 -20 13 -20 29 -6 25 23 33 21 73 -21 60 -64 71 -103 29
-103 -38 0 -229 -63 -294 -97 -69 -37 -114 -80 -169 -165 -17 -27 -32 -47 -33
-45 -2 1 -6 28 -9 60 -6 48 -5 57 8 57 8 0 20 9 26 21 11 20 12 20 31 3 17
-15 19 -15 19 -1 0 8 -13 25 -30 37 -28 20 -30 20 -30 3 0 -23 -26 -61 -35
-51 -4 3 -20 59 -37 124 -16 65 -34 126 -39 135 -7 15 -4 21 18 33 16 8 37 24
48 36 37 42 72 51 185 47 79 -3 117 -9 152 -24z m-377 -13 c-3 -5 -16 -10 -28
-10 -18 0 -19 2 -7 10 20 13 43 13 35 0z m-497 -32 c63 -23 162 -111 162 -143
0 -16 -4 -15 -28 8 -15 15 -35 27 -43 27 -8 0 2 -15 23 -35 l38 -35 -39 0
c-35 0 -39 3 -56 43 -27 60 -54 97 -72 97 -15 0 -15 -2 0 -18 16 -17 37 -63
51 -109 6 -19 3 -23 -13 -23 -11 0 -22 8 -24 18 -4 15 -6 14 -12 -4 -4 -12
-18 -27 -31 -33 -33 -15 -33 -14 -27 10 4 15 8 17 14 8 12 -20 22 -4 23 38 1
37 0 38 -33 38 -28 0 -38 -6 -53 -31 -15 -26 -16 -36 -7 -64 9 -26 9 -34 -2
-41 -11 -7 -18 10 -34 79 -17 71 -24 87 -40 89 -23 3 -53 -20 -79 -59 -16 -24
-16 -31 -1 -93 20 -87 21 -86 -22 -64 -51 26 -70 24 -102 -12 l-29 -31 6 28
c3 19 1 25 -7 20 -6 -4 -11 -15 -11 -25 0 -10 -12 -24 -27 -31 l-28 -13 24 -6
24 -6 -28 -33 c-15 -18 -42 -39 -60 -46 -33 -14 -52 -46 -40 -66 3 -5 -10 -24
-29 -40 -49 -44 -77 -123 -79 -227 -1 -46 -5 -83 -9 -83 -3 0 -13 -3 -22 -6
-14 -5 -16 5 -16 71 0 96 20 177 70 281 40 84 120 184 147 184 10 0 14 6 10
20 -12 45 119 210 222 282 102 71 171 80 289 36z m228 -30 l-40 -43 -23 23
c-33 33 -32 36 22 48 82 19 85 17 41 -28z m227 -40 c25 -83 77 -311 77 -337 0
-11 -3 -11 -15 -1 -23 19 -20 -27 5 -68 11 -18 20 -39 20 -46 0 -26 28 -25 52
2 14 15 38 51 54 80 39 74 92 125 166 163 76 39 341 129 377 129 30 0 76 -26
140 -80 50 -41 155 -98 150 -81 -4 10 -27 27 -188 138 l-54 38 39 8 c22 5 80
7 129 5 74 -4 100 -9 145 -33 70 -35 122 -72 185 -130 l50 -47 -88 47 c-94 50
-176 70 -203 50 -15 -10 -15 -15 0 -58 17 -50 22 -127 8 -127 -17 0 -142 90
-213 154 -57 51 -95 59 -151 30 -18 -9 -42 -14 -58 -10 -27 5 -169 -38 -233
-71 -54 -27 -106 -84 -118 -126 -6 -23 -21 -54 -34 -69 -36 -42 -59 -122 -50
-172 5 -22 9 -88 9 -146 1 -81 5 -112 19 -138 21 -39 32 -37 17 2 -8 23 -10
81 -10 315 1 147 141 264 395 329 l103 25 78 -28 c64 -23 87 -38 127 -80 61
-65 132 -214 147 -311 13 -76 5 -171 -14 -194 -7 -8 -25 -45 -39 -83 -81 -213
-165 -290 -369 -332 -94 -20 -126 -19 -178 8 -55 28 -80 61 -87 118 -7 51 -18
69 -44 69 -39 0 -72 27 -125 98 -69 95 -78 128 -71 272 4 93 10 129 32 188 15
40 25 76 21 79 -11 12 -35 -31 -57 -100 -12 -37 -23 -67 -24 -65 -2 2 -12 26
-23 54 -29 77 -111 210 -167 272 -36 40 -53 68 -61 102 -10 45 -10 48 17 65
56 38 70 93 28 115 -70 38 -151 -63 -121 -150 12 -34 13 -34 -22 -20 -22 8
-24 13 -19 47 16 109 86 183 174 183 l47 0 25 -82z m-95 3 c21 -13 10 -52 -21
-75 -24 -18 -29 -19 -37 -6 -30 48 14 109 58 81z m827 -31 l20 -9 -20 0 c-11
0 -27 4 -35 9 -13 9 -13 10 0 9 8 0 24 -4 35 -9z m-889 -147 c-11 -12 -16 4
-21 68 l-4 64 15 -63 c9 -35 13 -66 10 -69z m-381 80 c-9 -20 -18 -39 -20 -42
-10 -9 -5 41 5 60 19 34 31 20 15 -18z m-155 3 c0 -3 -4 -8 -10 -11 -5 -3 -10
-1 -10 4 0 6 5 11 10 11 6 0 10 -2 10 -4z m432 -96 c71 -26 120 -68 190 -165
144 -196 172 -328 117 -549 -36 -140 -61 -176 -128 -176 -72 0 -170 -27 -240
-67 -55 -31 -69 -35 -109 -29 -108 15 -296 156 -346 259 -46 96 -56 261 -24
397 35 148 152 281 291 330 72 26 181 26 249 0z m1043 -5 c22 -13 35 -25 29
-25 -20 0 -84 30 -84 40 0 15 11 12 55 -15z m-185 -29 c0 -2 -30 -14 -67 -27
-74 -24 -152 -60 -196 -92 l-29 -20 14 22 c19 32 79 70 150 97 55 20 128 32
128 20z m-1404 -31 c4 -8 2 -41 -2 -73 -8 -51 -12 -57 -35 -60 -15 -2 -32 5
-44 18 -21 23 -15 45 30 98 30 35 43 40 51 17z m2181 -49 c42 -21 101 -90 129
-150 35 -75 46 -145 42 -259 -3 -87 -8 -110 -32 -160 -43 -89 -123 -169 -214
-214 l-77 -38 -36 36 -36 36 53 32 c30 18 66 31 86 31 39 0 106 29 131 57 34
39 43 121 24 227 -23 129 -48 191 -104 255 -38 43 -48 63 -54 105 -4 28 -10
59 -14 68 -7 17 -4 17 33 4 22 -8 53 -21 69 -30z m-133 -59 c-3 -9 -17 -23
-30 -32 -35 -23 -33 7 3 34 28 23 37 22 27 -2z m-185 -55 c15 -15 37 -53 49
-84 26 -69 46 -215 39 -282 -9 -84 -75 -267 -116 -322 -92 -122 -256 -207
-406 -211 l-80 -2 62 9 c83 12 178 38 233 66 98 48 196 162 220 254 6 25 20
67 31 94 18 43 20 65 17 175 -5 140 -22 205 -77 285 -25 36 -28 46 -16 46 9 0
29 -12 44 -28z m-2030 -19 c19 -24 24 -25 48 -14 22 10 28 10 35 -4 5 -8 13
-13 18 -10 5 3 11 1 15 -5 3 -5 3 -10 -2 -10 -4 0 -17 -18 -27 -40 -11 -22
-24 -40 -31 -40 -15 0 -59 48 -79 87 -30 60 -15 85 23 36z m2241 -81 c0 -17
-10 -38 -25 -52 -20 -19 -25 -20 -25 -7 0 22 31 87 42 87 4 0 8 -13 8 -28z
m79 -53 c19 -51 21 -63 10 -70 -23 -15 -33 -5 -51 51 -13 40 -15 57 -7 67 18
21 23 16 48 -48z m-2301 -10 c18 -7 22 -13 14 -21 -15 -15 -112 9 -112 29 0
12 8 14 36 8 20 -3 48 -11 62 -16z m2625 -26 c18 -9 26 -18 19 -20 -7 -3 -27
5 -45 16 -38 25 -19 28 26 4z m-12 -47 c7 4 9 3 6 -3 -4 -6 0 -14 9 -17 10 -4
13 -2 9 7 -4 6 1 3 9 -7 9 -11 16 -24 16 -29 0 -4 4 -6 9 -3 5 4 7 -4 4 -16
-4 -19 -3 -20 7 -8 9 12 11 7 6 -23 -3 -25 -1 -35 6 -31 13 8 1 -117 -18 -196
-23 -90 -81 -195 -148 -264 -57 -60 -63 -64 -96 -59 -31 5 -33 7 -15 17 46 26
145 131 173 184 55 104 75 268 40 336 -6 12 -28 37 -49 57 -27 25 -39 45 -39
64 l0 26 30 -21 c16 -12 35 -18 41 -14z m-2671 -26 c0 -13 -48 -36 -56 -27 -4
4 -1 13 6 22 14 17 50 20 50 5z m-217 -72 c-4 -54 -10 -77 -23 -89 -10 -9 -28
-31 -39 -50 l-21 -34 0 50 c0 28 4 65 10 84 10 36 58 111 70 111 4 0 5 -33 3
-72z m2607 36 c0 -26 -17 -33 -26 -9 -8 20 3 48 16 40 5 -3 10 -17 10 -31z
m-135 -34 c3 -5 -3 -10 -15 -10 -12 0 -18 5 -15 10 3 6 10 10 15 10 5 0 12 -4
15 -10z m-1085 -222 c15 -114 67 -186 154 -214 50 -17 152 -82 142 -91 -3 -3
-29 8 -59 25 -30 17 -73 35 -96 42 -53 14 -113 67 -140 124 -21 45 -42 176
-40 256 l1 45 14 -60 c8 -33 19 -90 24 -127z m1142 157 c-6 -33 -19 -38 -51
-19 -47 28 -39 47 19 42 29 -2 34 -7 32 -23z m-2201 -36 c43 -10 47 -14 84
-82 22 -39 56 -90 77 -112 42 -47 58 -82 58 -129 0 -24 12 -46 45 -85 79 -92
64 -110 -88 -104 -125 6 -260 -13 -347 -47 l-52 -20 -5 20 c-5 20 -7 20 -24 4
-18 -16 -19 -16 -19 0 0 10 -5 14 -11 10 -6 -3 -9 -19 -6 -33 5 -25 1 -30 -68
-64 l-73 -36 -69 17 c-59 15 -70 21 -83 49 -8 17 -24 36 -36 41 -30 14 -57 76
-49 112 9 41 41 78 81 95 23 9 35 22 39 42 11 50 44 112 68 128 14 9 39 17 56
18 28 2 32 6 38 40 7 48 39 96 79 119 61 36 188 43 305 17z m2309 -63 c0 -2
-8 -10 -17 -17 -16 -13 -17 -12 -4 4 13 16 21 21 21 13z m-1187 -89 c24 -40
72 -74 128 -91 10 -3 18 -18 21 -39 l4 -34 -55 18 c-66 23 -88 42 -112 94 -17
36 -26 95 -15 95 2 0 16 -19 29 -43z m1327 23 c0 -24 -17 -33 -57 -28 l-28 3
35 22 c44 27 50 28 50 3z m-2910 -10 c-14 -10 -38 -29 -55 -42 l-30 -23 16 25
c9 14 31 33 50 42 44 23 50 22 19 -2z m3209 -270 c17 -52 44 -146 60 -208 28
-108 29 -113 10 -107 -11 4 -26 1 -34 -5 -13 -11 -15 -7 -15 24 0 40 -17 49
-22 12 -3 -23 -5 -23 -32 16 -17 23 -24 38 -18 34 25 -15 48 4 60 50 11 40 10
50 -3 70 -21 33 -59 56 -78 48 -25 -9 -42 -75 -27 -105 10 -19 4 -16 -25 12
-32 32 -38 46 -50 114 l-14 77 29 39 c15 21 36 67 46 101 l19 61 32 -69 c17
-38 46 -112 62 -164z m-1748 210 c24 -13 25 -30 2 -30 -26 0 -47 16 -39 29 9
14 12 14 37 1z m1449 -39 c0 -12 -20 -25 -27 -18 -7 7 6 27 18 27 5 0 9 -4 9
-9z m-357 -53 c13 -18 27 -41 30 -51 6 -16 2 -18 -31 -15 -32 3 -37 7 -38 28
-1 14 -4 35 -8 48 -11 34 19 28 47 -10z m272 12 c7 -12 -12 -12 -40 0 -18 8
-17 9 7 9 15 1 30 -3 33 -9z m-1978 -99 c23 -12 50 -21 59 -21 16 0 16 -2 -1
-20 -20 -23 -57 -26 -77 -7 -7 6 -30 25 -51 40 -35 26 -67 73 -67 97 0 6 21
-7 48 -28 26 -22 66 -49 89 -61z m606 69 c100 -40 158 -113 192 -245 77 -298
-143 -586 -409 -533 -42 8 -66 19 -82 37 -19 22 -25 24 -48 13 -14 -6 -26 -18
-26 -27 0 -19 14 -19 30 0 18 22 30 9 30 -36 0 -27 -4 -39 -14 -39 -26 0 -110
65 -130 100 l-20 35 20 -17 c22 -19 64 -24 64 -8 0 6 -6 10 -14 10 -7 0 -26
10 -41 21 -18 15 -29 18 -34 11 -9 -16 -55 61 -79 133 -56 168 -27 335 78 449
50 54 89 80 162 107 74 27 237 22 321 -11z m1037 -11 c0 -15 -4 -19 -16 -15
-9 3 -20 6 -25 6 -5 0 -9 7 -9 15 0 9 9 15 25 15 19 0 25 -5 25 -21z m295 9
c30 -14 32 -24 4 -38 -30 -17 -47 -6 -42 24 6 30 4 29 38 14z m-396 -77 c-10
-48 -16 -58 -26 -49 -7 6 -13 16 -13 22 1 18 40 99 46 94 3 -3 0 -33 -7 -67z
m126 6 c64 -18 81 -27 83 -43 3 -18 -5 -23 -57 -34 -32 -7 -64 -9 -70 -6 -16
10 -13 36 4 36 21 0 19 17 -4 30 -27 14 -28 13 -45 -17 l-15 -28 -1 27 c0 30
9 58 19 58 3 0 42 -11 86 -23z m474 -89 c1 -19 -16 -23 -38 -9 -12 8 -12 14 4
37 17 26 19 27 26 9 4 -11 8 -28 8 -37z m-1281 26 c12 -8 45 -23 74 -33 l51
-17 -61 -41 -62 -41 -6 26 c-3 15 -12 47 -20 71 -8 25 -14 46 -14 48 0 7 17 2
38 -13z m591 -53 c30 -44 47 -60 70 -64 25 -5 31 -12 31 -32 0 -54 35 -95 79
-95 15 0 17 -7 14 -47 -4 -44 -1 -52 32 -91 41 -48 82 -72 120 -72 l25 0 -20
-20 c-15 -15 -20 -33 -20 -70 0 -54 1 -56 30 -38 10 7 22 9 26 5 9 -8 -25 -47
-41 -47 -15 0 -45 63 -45 95 0 18 -7 25 -30 30 -23 5 -36 19 -57 58 -26 49
-31 52 -70 55 -36 3 -47 -1 -68 -24 -47 -50 -45 -157 4 -260 37 -77 85 -125
163 -162 l63 -30 6 53 c11 98 76 182 167 216 21 8 15 0 -25 -36 -54 -47 -96
-121 -107 -186 l-6 -36 59 -10 c33 -5 92 -6 137 -1 44 4 89 6 100 3 35 -8 68
-96 68 -179 0 -66 0 -68 17 -47 9 11 28 21 41 21 57 0 149 83 204 183 36 66
40 160 8 204 -22 30 -206 127 -213 111 -5 -14 -1 -16 85 -51 99 -41 124 -73
124 -157 0 -112 -90 -227 -207 -268 -29 -10 -33 -9 -33 7 0 14 10 20 38 25 75
12 164 117 179 212 6 34 4 37 -13 29 -10 -4 -57 -12 -104 -17 -118 -11 -162
-36 -104 -58 43 -17 63 -12 70 15 5 22 12 25 49 25 24 0 51 3 61 7 51 19 -49
-142 -106 -172 -33 -17 -80 -20 -80 -5 0 5 7 7 17 3 22 -9 -19 65 -61 108
l-30 31 -100 -6 c-106 -7 -167 1 -174 22 -2 8 7 7 32 -3 19 -8 55 -15 78 -14
l43 1 -50 12 c-72 18 -94 32 -88 56 6 24 16 25 33 6 6 -8 33 -23 58 -32 26
-10 53 -22 61 -28 11 -9 13 -8 10 4 -3 8 -33 29 -67 45 -33 17 -64 33 -67 37
-4 3 1 18 11 33 l17 26 24 -41 c13 -22 29 -40 34 -40 11 0 7 9 -24 53 -10 15
-16 34 -13 42 5 14 63 55 77 55 3 0 16 -37 28 -82 23 -83 47 -132 61 -123 5 3
22 29 38 58 16 28 46 68 66 86 33 32 47 61 28 61 -10 0 -81 -75 -117 -123
l-29 -39 -21 74 c-12 41 -25 80 -30 88 -7 11 9 12 88 6 l97 -7 0 31 c0 42 19
46 76 17 27 -14 63 -28 81 -31 93 -21 133 -113 109 -253 -10 -57 -75 -155
-128 -194 -57 -42 -137 -79 -170 -79 -20 0 -28 -7 -37 -31 -16 -46 -79 -128
-112 -144 -15 -8 -47 -15 -69 -15 -37 0 -48 7 -102 58 -37 34 -63 52 -65 45
-3 -9 -10 -10 -24 -3 -24 13 -24 26 0 47 20 16 19 17 -9 50 -43 49 -64 135
-38 161 7 7 32 12 55 12 24 0 55 7 69 17 23 15 31 15 98 0 40 -8 89 -22 109
-31 32 -13 37 -19 37 -49 l0 -34 -70 -12 c-44 -8 -70 -18 -70 -26 0 -12 38 -9
117 10 17 4 21 2 17 -10 -4 -8 -15 -15 -25 -15 -10 0 -19 -4 -19 -10 0 -5 7
-10 15 -10 16 0 20 -12 8 -23 -3 -4 -17 3 -30 15 -12 12 -26 19 -29 15 -3 -3
6 -16 20 -28 15 -13 24 -29 21 -37 -3 -8 0 -12 7 -10 23 8 57 110 58 169 l0
57 -47 20 c-81 34 -164 47 -221 34 -44 -10 -59 -8 -127 13 -96 29 -144 61
-184 121 -55 84 -63 126 -70 380 -5 177 -10 236 -21 250 -23 31 -54 54 -72 54
-26 0 -22 -25 7 -40 40 -21 59 -74 63 -182 2 -54 1 -115 -3 -135 -7 -37 -8
-37 -17 -13 -5 14 -13 71 -18 128 -7 95 -11 107 -49 170 -23 38 -41 78 -41 89
0 28 45 63 81 63 23 0 35 -10 68 -59z m587 -5 c153 -74 271 -204 295 -326 8
-43 16 -60 30 -63 11 -3 23 1 27 10 7 12 10 12 19 1 14 -18 48 -116 42 -123
-3 -2 -21 0 -41 6 -44 11 -123 86 -160 150 -36 62 -130 147 -208 188 -85 45
-169 52 -268 22 -125 -38 -192 -26 -192 34 0 24 -7 39 -22 49 l-22 16 25 0
c15 0 37 -13 58 -35 28 -30 39 -35 76 -35 25 0 68 10 97 21 69 28 140 28 202
0 109 -48 283 -195 310 -261 19 -49 26 -51 16 -6 -12 55 -99 186 -168 253 -39
38 -90 75 -130 95 -61 30 -75 33 -159 33 -86 0 -105 6 -58 18 55 15 138 -2
231 -47z m-1016 30 c0 -2 -7 -6 -15 -10 -8 -3 -15 -1 -15 4 0 6 7 10 15 10 8
0 15 -2 15 -4z m695 -26 c-11 -5 -29 -8 -40 -8 -16 0 -15 2 5 8 34 11 60 11
35 0z m299 -34 c32 -16 86 -55 120 -88 l61 -60 -67 46 c-142 98 -231 118 -338
76 -69 -27 -112 -26 -148 5 -16 14 -40 29 -53 34 -24 10 -24 10 4 10 15 1 38
-6 50 -14 20 -13 30 -13 87 5 97 29 207 24 284 -14z m321 10 c16 -25 12 -70
-7 -83 -15 -9 -48 37 -48 68 0 46 30 54 55 15z m-1192 3 c24 -6 58 -30 92 -65
58 -57 65 -60 39 -16 -15 25 -15 26 1 7 24 -29 40 -59 26 -51 -14 9 -14 3 1
-29 7 -16 14 -21 18 -14 4 6 8 -2 8 -18 0 -15 2 -55 3 -88 2 -78 -30 -163 -77
-204 -19 -17 -63 -46 -97 -63 -61 -32 -64 -32 -185 -30 -135 3 -178 -5 -265
-49 -32 -16 -56 -26 -53 -21 3 5 34 23 68 40 85 42 180 57 260 43 34 -6 63 -9
65 -8 1 2 -28 13 -66 25 -38 13 -74 29 -81 37 -16 20 -11 19 41 -5 58 -26 143
-26 213 0 54 21 150 95 141 110 -3 4 -22 -9 -43 -30 -48 -48 -160 -86 -227
-76 -110 15 -195 89 -195 170 l1 41 21 -40 c66 -130 197 -177 318 -115 73 38
119 119 120 210 0 135 -123 243 -260 227 -45 -5 -45 -5 -15 8 36 17 77 18 128
4z m384 -15 c-3 -3 -12 -4 -19 -1 -8 3 -5 6 6 6 11 1 17 -2 13 -5z m-1688 -33
c-6 -2 21 -19 60 -38 54 -26 71 -39 71 -55 0 -12 -5 -18 -12 -15 -141 62 -139
62 -253 61 -283 -2 -615 -168 -797 -398 -30 -38 -36 -51 -27 -62 6 -8 17 -14
25 -14 18 0 30 -25 38 -79 4 -24 13 -56 22 -72 20 -40 5 -36 -28 7 -16 21 -29
55 -33 84 -8 57 -18 62 -40 20 -19 -38 -20 -89 0 -96 8 -4 15 -10 15 -15 0
-16 -21 -9 -45 16 -74 74 27 254 226 404 157 119 399 227 559 249 60 9 243 11
219 3z m125 -7 c9 -3 16 -13 16 -20 0 -11 -4 -12 -19 -4 -11 5 -37 14 -58 19
l-38 9 42 1 c23 1 48 -2 57 -5z m1071 -4 c3 -6 -4 -10 -18 -10 -13 0 -41 -11
-61 -25 -43 -29 -46 -30 -46 -10 0 34 108 73 125 45z m-2029 -69 c14 -11 47
-25 74 -32 28 -7 50 -15 50 -18 -1 -3 -42 -37 -92 -76 -49 -38 -115 -98 -146
-132 -52 -59 -57 -62 -73 -47 -25 23 -42 80 -35 116 11 56 45 96 108 130 35
19 64 41 69 55 10 28 14 28 45 4z m2194 -20 c25 -48 -7 -96 -36 -56 -17 24
-18 62 -1 68 21 9 26 7 37 -12z m-1714 -82 c44 -28 98 -67 122 -86 44 -36 77
-87 67 -103 -12 -20 -31 -9 -43 24 -10 27 -33 49 -100 94 -48 33 -107 69 -131
82 -33 16 -41 24 -30 31 23 15 33 11 115 -42z m384 20 c-14 -25 -38 -35 -52
-21 -16 16 8 42 39 42 21 0 22 -2 13 -21z m-113 -5 c9 -23 -11 -38 -26 -20
-13 16 -7 36 10 36 5 0 12 -7 16 -16z m2127 -58 c21 -70 20 -76 -5 -76 -43 0
-57 17 -52 62 6 59 10 68 27 68 9 0 21 -20 30 -54z m580 25 l39 -17 -41 -13
c-46 -16 -62 -9 -62 25 0 28 11 29 64 5z m-654 -28 c0 -19 -3 -24 -10 -17 -6
6 -8 18 -4 27 9 24 14 21 14 -10z m211 -31 c-5 -10 -18 -25 -27 -33 -11 -9 -9
-2 6 19 26 35 36 42 21 14z m-2741 -16 c0 -8 -4 -18 -10 -21 -5 -3 -10 3 -10
14 0 12 5 21 10 21 6 0 10 -6 10 -14z m85 -3 c-4 -10 -10 -30 -13 -45 -5 -32
-27 -37 -40 -10 -11 21 -5 43 16 60 24 18 46 15 37 -5z m1803 -40 c-5 -25 -28
-28 -28 -4 0 12 6 21 16 21 9 0 14 -7 12 -17z m-1210 -12 c3 -8 -1 -12 -9 -9
-7 2 -15 10 -17 17 -3 8 1 12 9 9 7 -2 15 -10 17 -17z m1452 -51 c0 -17 -3
-18 -24 -8 -29 13 -39 33 -30 61 6 20 8 20 30 -7 13 -15 24 -36 24 -46z m448
8 c-2 -22 -9 -34 -21 -36 -25 -5 -32 25 -12 48 26 29 37 25 33 -12z m-1930
-53 c44 -22 143 -115 142 -134 -1 -6 -125 -103 -140 -109 -4 -1 -5 10 -3 25 4
22 2 25 -6 13 -6 -8 -11 -25 -11 -37 0 -24 -15 -39 -24 -24 -4 5 12 48 35 96
27 56 38 90 32 96 -14 14 -25 -3 -63 -98 -19 -46 -36 -81 -38 -79 -2 3 4 48
13 101 9 54 14 103 11 111 -6 16 -122 20 -146 4 -9 -5 -19 -5 -26 1 -8 6 -14
6 -18 1 -10 -16 37 -40 59 -31 11 4 37 8 58 8 l37 1 -1 -62 c-1 -68 -18 -148
-33 -151 -5 -1 -16 35 -25 80 -9 45 -20 85 -24 89 -11 12 -8 -27 8 -86 8 -30
15 -70 15 -87 0 -28 4 -33 25 -33 13 0 28 8 34 18 9 16 10 16 16 0 11 -27 42
-22 96 17 27 19 71 51 98 70 l49 35 31 -53 c17 -30 38 -74 46 -98 9 -24 20
-46 26 -50 34 -21 12 -182 -37 -265 -96 -164 -316 -226 -532 -151 -124 43
-178 101 -221 234 -25 77 -27 233 -4 240 10 4 13 -20 12 -96 0 -81 4 -109 21
-147 25 -58 102 -163 107 -147 5 15 -22 78 -58 134 -76 119 -50 313 60 449 62
77 126 126 185 141 51 13 139 2 194 -26z m1782 20 c0 -2 -18 -14 -40 -25 -34
-17 -40 -18 -40 -5 0 9 10 20 23 25 24 10 57 13 57 5z m-2379 -25 c80 -25 126
-53 141 -85 17 -39 1 -42 -30 -7 -17 21 -48 39 -86 52 -72 24 -66 25 -66 -2 0
-23 -1 -22 -13 2 -17 34 -78 41 -100 10 -13 -19 -26 -21 -141 -25 -112 -3
-145 2 -117 19 4 3 48 10 97 16 49 5 109 17 134 24 63 20 108 19 181 -4z
m1470 -18 c-8 -2 -39 -18 -69 -34 -30 -15 -56 -27 -58 -26 -1 2 23 24 54 49
50 41 59 45 72 31 13 -12 13 -15 1 -20z m562 -20 c42 -28 47 -36 15 -27 -19 5
-19 3 5 -12 18 -12 31 -32 38 -58 16 -63 31 -96 64 -139 30 -41 36 -86 11 -86
-6 0 18 -33 55 -72 37 -40 66 -74 64 -76 -2 -2 -15 4 -29 13 -14 9 -31 15 -38
12 -7 -2 11 -16 39 -31 47 -23 56 -33 82 -91 25 -54 36 -67 68 -81 21 -9 45
-20 53 -23 24 -12 50 -73 50 -119 0 -49 -23 -77 -99 -122 l-43 -25 6 -85 c7
-100 2 -114 -69 -164 -102 -72 -105 -73 -190 -46 -75 24 -75 24 -151 6 -119
-28 -178 -7 -243 88 l-31 44 27 7 c53 13 163 86 205 136 42 49 43 50 57 30 7
-12 17 -21 22 -21 14 0 10 22 -7 41 -14 15 -12 21 17 69 l31 51 19 -30 c27
-44 39 -38 39 17 0 56 -7 67 -28 49 -14 -10 -15 -9 -8 8 20 48 56 172 57 195
1 23 2 23 8 -4 3 -16 12 -31 20 -34 10 -3 12 1 8 19 -4 13 -7 32 -7 42 0 10
-4 16 -8 13 -5 -3 -7 17 -4 43 6 68 -28 139 -108 224 -50 54 -82 77 -162 117
-91 45 -96 50 -71 56 44 11 116 50 142 77 26 28 35 27 94 -11z m-1258 -57 c24
-28 68 -100 97 -160 49 -100 53 -116 56 -191 4 -90 -7 -122 -94 -256 -43 -68
-144 -155 -165 -143 -5 4 9 19 33 34 57 36 129 119 170 195 30 57 33 68 33
156 l0 95 -55 110 c-40 81 -72 128 -120 179 -54 58 -59 66 -31 50 18 -10 53
-42 76 -69z m1629 50 c8 -42 0 -75 -18 -75 -12 0 -53 77 -45 84 9 7 44 25 50
26 4 0 10 -16 13 -35z m-918 -12 c-9 -9 -98 -43 -111 -43 -17 1 79 49 99 50
11 0 16 -3 12 -7z m-1526 -29 c0 -8 -4 -12 -10 -9 -5 3 -10 10 -10 16 0 5 5 9
10 9 6 0 10 -7 10 -16z m-86 -20 c3 -9 3 -20 0 -25 -8 -13 -34 9 -34 27 0 19
26 18 34 -2z m1209 -11 c46 -5 57 -9 55 -22 -2 -12 -17 -17 -54 -19 -68 -4
-104 10 -97 38 4 15 11 19 22 15 9 -4 42 -9 74 -12z m122 -13 c-3 -5 -12 -10
-18 -10 -7 0 -6 4 3 10 19 12 23 12 15 0z m552 -21 c103 -26 167 -62 243 -139
88 -87 105 -125 104 -220 -1 -57 -8 -94 -32 -157 -50 -136 -168 -298 -267
-368 -47 -34 -82 -48 -57 -23 16 16 15 28 -2 28 -21 0 -43 -30 -27 -39 6 -4
-25 -13 -71 -20 -72 -11 -92 -11 -152 3 -38 9 -88 25 -112 35 -49 22 -134 97
-134 118 0 8 -11 28 -25 44 -27 33 -37 65 -62 191 -14 73 -15 95 -4 143 19 86
85 208 146 270 41 43 50 57 40 65 -19 16 -93 -64 -150 -164 -26 -45 -44 -72
-40 -61 16 50 83 153 124 195 52 50 153 105 221 120 58 12 163 3 257 -21z
m-1989 -160 c67 -81 157 -180 200 -220 43 -41 92 -92 108 -114 l29 -39 -50 39
c-115 91 -150 124 -221 212 -41 50 -96 107 -122 126 -38 27 -50 43 -61 83 -8
27 -16 56 -19 64 -7 20 -4 17 136 -151z m278 90 c15 -31 18 -49 7 -49 -10 0
-53 75 -53 91 0 17 28 -9 46 -42z m1206 33 c10 -2 28 2 40 8 22 11 21 10 -1
-8 -14 -11 -30 -18 -37 -15 -7 2 -15 -1 -20 -8 -5 -8 -3 -10 7 -4 11 7 11 5
-1 -9 -14 -17 -15 -17 -23 2 -10 23 0 63 11 47 4 -6 15 -11 24 -13z m-77 -42
c41 -45 11 -125 -48 -132 l-35 -4 34 45 c49 64 32 64 -26 0 -52 -57 -61 -76
-32 -64 9 4 34 9 54 12 l38 6 -38 -81 c-23 -51 -41 -77 -46 -71 -6 5 -27 9
-48 9 -31 0 -38 -4 -38 -19 0 -38 55 -70 100 -58 16 4 20 0 20 -22 0 -38 -4
-40 -56 -29 -27 6 -50 6 -55 1 -10 -10 65 -93 84 -93 7 1 -8 19 -32 40 -44 40
-41 46 18 34 36 -8 52 -48 40 -102 -16 -73 -63 -106 -198 -140 -81 -21 -154
-16 -199 14 l-26 17 56 28 c30 15 69 44 87 64 35 40 88 141 130 249 16 39 36
87 44 107 9 20 13 40 9 44 -4 5 -2 5 5 1 13 -7 83 101 83 128 0 33 -17 14 -48
-51 l-32 -68 5 70 c4 61 3 68 -9 52 -8 -10 -17 -43 -21 -73 -3 -30 -13 -74
-20 -97 l-13 -42 -1 47 c-1 40 -22 124 -46 181 -7 16 3 17 117 17 112 0 127
-2 143 -20z m-1590 -28 c-3 -3 -11 0 -18 7 -9 10 -8 11 6 5 10 -3 15 -9 12
-12z m2773 -93 l31 -11 -26 -22 c-25 -21 -25 -23 -14 -78 7 -32 23 -73 37 -93
29 -43 29 -45 7 -45 -27 0 -83 141 -83 208 0 56 1 57 48 41z m-2448 -322 c3
-56 5 -103 4 -105 -1 -2 -25 35 -54 82 -58 97 -113 212 -129 271 -11 39 -11
39 82 -53 l92 -92 5 -103z m3163 111 c-21 -109 -109 -308 -196 -440 l-50 -77
-19 36 c-18 33 -18 38 -4 68 9 18 16 53 16 78 0 28 8 59 20 80 11 19 27 68 36
108 8 40 16 74 17 74 57 24 138 70 152 85 26 29 35 25 28 -12z m-3073 -124 c0
-14 4 -32 10 -42 14 -25 35 -104 32 -125 -1 -10 2 -16 7 -12 5 3 11 -6 13 -20
2 -17 7 -22 16 -16 11 7 11 15 -2 46 -9 21 -22 61 -30 89 -7 28 -17 59 -21 68
-8 21 112 -41 139 -71 10 -11 34 -26 54 -32 l35 -12 -29 -12 c-29 -11 -29 -12
-7 -23 12 -7 29 -12 37 -12 29 0 36 -33 15 -79 -10 -24 -19 -65 -19 -91 0 -46
3 -51 50 -91 40 -33 54 -54 67 -97 23 -71 69 -122 111 -122 38 0 141 26 196
50 23 9 55 16 71 15 17 -1 22 0 13 2 -26 7 -22 20 11 31 20 7 45 6 83 -3 58
-13 138 -7 178 15 25 13 23 15 43 -26 18 -36 14 -44 -22 -44 -34 0 -15 -17 24
-22 l30 -4 -25 -12 c-17 -9 -44 -10 -85 -5 -52 7 -60 11 -63 30 -3 17 0 21 12
17 11 -4 16 -1 16 10 0 9 -7 19 -16 23 -39 15 -62 -77 -25 -97 28 -15 174 -13
190 3 10 10 12 7 9 -13 -2 -19 -14 -28 -48 -41 -33 -13 -41 -19 -28 -24 9 -3
33 -2 54 4 48 13 65 -5 32 -32 -17 -14 -19 -20 -9 -27 10 -5 1 -15 -30 -33
-88 -52 -118 -60 -209 -55 -101 6 -192 35 -359 114 -110 53 -122 62 -227 168
-119 120 -174 194 -236 317 -63 127 -107 283 -91 325 8 22 33 -2 33 -32z
m2810 -16 c-1 -52 -1 -53 -15 -26 -11 20 -12 34 -5 52 14 39 20 32 20 -26z
m-43 -114 c5 -58 2 -76 -15 -110 -24 -47 -47 -69 -62 -59 -8 5 -8 11 1 21 14
17 -2 19 -18 3 -9 -9 -25 -4 -65 18 l-53 30 0 65 0 65 45 -5 c25 -2 53 -9 62
-13 22 -12 28 -11 28 2 0 5 -4 7 -10 4 -5 -3 -10 -3 -10 2 1 13 74 61 83 53 4
-4 11 -38 14 -76z m-2157 -31 c0 -2 -16 -9 -35 -17 -27 -12 -35 -21 -35 -41 0
-20 -6 -27 -30 -32 -37 -7 -50 -23 -18 -23 36 0 101 20 121 38 24 21 22 35 -4
22 -11 -6 -28 -9 -37 -7 -13 3 -10 7 13 18 17 7 33 18 36 22 4 5 13 1 20 -10
31 -41 70 -62 132 -68 38 -4 73 -2 91 4 32 13 46 7 28 -11 -18 -18 -14 -46 7
-58 25 -13 41 -13 41 0 0 6 -9 10 -20 10 -11 0 -20 4 -20 9 0 18 45 60 71 66
26 6 27 5 33 -52 8 -62 9 -91 4 -137 -2 -24 1 -31 21 -36 l25 -6 -22 -20 c-38
-36 -97 -50 -145 -35 -86 26 -94 25 -180 -17 -97 -47 -146 -62 -207 -62 -62 0
-84 18 -111 96 -13 36 -30 69 -39 72 -8 3 -27 16 -42 30 -35 33 -38 94 -7 147
15 25 19 44 15 68 l-6 32 150 0 c83 0 150 -1 150 -2z m2660 -19 c0 -15 -137
-255 -192 -336 -105 -157 -265 -334 -284 -315 -4 3 18 32 48 64 130 138 214
254 323 448 37 66 72 126 78 133 10 13 27 16 27 6z m-2170 -24 c9 -5 19 -5 26
1 9 7 18 -7 34 -55 11 -35 28 -70 36 -76 18 -15 18 -14 -2 44 -9 26 -13 50 -9
54 12 12 35 -30 29 -54 -3 -13 2 -33 12 -49 16 -24 19 -25 24 -10 5 16 11 12
36 -20 35 -47 68 -79 122 -123 38 -30 57 -72 32 -72 -5 0 -56 45 -112 100 -56
55 -104 100 -106 100 -8 0 63 -77 148 -160 62 -61 91 -98 103 -130 9 -25 22
-63 30 -85 20 -55 79 -96 143 -101 27 -1 38 0 24 2 -45 10 -43 22 3 17 90 -10
193 50 254 150 26 44 39 57 52 52 9 -4 50 -13 91 -21 125 -25 161 -12 284 98
l48 43 9 95 c10 106 22 128 55 101 12 -9 28 -30 37 -46 15 -28 16 -29 17 -7 0
13 -13 37 -30 53 -37 38 -16 52 30 19 40 -28 50 -50 50 -102 0 -36 -6 -50 -29
-72 -16 -16 -35 -41 -41 -56 -10 -24 -18 -28 -61 -32 -60 -6 -83 -26 -97 -81
-15 -57 -6 -59 17 -3 22 50 52 69 105 64 26 -3 33 2 52 37 12 22 36 54 52 70
28 28 29 33 23 88 -4 31 -4 57 1 57 17 0 159 -93 168 -110 14 -25 15 -21 -35
-85 -55 -71 -49 -93 8 -29 57 63 60 70 52 110 -5 28 -17 42 -61 71 -67 44 -65
56 3 14 80 -49 96 -117 44 -188 -33 -45 -86 -87 -100 -79 -5 3 -14 -1 -21 -9
-14 -17 -40 -20 -40 -4 0 5 12 51 26 101 25 86 25 93 10 122 l-16 31 6 -28 c4
-18 -4 -64 -22 -125 -28 -92 -32 -99 -99 -167 -76 -77 -154 -129 -179 -119
-12 5 -15 2 -10 -10 3 -9 1 -16 -5 -16 -21 0 -11 38 14 54 52 34 9 116 -60
116 -50 0 -85 -33 -85 -81 0 -36 -3 -41 -35 -55 -19 -7 -60 -14 -92 -14 -46 0
-66 5 -97 26 -22 15 -37 21 -34 13 3 -8 19 -24 38 -37 42 -28 147 -31 200 -4
31 15 36 22 41 65 3 27 12 53 20 58 26 17 71 5 93 -24 l21 -29 -27 -20 c-21
-14 -28 -28 -28 -52 0 -32 -4 -35 -77 -69 -158 -71 -307 -103 -452 -94 -115 7
-204 33 -324 94 -139 72 -240 194 -315 381 -47 117 -62 176 -62 243 0 68 8 80
40 59z m498 -260 l67 -1 33 -45 c48 -65 114 -104 174 -104 l49 0 -34 -52 c-48
-75 -102 -111 -176 -116 -69 -5 -138 22 -165 64 -54 81 -75 277 -29 260 8 -3
45 -6 81 -6z m-411 -446 c45 -31 57 -30 49 1 -9 34 0 33 62 -10 1 -1 -2 -14
-7 -28 -13 -34 -56 -43 -110 -21 -52 21 -97 70 -80 90 12 15 23 11 86 -32z
m32 20 c13 -12 -8 -10 -29 2 l-25 15 25 -7 c14 -3 27 -8 29 -10z m-109 -49
c66 -68 136 -81 186 -34 21 20 23 20 47 4 21 -14 30 -14 49 -4 13 7 25 16 28
20 3 4 12 4 20 -1 12 -7 4 -20 -39 -64 -30 -31 -53 -58 -50 -60 2 -3 30 20 63
50 32 30 63 54 69 54 18 -1 -121 -127 -159 -145 -56 -26 -87 -20 -152 33 -103
83 -178 155 -155 148 16 -5 25 -2 33 14 15 27 21 26 60 -15z m1560 0 c0 -15
-262 -175 -385 -235 -173 -85 -283 -123 -439 -155 -245 -49 -550 -58 -771 -21
-114 19 -279 62 -314 81 l-26 15 25 -5 c261 -54 440 -75 651 -75 453 0 739 83
1126 325 112 71 133 82 133 70z m-981 -125 c14 -7 -26 -18 -124 -33 l-30 -5
35 29 c29 24 40 28 70 23 19 -4 41 -10 49 -14z m203 -42 c-95 -21 -251 -38
-340 -38 -87 0 -64 16 37 25 42 4 92 12 111 19 19 6 88 11 152 11 l117 0 -77
-17z"/>
<path d="M2555 4479 c-27 -16 -85 -71 -85 -81 0 -17 25 -7 56 23 35 34 104 50
128 30 11 -9 19 -9 33 0 15 9 31 8 76 -5 31 -9 57 -22 57 -29 0 -7 -9 -30 -19
-52 l-19 -40 -1 37 c-1 54 -21 59 -21 5 0 -28 6 -49 15 -57 19 -16 16 -19 50
57 15 34 24 67 20 73 -15 24 -81 42 -174 46 -62 3 -103 0 -116 -7z"/>
<path d="M2665 4389 c-12 -19 25 -100 44 -97 20 4 27 58 11 88 -11 21 -44 27
-55 9z m39 -15 c9 -22 7 -44 -2 -44 -12 0 -32 46 -25 54 11 10 21 7 27 -10z"/>
<path d="M2880 4387 c0 -7 -13 -28 -30 -47 -36 -43 -39 -62 -5 -30 14 13 25
29 25 36 0 6 6 17 14 23 10 9 16 8 26 -4 13 -16 50 -21 50 -6 0 12 -46 41 -65
41 -8 0 -15 -6 -15 -13z"/>
<path d="M2480 4340 c0 -5 5 -10 10 -10 6 0 10 5 10 10 0 6 -4 10 -10 10 -5 0
-10 -4 -10 -10z"/>
<path d="M2487 4287 c-3 -8 -1 -20 4 -28 5 -8 9 -24 9 -36 0 -28 11 -29 35 -3
15 16 17 26 9 48 -10 29 -48 42 -57 19z m32 -40 c0 -21 -1 -21 -9 -2 -12 28
-12 37 0 30 6 -3 10 -16 9 -28z"/>
<path d="M2575 4270 c-16 -26 41 -98 69 -87 25 10 19 36 -15 68 -33 31 -44 35
-54 19z"/>
<path d="M1805 4431 c-6 -11 9 -23 19 -14 9 9 7 23 -3 23 -6 0 -12 -4 -16 -9z"/>
<path d="M1865 4430 c3 -5 10 -10 16 -10 5 0 9 5 9 10 0 6 -7 10 -16 10 -8 0
-12 -4 -9 -10z"/>
<path d="M1645 4379 c-12 -19 5 -23 22 -6 16 16 16 17 1 17 -9 0 -20 -5 -23
-11z"/>
<path d="M1575 4320 c-18 -20 -11 -25 19 -14 17 6 23 34 8 34 -5 0 -17 -9 -27
-20z"/>
<path d="M1545 4279 c-12 -19 5 -23 22 -6 16 16 16 17 1 17 -9 0 -20 -5 -23
-11z"/>
<path d="M1537 4231 c-59 -61 -70 -79 -39 -62 34 19 102 89 102 105 0 9 -2 16
-3 16 -2 0 -29 -27 -60 -59z"/>
<path d="M1397 4053 c-4 -3 -7 -13 -7 -21 0 -12 3 -12 15 -2 8 7 15 16 15 21
0 11 -14 12 -23 2z"/>
<path d="M2311 4276 c-10 -12 -6 -24 21 -64 18 -27 41 -64 51 -82 21 -39 32
-35 17 6 -7 16 -17 56 -24 89 -9 48 -16 61 -32 63 -12 2 -26 -4 -33 -12z m39
-32 c0 -14 -4 -23 -10 -19 -5 3 -10 15 -10 26 0 10 5 19 10 19 6 0 10 -12 10
-26z"/>
<path d="M2952 4080 c-73 -26 -115 -54 -162 -107 -41 -47 -70 -120 -70 -179 0
-47 17 -51 24 -6 21 119 73 196 167 247 45 24 69 30 139 33 111 5 184 -20 251
-87 69 -69 92 -138 92 -274 -1 -60 1 -107 3 -105 2 3 10 31 17 64 l14 59 8
-75 8 -75 10 45 c12 55 -3 163 -33 244 -25 66 -105 158 -164 188 -98 50 -214
61 -304 28z"/>
<path d="M3252 3944 c2 -5 15 -31 28 -59 22 -44 25 -63 25 -167 0 -78 3 -114
10 -107 6 6 10 58 10 117 0 97 -3 112 -27 159 -15 28 -33 55 -39 59 -6 4 -10
3 -7 -2z"/>
<path d="M2952 3876 c-60 -20 -122 -74 -157 -137 -41 -74 -42 -170 -3 -244 88
-169 266 -205 395 -80 61 60 77 107 71 210 -12 179 -158 299 -306 251z m121
-27 c51 -14 103 -61 134 -123 36 -68 38 -171 6 -232 -93 -175 -318 -161 -402
26 -44 98 -19 205 66 280 64 56 120 70 196 49z"/>
<path d="M3147 3703 c12 -57 8 -115 -11 -151 -19 -37 -4 -44 19 -9 22 34 29
108 15 151 -16 51 -33 58 -23 9z"/>
<path d="M3160 3509 c-12 -16 -20 -32 -17 -35 6 -6 47 45 47 57 0 16 -8 10
-30 -22z"/>
<path d="M2898 3440 c18 -17 42 -30 55 -30 17 0 12 7 -25 30 -61 38 -72 38
-30 0z"/>
<path d="M3040 3435 c-29 -11 -32 -14 -17 -20 20 -8 67 9 67 25 0 12 -6 12
-50 -5z"/>
<path d="M3392 3510 c-8 -25 -22 -60 -33 -78 -23 -39 -24 -49 -5 -33 21 17 58
109 54 134 -2 16 -7 9 -16 -23z"/>
<path d="M3075 3334 c-22 -8 -65 -18 -95 -22 -50 -7 -55 -10 -56 -32 -1 -14
-2 -31 -3 -37 -1 -16 -27 -17 -34 -3 -3 6 -4 5 -3 -2 1 -7 15 -14 29 -16 23
-3 28 1 33 27 5 24 13 31 38 36 59 12 124 36 136 51 15 17 7 17 -45 -2z"/>
<path d="M1945 4091 c-22 -10 -48 -27 -58 -39 -18 -20 -18 -20 25 1 67 33 151
35 229 4 l64 -26 -33 28 c-61 52 -155 65 -227 32z"/>
<path d="M2272 3983 c60 -63 116 -151 140 -221 19 -54 23 -87 22 -172 0 -98 1
-102 12 -65 27 86 12 198 -38 303 -31 62 -139 192 -161 192 -6 0 5 -17 25 -37z"/>
<path d="M1918 3875 c-155 -81 -182 -291 -53 -420 49 -49 89 -67 162 -73 107
-8 193 42 245 141 29 57 30 154 1 219 -61 135 -229 198 -355 133z m226 -34
c27 -15 62 -45 77 -67 34 -45 55 -134 45 -185 -27 -146 -201 -225 -331 -150
-131 75 -165 244 -73 356 70 85 179 102 282 46z"/>
<path d="M2010 3820 c-18 -11 -7 -16 68 -25 60 -7 66 0 17 21 -40 16 -64 18
-85 4z"/>
<path d="M2186 3698 c9 -17 22 -47 29 -67 l14 -36 0 35 c1 36 -31 100 -49 100
-6 0 -4 -13 6 -32z"/>
<path d="M1837 3633 c-8 -12 10 -69 19 -60 3 2 1 20 -3 38 -5 19 -12 29 -16
22z"/>
<path d="M2047 3463 c-20 -2 -35 -8 -32 -14 10 -15 71 -10 85 6 10 12 10 15
-1 13 -8 -1 -31 -3 -52 -5z"/>
<path d="M1736 3858 c-23 -35 -37 -113 -27 -140 9 -20 10 -19 10 15 1 21 10
62 20 92 21 59 20 68 -3 33z"/>
<path d="M1636 3702 c-20 -81 -3 -185 40 -254 31 -48 104 -119 163 -159 52
-34 147 -71 170 -66 9 1 -7 11 -36 21 -113 38 -235 143 -289 247 -22 43 -29
73 -33 149 -5 77 -8 89 -15 62z"/>
<path d="M3796 3962 c-3 -6 -1 -14 5 -17 15 -10 25 3 12 16 -7 7 -13 7 -17 1z"/>
<path d="M3820 3903 c0 -5 4 -15 10 -23 11 -18 25 -7 17 15 -6 15 -27 21 -27
8z"/>
<path d="M3905 3671 c-3 -5 -1 -12 5 -16 5 -3 10 1 10 9 0 18 -6 21 -15 7z"/>
<path d="M3640 3345 c0 -12 29 -25 58 -25 25 0 11 17 -23 27 -27 9 -35 8 -35
-2z"/>
<path d="M1425 3458 c-42 -15 -55 -27 -55 -51 0 -18 4 -19 61 -13 33 3 65 8
70 12 19 11 9 45 -17 54 -14 6 -26 10 -27 9 -1 0 -15 -5 -32 -11z m35 -28
c-14 -4 -34 -8 -45 -8 l-20 -1 20 9 c11 5 31 8 45 8 l25 0 -25 -8z"/>
<path d="M1263 3413 c-24 -9 -14 -25 11 -19 14 3 28 2 31 -4 4 -6 -10 -10 -34
-10 -29 0 -41 -4 -41 -15 0 -19 58 -29 93 -16 34 13 34 24 1 50 -27 21 -38 24
-61 14z"/>
<path d="M1175 3400 c-8 -12 3 -50 15 -50 4 0 10 14 12 30 4 30 -13 43 -27 20z"/>
<path d="M1570 3308 c49 -34 71 -69 80 -129 4 -30 8 -48 9 -41 2 23 20 12 23
-15 2 -20 9 -29 26 -31 19 -3 22 1 22 28 0 26 -4 31 -30 37 -26 5 -30 10 -30
37 0 41 -32 91 -72 116 -45 27 -69 25 -28 -2z"/>
<path d="M1054 3306 c-14 -37 0 -51 50 -51 46 0 51 -3 92 -49 53 -60 68 -55
25 8 -40 57 -67 76 -109 76 -30 0 -33 2 -22 15 10 13 9 15 -9 15 -12 0 -24 -6
-27 -14z"/>
<path d="M1303 3259 c-43 -21 -74 -49 -55 -49 5 0 34 11 64 25 38 18 70 25
114 25 79 0 120 -26 154 -97 33 -66 45 -77 36 -33 -10 54 -52 109 -99 131 -59
26 -159 26 -214 -2z"/>
<path d="M997 3203 c-14 -13 -7 -74 9 -80 21 -8 34 13 34 55 0 24 -4 32 -18
32 -10 0 -22 -3 -25 -7z"/>
<path d="M1359 3205 c0 -6 -2 -20 -5 -32 -5 -27 8 -30 26 -7 11 12 10 18 -3
32 -10 9 -17 12 -18 7z"/>
<path d="M1440 3197 c0 -14 19 -37 32 -37 16 0 7 30 -12 40 -15 8 -20 8 -20
-3z"/>
<path d="M1420 3136 c0 -9 65 -36 87 -36 16 0 16 2 2 15 -16 16 -89 33 -89 21z"/>
<path d="M966 3075 c-3 -8 -15 -15 -26 -15 -11 0 -20 -4 -20 -10 0 -5 6 -10
13 -10 7 0 18 -9 25 -20 7 -11 19 -20 28 -20 15 0 64 46 64 61 0 17 -29 9 -40
-11 -16 -30 -30 -24 -23 10 6 31 -10 43 -21 15z"/>
<path d="M1227 3063 c-9 -2 -26 -21 -36 -41 -35 -69 -79 -92 -129 -66 -23 11
-36 12 -49 5 -16 -9 -16 -10 4 -11 12 0 34 -11 49 -25 30 -28 49 -31 91 -14
25 10 26 12 9 18 -17 7 -16 8 7 24 14 9 30 32 37 51 17 54 62 58 184 19 33
-11 7 17 -30 33 -32 13 -99 17 -137 7z"/>
<path d="M941 2964 c0 -11 3 -14 6 -6 3 7 2 16 -1 19 -3 4 -6 -2 -5 -13z"/>
<path d="M4127 3093 c-4 -3 -7 -15 -7 -25 0 -28 34 -19 38 10 3 21 -16 31 -31
15z"/>
<path d="M2225 3197 c-93 -31 -160 -90 -197 -173 -92 -210 83 -483 296 -461
107 11 215 88 266 189 75 150 8 348 -144 425 -61 31 -160 40 -221 20z m195
-39 c147 -63 220 -256 148 -394 -49 -93 -170 -174 -262 -174 -91 0 -196 71
-242 165 -92 190 18 403 221 428 43 5 83 -3 135 -25z"/>
<path d="M2550 2854 c0 -8 5 -12 10 -9 6 4 8 11 5 16 -9 14 -15 11 -15 -7z"/>
<path d="M2163 2692 c18 -20 65 -38 74 -28 4 4 -13 13 -82 44 -5 3 -2 -4 8
-16z"/>
<path d="M2312 2663 c-12 -2 -20 -9 -17 -14 9 -14 32 -11 39 6 3 8 4 14 3 14
-1 -1 -12 -4 -25 -6z"/>
<path d="M2572 2687 c-7 -16 -12 -35 -12 -43 0 -23 -46 -64 -72 -65 l-23 0 23
-11 c45 -22 107 50 100 115 l-4 32 -12 -28z"/>
<path d="M3380 2907 c19 -35 30 -68 30 -93 0 -22 7 -49 15 -60 13 -18 14 -16
15 21 0 22 3 49 6 60 4 15 -7 37 -36 73 -23 29 -46 52 -51 52 -5 0 4 -24 21
-53z"/>
<path d="M3870 2433 c1 -27 39 -93 40 -69 0 26 -22 86 -32 86 -4 0 -8 -8 -8
-17z"/>
<path d="M3840 2426 c0 -11 30 -66 36 -66 2 0 -3 15 -12 33 -19 36 -24 44 -24
33z"/>
<path d="M4106 2370 c-40 -43 -45 -60 -8 -35 25 18 67 75 55 75 -5 0 -26 -18
-47 -40z"/>
<path d="M4155 2200 c3 -5 16 -15 28 -21 22 -12 22 -12 3 10 -19 21 -43 30
-31 11z"/>
<path d="M4096 2187 c3 -10 9 -15 12 -12 3 3 0 11 -7 18 -10 9 -11 8 -5 -6z"/>
<path d="M4119 2168 c-6 -21 -5 -38 1 -38 5 0 8 9 7 20 -1 17 -5 26 -8 18z"/>
<path d="M3764 2118 c3 -18 13 -76 22 -128 21 -128 39 -164 88 -168 33 -3 43
2 80 40 48 48 86 136 85 196 0 44 -9 29 -34 -61 -18 -65 -69 -129 -115 -146
-26 -9 -32 -7 -45 13 -8 12 -24 74 -35 137 -12 63 -23 122 -26 132 -9 30 -25
18 -20 -15z"/>
<path d="M3715 2106 c-7 -16 15 -148 33 -195 5 -14 4 -14 -11 -2 -28 22 -31 5
-6 -28 31 -39 39 -38 38 2 -1 59 -46 244 -54 223z"/>
<path d="M3630 2096 c0 -2 11 -6 25 -8 13 -3 22 -1 19 3 -5 9 -44 13 -44 5z"/>
<path d="M3650 2032 c0 -17 21 -25 31 -13 5 6 6 9 3 6 -4 -3 -13 0 -21 6 -9 8
-13 8 -13 1z"/>
<path d="M3841 1978 c1 -7 5 -24 9 -38 7 -22 8 -21 9 13 1 20 -3 37 -9 37 -5
0 -10 -6 -9 -12z"/>
<path d="M3896 1915 c4 -8 11 -15 16 -15 6 0 5 6 -2 15 -7 8 -14 15 -16 15 -2
0 -1 -7 2 -15z"/>
<path d="M860 2785 c0 -15 35 -20 64 -9 25 10 8 24 -30 24 -24 0 -34 -5 -34
-15z"/>
<path d="M790 2690 c0 -5 5 -10 10 -10 6 0 10 5 10 10 0 6 -4 10 -10 10 -5 0
-10 -4 -10 -10z"/>
<path d="M1510 2434 c-74 -67 -94 -122 -52 -139 88 -35 187 -65 199 -60 18 6
15 36 -12 129 -18 60 -52 106 -80 106 -8 0 -33 -16 -55 -36z m83 -26 c8 -13
23 -47 33 -76 14 -40 15 -55 6 -64 -9 -9 -12 -8 -12 4 0 9 -9 20 -20 23 -11 4
-35 18 -53 33 l-32 26 34 -37 c19 -20 30 -37 24 -37 -22 0 -108 42 -95 47 6 3
10 9 7 13 -7 12 63 90 81 90 7 0 20 -10 27 -22z"/>
<path d="M1686 2442 c-15 -14 -5 -33 13 -27 16 5 21 0 24 -22 3 -18 4 -14 3
11 -1 28 -6 40 -18 42 -9 1 -19 -1 -22 -4z"/>
<path d="M1881 2416 c-10 -11 -9 -14 1 -12 14 2 23 15 15 22 -2 2 -10 -2 -16
-10z"/>
<path d="M1866 2379 c2 -4 -1 -9 -8 -11 -7 -3 -8 -7 -2 -11 5 -3 15 2 21 12 9
14 8 18 -3 18 -7 0 -11 -4 -8 -8z"/>
<path d="M1916 2259 c-44 -21 -84 -43 -88 -47 -17 -17 19 -30 107 -36 73 -6
94 -4 110 8 20 15 20 16 -6 63 -14 26 -30 48 -35 49 -5 1 -45 -15 -88 -37z
m85 -4 c0 -5 -19 -17 -43 -26 -24 -10 -38 -18 -32 -18 6 -1 29 6 49 15 31 13
39 13 46 2 5 -8 1 -15 -12 -20 -20 -8 -154 -9 -146 -2 10 10 123 63 130 61 5
-2 8 -7 8 -12z"/>
<path d="M1414 2266 c-3 -9 -3 -27 0 -40 6 -23 11 -25 108 -32 79 -5 97 -9 78
-16 -14 -5 -33 -7 -42 -4 -10 2 -18 0 -18 -4 0 -4 -27 -11 -61 -15 -33 -4 -57
-11 -52 -15 8 -8 141 3 186 15 19 5 18 4 -3 -8 -14 -8 -57 -17 -96 -21 -85 -7
-134 -23 -134 -42 0 -11 4 -12 19 -4 48 25 87 -2 51 -35 -18 -17 -21 -17 -46
-1 -33 22 -41 14 -20 -19 27 -41 42 -40 99 3 28 22 75 54 104 71 53 33 63 47
60 91 -2 22 -12 28 -82 51 -121 40 -144 43 -151 25z m146 -47 l55 -18 -65 6
c-68 6 -100 17 -100 34 0 11 27 5 110 -22z m-33 -125 c-39 -26 -54 -26 -44 0
3 8 18 16 34 19 15 2 32 5 38 6 5 0 -8 -11 -28 -25z"/>
<path d="M1738 2189 c-19 -11 -24 -44 -8 -54 18 -11 51 15 48 37 -4 26 -17 31
-40 17z"/>
<path d="M1808 2158 c-10 -7 -6 -14 16 -31 16 -12 59 -47 95 -77 36 -30 74
-61 83 -68 15 -12 21 -8 48 35 22 35 30 58 28 83 -3 34 -5 35 -59 46 -81 16
-195 23 -211 12z m170 -32 c35 -8 66 -16 69 -20 8 -7 -16 -63 -33 -77 -14 -11
-20 -7 -133 88 l-26 22 30 0 c17 0 58 -6 93 -13z"/>
<path d="M1600 2089 c-115 -82 -150 -139 -115 -185 14 -18 14 -18 15 9 0 40
21 75 76 127 50 47 49 41 -13 -50 -29 -44 -29 -60 1 -60 25 0 38 12 50 45 6
17 4 17 -18 -4 -36 -34 -32 -19 10 45 40 61 46 65 61 56 7 -5 6 -23 -4 -62
-15 -60 -38 -96 -29 -45 5 29 5 29 -6 -3 -12 -36 -1 -59 25 -49 14 5 47 116
47 160 0 20 -28 59 -41 56 -2 0 -29 -18 -59 -40z"/>
<path d="M1763 2108 c-6 -7 -14 -60 -18 -118 -6 -103 2 -168 21 -161 5 1 8 6
8 10 -1 3 -4 47 -7 96 l-6 90 14 -63 c18 -79 31 -102 56 -102 22 0 69 42 69
62 0 8 5 6 11 -4 15 -27 49 -23 49 5 0 29 -26 70 -86 134 -51 55 -93 74 -111
51z m65 -64 c15 -26 33 -53 41 -61 12 -12 12 -19 -2 -49 -9 -19 -24 -34 -32
-34 -19 0 -44 56 -54 120 -13 84 6 93 47 24z m53 -31 c13 -16 12 -17 -3 -4
-10 7 -18 15 -18 17 0 8 8 3 21 -13z"/>
<path d="M1806 2020 c9 -51 26 -89 31 -69 2 8 -5 35 -17 60 -19 43 -20 43 -14
9z"/>
<path d="M1716 2068 c-2 -13 -13 -72 -25 -133 -12 -60 -21 -113 -21 -117 0
-16 29 -7 34 10 8 28 36 209 36 237 0 31 -18 33 -24 3z"/>
<path d="M1462 1868 c6 -17 86 -78 101 -78 13 0 -83 89 -96 90 -5 0 -7 -6 -5
-12z"/>
<path d="M3150 2468 c-32 -22 -51 -48 -33 -48 14 1 78 58 72 64 -3 4 -21 -4
-39 -16z"/>
<path d="M3190 2434 c0 -8 5 -12 10 -9 6 3 10 10 10 16 0 5 -4 9 -10 9 -5 0
-10 -7 -10 -16z"/>
<path d="M3198 2387 c8 -9 12 -25 10 -36 -2 -11 2 -20 7 -21 6 0 11 10 13 24
2 17 -4 28 -20 37 -21 11 -22 11 -10 -4z"/>
<path d="M3295 2260 c3 -5 10 -10 16 -10 5 0 9 5 9 10 0 6 -7 10 -16 10 -8 0
-12 -4 -9 -10z"/>
<path d="M3362 2221 c2 -7 7 -12 11 -12 12 1 9 15 -3 20 -7 2 -11 -2 -8 -8z"/>
<path d="M3479 1904 c-12 -14 -10 -19 14 -38 l28 -22 -21 -19 c-23 -21 -26
-35 -7 -35 20 0 67 54 67 76 0 24 -29 54 -52 54 -9 0 -22 -7 -29 -16z m51 -24
c0 -5 -7 -7 -15 -4 -8 4 -15 8 -15 10 0 2 7 4 15 4 8 0 15 -4 15 -10z"/>
<path d="M3390 1845 c-24 -28 9 -72 45 -59 21 8 19 37 -3 57 -23 21 -26 21
-42 2z"/>
<path d="M3330 1781 c0 -20 27 -48 37 -37 9 8 -14 56 -27 56 -5 0 -10 -8 -10
-19z"/>
<path d="M3570 1754 c-10 -30 -10 -39 2 -50 34 -34 71 19 44 61 -22 34 -32 31
-46 -11z m27 -16 c-3 -7 -5 -2 -5 12 0 14 2 19 5 13 2 -7 2 -19 0 -25z"/>
<path d="M3391 1724 c-45 -40 -51 -58 -23 -73 15 -8 26 -3 55 27 40 41 44 54
23 71 -12 10 -23 5 -55 -25z"/>
<path d="M3508 1631 c-29 -52 -35 -90 -18 -122 20 -37 70 -10 70 37 0 13 6 24
13 24 19 0 47 33 47 53 0 24 -9 21 -42 -10 l-28 -27 0 47 c0 26 -3 47 -7 47
-5 0 -20 -22 -35 -49z m24 -75 c2 -17 -2 -31 -9 -33 -9 -3 -13 8 -13 38 0 47
16 44 22 -5z"/>
<path d="M3438 1643 c-8 -10 -22 -33 -31 -51 -15 -30 -15 -34 0 -39 25 -10 47
11 55 52 10 45 -2 63 -24 38z"/>
<path d="M3240 1635 c-10 -12 -10 -18 0 -30 11 -13 15 -13 21 -3 11 17 11 48
0 48 -5 0 -14 -7 -21 -15z"/>
<path d="M3294 1595 c-27 -20 -2 -36 39 -24 36 10 41 14 32 28 -9 16 -48 13
-71 -4z"/>
<path d="M3156 1497 c-24 -43 -20 -46 31 -31 72 22 88 59 24 59 -32 0 -41 -4
-55 -28z"/>
<path d="M3330 1516 c-6 -8 -10 -25 -8 -38 2 -18 10 -24 36 -26 39 -4 51 17
32 54 -15 27 -41 31 -60 10z m40 -26 c0 -5 -7 -10 -15 -10 -8 0 -15 5 -15 10
0 6 7 10 15 10 8 0 15 -4 15 -10z"/>
<path d="M3436 1458 c-18 -26 -21 -54 -6 -63 17 -11 40 15 40 46 0 37 -15 45
-34 17z"/>
<path d="M3046 1426 c-9 -14 -16 -30 -16 -36 0 -15 43 -12 66 4 15 12 17 18 8
33 -17 27 -39 27 -58 -1z"/>
<path d="M3170 1425 c-7 -8 -10 -18 -7 -21 11 -11 59 6 54 19 -6 18 -32 20
-47 2z"/>
<path d="M3510 1400 c-13 -8 -13 -10 2 -10 9 0 20 5 23 10 8 13 -5 13 -25 0z"/>
<path d="M3300 1387 c0 -22 36 -49 62 -45 17 2 23 9 23 28 0 22 -5 25 -42 28
-32 2 -43 -1 -43 -11z"/>
<path d="M3145 1345 c-30 -13 -30 -13 -4 -14 14 -1 34 6 45 14 25 19 1 19 -41
0z"/>
<path d="M3525 1350 c4 -6 11 -8 16 -5 14 9 11 15 -7 15 -8 0 -12 -5 -9 -10z"/>
<path d="M2713 2348 c-24 -5 -43 -13 -43 -18 0 -5 14 -6 33 -3 44 10 168 10
191 0 18 -7 18 -9 -10 -26 -16 -10 -43 -34 -61 -54 -30 -35 -36 -37 -90 -37
-74 0 -136 -30 -170 -81 -23 -35 -25 -46 -20 -104 6 -66 20 -105 37 -105 13 0
13 47 1 55 -6 3 -13 25 -16 49 -21 138 129 203 307 131 156 -62 230 -183 178
-290 -33 -68 -79 -98 -155 -103 -52 -3 -73 0 -117 20 -69 32 -124 80 -140 124
-6 19 -16 34 -20 34 -4 0 -8 15 -8 32 0 32 1 31 41 -30 60 -92 131 -140 224
-149 33 -4 55 -1 59 6 5 7 -4 11 -27 11 -88 0 -182 61 -244 157 -48 76 -89 67
-62 -14 9 -27 9 -38 0 -41 -16 -5 -14 -44 2 -40 8 2 26 -12 41 -30 67 -78 217
-130 301 -102 73 24 145 112 145 178 0 49 -28 125 -60 164 -28 34 -155 108
-186 108 -26 0 -25 22 2 52 130 138 364 14 364 -191 0 -56 -25 -100 -74 -130
-20 -13 -36 -29 -36 -37 0 -20 17 -17 24 4 4 9 21 24 38 32 53 25 73 62 72
133 -2 147 -103 261 -243 274 -31 3 -75 11 -99 19 -48 16 -116 17 -179 2z"/>
<path d="M2648 2253 c-47 -26 -69 -53 -43 -53 7 0 17 5 20 11 4 5 28 23 53 39
58 37 34 39 -30 3z"/>
<path d="M2945 2230 c-15 -7 -9 -9 25 -9 28 -1 61 -10 88 -26 50 -29 52 -11 2
23 -34 22 -79 27 -115 12z"/>
<path d="M2683 2163 c-20 -8 -15 -23 7 -23 11 0 20 7 20 15 0 15 -6 17 -27 8z"/>
<path d="M3246 2135 c4 -8 10 -15 15 -15 5 0 9 7 9 15 0 8 -7 15 -15 15 -9 0
-12 -6 -9 -15z"/>
<path d="M2750 2112 c0 -4 20 -25 45 -45 52 -44 59 -34 14 18 -28 32 -59 46
-59 27z"/>
<path d="M2915 2080 c10 -11 28 -20 39 -20 20 1 20 1 -3 20 -13 11 -30 20 -39
20 -13 0 -12 -3 3 -20z"/>
<path d="M2850 2063 c0 -14 15 -30 37 -42 51 -26 59 -3 9 28 -36 22 -46 25
-46 14z"/>
<path d="M2880 1994 c0 -11 7 -29 15 -40 14 -19 14 -19 15 2 0 11 -7 29 -15
40 -14 19 -14 19 -15 -2z"/>
<path d="M2932 1968 c8 -22 36 -34 50 -20 10 10 10 15 -2 22 -21 14 -52 12
-48 -2z"/>
<path d="M3100 1961 c0 -25 6 -27 13 -6 4 8 2 17 -3 20 -6 4 -10 -3 -10 -14z"/>
<path d="M2466 1948 c-32 -46 -11 -53 22 -8 17 23 19 30 8 30 -8 0 -22 -10
-30 -22z"/>
<path d="M2740 1922 c0 -20 30 -52 67 -71 47 -24 60 -6 14 21 -17 9 -31 26
-33 40 -4 30 -48 40 -48 10z"/>
<path d="M3027 1906 c-4 -9 -18 -16 -32 -16 -15 0 -24 -4 -20 -10 9 -15 62
-12 68 3 3 8 2 19 -3 26 -5 10 -9 9 -13 -3z"/>
<path d="M2430 1866 c0 -9 5 -16 10 -16 6 0 10 4 10 9 0 6 -4 13 -10 16 -5 3
-10 -1 -10 -9z"/>
<path d="M3136 1819 c3 -37 3 -81 -1 -99 -12 -54 -93 -88 -147 -59 -27 14 -38
1 -14 -17 11 -8 41 -14 67 -14 85 0 126 56 116 159 -3 33 -10 67 -16 78 -9 14
-10 3 -5 -48z"/>
<path d="M2480 1774 c0 -17 22 -14 28 4 2 7 -3 12 -12 12 -9 0 -16 -7 -16 -16z"/>
<path d="M2535 1780 c-11 -17 5 -32 21 -19 7 6 11 15 8 20 -7 12 -21 11 -29
-1z"/>
<path d="M2655 1770 c3 -5 8 -10 11 -10 2 0 4 5 4 10 0 6 -5 10 -11 10 -5 0
-7 -4 -4 -10z"/>
<path d="M2442 1754 c1 -9 9 -19 16 -22 9 -3 13 2 10 14 -1 9 -9 19 -16 22 -9
3 -13 -2 -10 -14z"/>
<path d="M2732 1733 c4 -22 52 -49 101 -58 30 -6 37 -4 37 9 0 9 -14 19 -38
25 -21 6 -46 17 -57 25 -27 20 -47 20 -43 -1z"/>
<path d="M2492 1703 c3 -39 20 -49 27 -16 2 10 8 21 13 24 16 10 0 29 -23 29
-17 0 -20 -6 -17 -37z"/>
<path d="M2452 1676 c1 -10 8 -17 13 -17 15 1 12 24 -3 29 -9 3 -13 -2 -10
-12z"/>
<path d="M2590 1672 c0 -14 35 -42 53 -42 30 0 27 18 -4 34 -36 18 -49 20 -49
8z"/>
<path d="M2811 1626 c-12 -14 -5 -26 16 -26 15 0 18 26 4 34 -5 3 -14 0 -20
-8z"/>
<path d="M2964 1596 c-8 -22 3 -33 18 -18 9 9 9 15 0 24 -9 9 -13 7 -18 -6z"/>
<path d="M2495 1590 c4 -6 11 -8 16 -5 14 9 11 15 -7 15 -8 0 -12 -5 -9 -10z"/>
<path d="M2592 1588 c7 -21 36 -34 49 -21 6 6 8 16 5 22 -10 15 -59 14 -54 -1z"/>
<path d="M2710 1578 c0 -39 45 -49 81 -18 l24 20 -38 -6 c-24 -4 -43 -2 -52 6
-12 10 -15 10 -15 -2z"/>
<path d="M3025 1519 c-11 -17 1 -21 15 -4 8 9 8 15 2 15 -6 0 -14 -5 -17 -11z"/>
<path d="M2867 1493 c-4 -3 -7 -12 -7 -20 0 -17 26 -17 33 1 8 21 -11 35 -26
19z"/>
<path d="M2171 1868 c1 -39 36 -170 41 -157 3 9 0 43 -6 76 l-13 61 38 -41
c22 -22 42 -37 46 -34 7 8 -38 59 -79 89 -20 13 -28 15 -27 6z"/>
<path d="M2154 1787 c2 -38 9 -74 16 -80 9 -9 10 2 4 48 -10 91 -25 113 -20
32z"/>
<path d="M2120 1793 c0 -10 -3 -43 -6 -73 -7 -74 11 -44 21 33 4 38 3 57 -4
57 -6 0 -11 -8 -11 -17z"/>
<path d="M1365 1720 c-19 -21 -14 -50 9 -50 17 0 21 5 30 43 8 33 -12 37 -39
7z"/>
<path d="M1470 1631 c0 -11 5 -23 10 -26 6 -4 10 5 10 19 0 14 -4 26 -10 26
-5 0 -10 -9 -10 -19z"/>
<path d="M1340 1591 c0 -10 7 -24 15 -31 12 -10 16 -9 21 4 3 9 4 23 0 31 -8
21 -36 19 -36 -4z"/>
<path d="M1442 1559 c2 -7 10 -15 17 -17 8 -3 12 1 9 9 -2 7 -10 15 -17 17 -8
3 -12 -1 -9 -9z"/>
<path d="M1411 1451 c20 -42 75 -94 93 -88 20 7 11 31 -14 37 -14 3 -37 24
-53 48 -36 53 -51 55 -26 3z"/>
<path d="M1552 1266 c0 -20 4 -36 9 -36 5 0 9 7 9 16 0 11 5 14 16 10 22 -8
13 14 -13 31 -20 13 -21 12 -21 -21z"/>
<path d="M2037 1243 c-9 -9 -9 -33 1 -33 4 0 13 9 20 20 10 16 10 20 -1 20 -8
0 -17 -3 -20 -7z"/>
<path d="M1596 1224 c-7 -18 0 -34 15 -34 12 0 12 37 0 44 -5 3 -12 -1 -15
-10z"/>
<path d="M1925 1231 c-6 -11 9 -23 19 -14 9 9 7 23 -3 23 -6 0 -12 -4 -16 -9z"/>
<path d="M1857 1188 c7 -8 41 -20 76 -27 35 -7 81 -23 103 -36 21 -13 57 -34
79 -46 l40 -22 -19 22 c-38 42 -108 80 -179 96 -40 9 -81 19 -92 22 -16 5 -18
3 -8 -9z"/>
<path d="M1706 1162 c-3 -6 -1 -14 5 -17 15 -10 25 3 12 16 -7 7 -13 7 -17 1z"/>
<path d="M1825 1161 c-6 -11 20 -33 28 -24 4 3 7 10 7 14 0 11 -29 19 -35 10z"/>
<path d="M1750 1130 c0 -5 7 -10 15 -10 8 0 15 5 15 10 0 6 -7 10 -15 10 -8 0
-15 -4 -15 -10z"/>
<path d="M1930 1075 c0 -9 5 -15 11 -13 6 2 11 8 11 13 0 5 -5 11 -11 13 -6 2
-11 -4 -11 -13z"/>
<path d="M2200 1074 c0 -17 22 -14 28 4 2 7 -3 12 -12 12 -9 0 -16 -7 -16 -16z"/>
<path d="M2010 1070 c0 -5 5 -10 10 -10 6 0 10 5 10 10 0 6 -4 10 -10 10 -5 0
-10 -4 -10 -10z"/>
<path d="M1874 1059 c-8 -14 14 -29 33 -22 10 4 11 9 2 19 -14 17 -25 18 -35
3z"/>
<path d="M2040 1030 c0 -5 7 -10 15 -10 8 0 15 5 15 10 0 6 -7 10 -15 10 -8 0
-15 -4 -15 -10z"/>
<path d="M2112 1028 c7 -20 48 -23 48 -4 0 11 -9 16 -26 16 -16 0 -24 -5 -22
-12z"/>
<path d="M2237 1019 c-17 -10 -23 -29 -9 -29 5 0 16 6 27 13 22 17 7 29 -18
16z"/>
<path d="M3820 1694 c0 -9 7 -14 17 -12 25 5 28 28 4 28 -12 0 -21 -6 -21 -16z"/>
<path d="M3920 1690 c0 -5 4 -10 9 -10 6 0 13 5 16 10 3 6 -1 10 -9 10 -9 0
-16 -4 -16 -10z"/>
<path d="M1607 1608 c-28 -15 -20 -98 9 -98 21 0 47 47 40 74 -7 28 -26 38
-49 24z m20 -50 c-3 -7 -5 -2 -5 12 0 14 2 19 5 13 2 -7 2 -19 0 -25z"/>
<path d="M1920 1561 c0 -6 0 -14 1 -18 0 -5 -9 -10 -21 -13 -39 -9 -26 -25 23
-28 51 -3 70 15 50 47 -12 18 -53 28 -53 12z"/>
<path d="M1685 1501 c-8 -26 3 -63 18 -58 21 7 33 36 21 54 -16 25 -31 27 -39
4z"/>
<path d="M2096 1474 c-16 -9 -56 -19 -89 -22 -50 -4 -62 -2 -73 12 -15 21 -34
13 -34 -13 0 -36 21 -40 105 -22 83 18 125 35 125 51 0 12 1 12 -34 -6z"/>
<path d="M1796 1448 c-14 -20 -19 -21 -36 -10 -17 11 -20 10 -20 -8 0 -41 80
-37 88 5 6 30 -14 39 -32 13z"/>
<path d="M1620 1400 c0 -30 36 -83 70 -103 39 -23 91 -29 125 -13 l30 14 -48
1 c-63 1 -98 21 -142 77 -30 40 -35 44 -35 24z"/>
<path d="M2010 1380 c-11 -7 -5 -10 23 -10 20 0 37 5 37 10 0 13 -40 13 -60 0z"/>
<path d="M2336 1581 c-3 -5 1 -11 9 -15 15 -6 29 7 18 18 -9 9 -21 8 -27 -3z"/>
<path d="M2356 1531 c-4 -7 -5 -15 -2 -18 9 -9 19 4 14 18 -4 11 -6 11 -12 0z"/>
<path d="M2367 1483 c-4 -6 0 -24 8 -39 8 -16 15 -38 15 -49 0 -37 28 -65 65
-65 19 0 37 5 41 11 4 8 -1 9 -15 4 -29 -9 -71 19 -71 48 -1 32 -35 104 -43
90z"/>
<path d="M3682 1448 c2 -13 11 -24 21 -26 22 -4 35 27 16 39 -25 16 -41 10
-37 -13z"/>
<path d="M2350 1420 c0 -5 5 -10 11 -10 5 0 7 5 4 10 -3 6 -8 10 -11 10 -2 0
-4 -4 -4 -10z"/>
<path d="M3950 1390 c0 -5 5 -10 10 -10 6 0 10 5 10 10 0 6 -4 10 -10 10 -5 0
-10 -4 -10 -10z"/>
<path d="M3655 1341 c-6 -11 9 -23 19 -14 9 9 7 23 -3 23 -6 0 -12 -4 -16 -9z"/>
<path d="M2502 1268 c-18 -18 -14 -63 6 -81 20 -19 62 -23 62 -7 0 6 -8 10
-19 10 -43 0 -55 62 -14 68 18 3 30 -8 57 -50 31 -50 107 -128 123 -128 4 0
-11 19 -34 43 -22 23 -48 57 -58 76 -34 67 -92 100 -123 69z"/>
<path d="M3192 1178 c6 -18 28 -21 28 -4 0 9 -7 16 -16 16 -9 0 -14 -5 -12
-12z"/>
<path d="M3655 1171 c-9 -16 12 -22 39 -11 14 5 26 12 26 15 0 9 -59 5 -65 -4z"/>
<path d="M3310 1150 c0 -5 5 -10 10 -10 6 0 10 5 10 10 0 6 -4 10 -10 10 -5 0
-10 -4 -10 -10z"/>
<path d="M3267 1124 c-4 -4 5 -13 19 -21 33 -16 34 -16 34 3 0 10 -6 14 -14
11 -7 -3 -18 -1 -23 4 -5 5 -12 6 -16 3z"/>
<path d="M3067 1054 c-51 -46 -50 -56 2 -27 28 17 60 58 50 67 -2 2 -26 -16
-52 -40z"/>
<path d="M3252 1088 c5 -15 28 -18 29 -3 0 6 -7 12 -17 13 -10 3 -15 -1 -12
-10z"/>
<path d="M2540 1077 c0 -19 16 -31 24 -18 3 5 -1 14 -9 21 -12 10 -15 10 -15
-3z"/>
<path d="M2660 1080 c11 -7 11 -10 2 -10 -7 0 -10 -4 -7 -10 10 -17 25 -11 25
10 0 12 -7 20 -17 20 -15 0 -16 -2 -3 -10z"/>
<path d="M2600 1022 c0 -5 7 -13 16 -16 10 -4 14 -1 12 6 -5 15 -28 23 -28 10z"/>
<path d="M2640 1000 c0 -12 58 -42 72 -38 7 3 -4 14 -24 26 -39 24 -48 27 -48
12z"/>
<path d="M3116 983 c10 -44 26 -54 22 -14 -2 19 -9 36 -16 39 -9 3 -11 -4 -6
-25z"/>
<path d="M2800 975 c0 -8 7 -15 15 -15 8 0 15 4 15 9 0 5 -7 11 -15 15 -9 3
-15 0 -15 -9z"/>
<path d="M2900 956 c0 -9 7 -16 16 -16 17 0 14 22 -4 28 -7 2 -12 -3 -12 -12z"/>
<path d="M3290 960 c-8 -5 -12 -12 -9 -15 8 -8 39 5 39 16 0 11 -11 11 -30 -1z"/>
<path d="M2746 945 c4 -9 11 -14 16 -13 15 5 11 23 -6 26 -11 2 -14 -2 -10
-13z"/>
<path d="M3024 945 c-9 -21 5 -67 17 -60 5 4 7 16 4 27 -5 14 -1 21 14 25 29
7 26 23 -4 23 -14 0 -28 -7 -31 -15z"/>
<path d="M3205 930 c3 -5 11 -10 16 -10 6 0 7 5 4 10 -3 6 -11 10 -16 10 -6 0
-7 -4 -4 -10z"/>
<path d="M2875 910 c-3 -5 1 -10 10 -10 9 0 13 5 10 10 -3 6 -8 10 -10 10 -2
0 -7 -4 -10 -10z"/>
<path d="M2740 1340 c0 -5 12 -10 28 -10 32 0 64 -19 45 -27 -15 -6 -17 -29
-3 -38 16 -10 50 14 50 35 0 10 -10 26 -22 34 -25 18 -98 22 -98 6z"/>
<path d="M2893 1222 c11 -10 20 -11 32 -4 15 8 13 10 -14 14 -28 4 -30 3 -18
-10z"/>
<path d="M2851 1214 c0 -11 3 -14 6 -6 3 7 2 16 -1 19 -3 4 -6 -2 -5 -13z"/>
<path d="M2857 1176 c-9 -23 30 -51 74 -51 28 0 45 7 61 24 l23 23 -31 -15
c-35 -18 -69 -13 -100 15 -18 16 -22 17 -27 4z"/>
<path d="M2300 890 c0 -5 5 -10 10 -10 6 0 10 5 10 10 0 6 -4 10 -10 10 -5 0
-10 -4 -10 -10z"/>
<path d="M2517 791 c6 -23 -16 -39 -28 -20 -10 17 -23 5 -16 -16 4 -8 18 -15
31 -15 19 0 27 7 32 24 6 26 -1 46 -16 46 -4 0 -6 -8 -3 -19z"/>
<path d="M4771 3214 c0 -11 3 -14 6 -6 3 7 2 16 -1 19 -3 4 -6 -2 -5 -13z"/>
<path d="M508 2605 c-11 -103 -10 -296 3 -357 18 -89 76 -264 85 -255 2 1 -4
25 -12 52 -41 134 -57 242 -63 435 -5 164 -7 184 -13 125z"/>
<path d="M594 2355 c8 -83 25 -153 39 -162 6 -4 8 3 4 18 -3 13 -13 65 -22
114 -10 50 -19 92 -22 95 -3 3 -2 -26 1 -65z"/>
<path d="M306 2260 c7 -75 44 -229 68 -280 20 -43 19 -34 -24 160 -38 172 -53
212 -44 120z"/>
<path d="M664 2153 c20 -212 144 -514 302 -734 77 -108 218 -256 319 -334 269
-210 712 -447 828 -444 18 0 25 3 17 6 -8 3 -23 15 -32 27 -14 17 -21 19 -36
10 -24 -15 -72 1 -230 77 -577 276 -953 720 -1128 1333 -18 65 -37 122 -40
125 -4 3 -4 -26 0 -66z"/>
<path d="M606 1843 c18 -73 90 -225 135 -282 27 -34 23 -19 -9 36 -31 54 -112
234 -112 251 0 6 -5 14 -10 17 -7 4 -8 -3 -4 -22z"/>
<path d="M4606 1273 c-8 -16 -44 -71 -81 -123 -37 -52 -58 -87 -47 -76 38 34
163 226 148 226 -3 0 -12 -12 -20 -27z"/>
<path d="M4377 913 c-110 -132 -227 -225 -457 -361 -368 -218 -619 -317 -943
-373 -167 -29 -187 -41 -57 -33 261 14 565 113 848 275 320 183 496 326 651
527 54 70 27 47 -42 -35z"/>
<path d="M3135 414 c-55 -12 -156 -30 -225 -40 -113 -15 -186 -33 -138 -34 82
-1 434 65 476 90 26 14 2 11 -113 -16z"/>
</g>
</svg>