<?xml version="1.0" encoding="UTF-8" standalone="no"?>
<!-- Created with Inkscape (http://www.inkscape.org/) -->

<svg
   width="200mm"
   height="200mm"
   viewBox="0 0 199.99999 200"
   version="1.1"
   id="svg5"
   xml:space="preserve"
   inkscape:version="1.2.1 (9c6d41e410, 2022-07-14)"
   sodipodi:docname="Sebastian_Icon.svg"
   xmlns:inkscape="http://www.inkscape.org/namespaces/inkscape"
   xmlns:sodipodi="http://sodipodi.sourceforge.net/DTD/sodipodi-0.dtd"
   xmlns="http://www.w3.org/2000/svg"
   xmlns:svg="http://www.w3.org/2000/svg"><sodipodi:namedview
     id="namedview7"
     pagecolor="#ffffff"
     bordercolor="#000000"
     borderopacity="0.25"
     inkscape:showpageshadow="2"
     inkscape:pageopacity="0.0"
     inkscape:pagecheckerboard="0"
     inkscape:deskcolor="#d1d1d1"
     inkscape:document-units="mm"
     showgrid="false"
     inkscape:zoom="0.71624579"
     inkscape:cx="222.68892"
     inkscape:cy="534.03455"
     inkscape:window-width="1920"
     inkscape:window-height="991"
     inkscape:window-x="-9"
     inkscape:window-y="-9"
     inkscape:window-maximized="1"
     inkscape:current-layer="layer1" /><defs
     id="defs2" /><g
     inkscape:label="Layer 1"
     inkscape:groupmode="layer"
     id="layer1"><g
       id="g2808"
       transform="matrix(1.6471022,0,0,1.6471022,-87.999638,-184.48825)"><circle
         style="opacity:1;fill:#fbbf24;fill-opacity:1;stroke-width:2.42851;stop-color:#000000"
         id="path2466"
         cx="114.13963"
         cy="172.72046"
         r="60.712688" /><text
         xml:space="preserve"
         style="font-style:normal;font-variant:normal;font-weight:normal;font-stretch:normal;font-size:106.75px;line-height:normal;font-family:Impact;-inkscape-font-specification:Impact;text-align:center;text-decoration-color:#000000;text-anchor:middle;opacity:1;fill:#000000;stroke-width:75.6493;stop-color:#000000"
         x="114.11357"
         y="214.91487"
         id="text236"><tspan
           sodipodi:role="line"
           id="tspan234"
           style="font-style:normal;font-variant:normal;font-weight:normal;font-stretch:normal;font-family:Impact;-inkscape-font-specification:Impact;fill:#000000;stroke-width:75.6493"
           x="114.11357"
           y="214.91487">S</tspan></text><g
         id="g2790"
         transform="translate(0.22994098,-1.0295782)"><path
           style="fill:#ffffff;stroke-width:3.40563"
           d="m 158.58329,148.20779 c -2.5079,0 -6.68934,2.23035 -8.36117,5.574 -1.39324,2.50792 -1.85573,8.11052 -1.85573,11.45417 v 8.51408 c 0,2.78649 3.71522,3.40564 5.10846,3.40564 l -1.70282,18.73097 c -0.30821,3.39167 3.40563,3.40564 3.40563,3.40564 0,0 3.40563,0 3.40563,-3.40564 z"
           id="path2786" /><path
           style="fill:#ffffff;stroke-width:3.40563"
           d="m 68.964562,148.20779 -3.405633,18.73099 c -0.498584,2.74153 6.067134,4.02205 5.959857,6.81126 l -0.851407,22.13662 c -0.130776,3.40325 3.405633,3.40563 3.405633,3.40563 0,0 3.536408,-0.003 3.405633,-3.40563 l -0.851409,-22.13662 c -0.106938,-2.78444 5.90332,-4.02137 5.959858,-6.81126 L 79.18146,148.20779 h -1.702815 l 0.851408,13.62253 -2.554226,1.70282 -0.851409,-15.32535 h -1.702814 l -0.851409,15.32535 -2.554225,-1.70282 0.851409,-13.62253 z"
           id="path11774" /></g></g></g></svg>
