<?xml version="1.0" standalone="no"?>
<!DOCTYPE svg PUBLIC "-//W3C//DTD SVG 20010904//EN"
 "http://www.w3.org/TR/2001/REC-SVG-20010904/DTD/svg10.dtd">
<svg version="1.0" xmlns="http://www.w3.org/2000/svg"
 width="512.000000pt" height="512.000000pt" viewBox="0 0 512.000000 512.000000"
 preserveAspectRatio="xMidYMid meet">
<metadata>
Created by potrace 1.16, written by Peter Selinger 2001-2019
</metadata>
<g transform="translate(0.000000,512.000000) scale(0.100000,-0.100000)"
fill="#000000" stroke="none">
<path d="M2225 4570 c-136 -13 -189 -20 -202 -28 -29 -18 -160 -596 -208 -920
-70 -473 -14 -817 176 -1073 75 -102 242 -255 358 -329 56 -36 123 -78 149
-95 53 -34 81 -81 109 -185 16 -58 18 -114 18 -505 0 -494 -8 -574 -66 -689
l-30 -59 28 -23 28 -22 -45 -12 c-25 -6 -67 -18 -95 -27 -81 -26 -81 -26 -60
-8 19 17 19 17 -10 11 -79 -17 -235 -70 -223 -77 24 -12 204 -39 264 -39 36 1
67 6 78 15 11 8 29 16 40 17 12 1 -8 4 -44 8 l-65 7 72 1 c77 2 97 12 58 30
-24 11 -34 32 -15 32 5 0 26 11 46 25 27 18 49 25 83 24 25 -1 37 -3 26 -6
-11 -2 -30 -6 -42 -9 -15 -3 -23 -12 -24 -27 -1 -17 -2 -18 -6 -4 -5 18 -35
21 -33 3 1 -5 -4 -12 -10 -16 -24 -15 61 -32 136 -28 52 2 79 8 91 20 16 16
16 19 -2 38 -28 31 -2 24 29 -9 l27 -28 -41 -17 c-27 -11 -71 -16 -135 -16
-62 0 -95 -4 -95 -11 0 -8 60 -9 203 -5 111 3 185 2 164 -3 -45 -10 -48 -12
-37 -31 16 -26 260 12 260 41 0 7 -76 38 -130 53 -19 6 -21 5 -10 -3 26 -19
-2 -12 -123 29 -94 31 -137 40 -212 44 -59 3 -93 1 -90 -5 4 -5 0 -9 -8 -9
-25 0 -28 14 -5 27 23 13 23 13 -4 7 -15 -3 -35 -1 -45 6 -16 10 -15 11 9 7
24 -4 29 0 38 29 13 38 17 40 44 19 11 -8 38 -15 60 -16 l41 0 -40 -13 c-89
-28 -86 -35 17 -36 53 0 109 5 124 10 23 9 31 7 58 -17 17 -16 13 -8 -10 17
-99 107 -105 144 -111 690 -4 389 -3 456 12 535 9 50 17 98 18 108 1 9 5 17 9
17 4 0 8 9 8 20 0 11 5 20 11 20 5 0 7 5 4 10 -3 6 1 13 9 16 39 15 5 19 -141
16 -87 -2 -168 0 -181 5 -14 5 50 8 164 8 l187 -1 108 80 c215 161 314 257
413 398 86 124 129 256 148 456 22 242 -36 644 -168 1162 -48 189 -64 242 -64
216 0 -4 11 -52 25 -107 14 -54 23 -111 20 -127 -4 -22 -4 -24 4 -7 5 11 10
17 10 12 1 -4 14 -67 30 -140 36 -162 73 -374 101 -569 34 -247 24 -519 -24
-632 l-16 -38 -377 2 c-724 4 -985 1 -981 -12 7 -20 56 -27 249 -37 l184 -10
-212 5 -212 4 23 -68 c13 -37 36 -92 51 -122 l27 -55 -24 23 c-28 26 -85 137
-95 183 -7 37 -8 37 -108 48 l-80 8 87 2 c76 1 87 3 81 17 -5 15 -19 16 -104
10 l-98 -7 -25 78 c-39 125 -49 226 -43 422 9 287 92 756 198 1114 l20 67 122
2 122 2 -100 5 c-215 12 -9 38 370 47 260 6 611 -7 670 -25 25 -8 16 -10 -50
-12 -65 -2 -70 -3 -25 -6 30 -1 74 -5 97 -8 40 -6 41 -7 53 -58 6 -29 18 -72
25 -97 8 -25 19 -65 25 -89 6 -23 13 -41 16 -38 3 2 -9 59 -26 125 -31 124
-36 152 -19 117 6 -15 7 -11 3 15 -9 51 -20 67 -51 75 -42 10 -934 15 -1038 5z
m1072 -62 c-3 -8 -6 -5 -6 6 -1 11 2 17 5 13 3 -3 4 -12 1 -19z m-22 -1687
c55 -5 27 -8 -135 -14 -265 -9 -695 -9 -796 1 l-79 7 80 6 c111 8 844 8 930 0z
m161 -38 c-4 -5 -11 -8 -14 -7 -4 0 -28 -34 -54 -77 -54 -87 -174 -205 -261
-258 -132 -79 -315 -116 -493 -100 -140 12 -140 12 -153 76 -23 117 -10 174
68 286 56 81 33 76 357 80 159 1 349 3 423 5 74 1 131 -1 127 -5z m-1406 -110
c62 -110 205 -234 325 -283 67 -27 67 -35 2 -15 -154 46 -331 205 -357 319 -4
20 -7 36 -5 36 2 0 17 -26 35 -57z m800 -388 c17 -11 -151 -23 -232 -16 -51 4
-63 16 -25 24 39 9 241 2 257 -8z m-30 -76 c-66 -11 -182 -11 -175 1 4 6 51 9
113 9 87 -1 99 -3 62 -10z m-62 -126 c-21 -2 -55 -2 -75 0 -21 2 -4 4 37 4 41
0 58 -2 38 -4z m-91 -105 c-3 -7 -5 -2 -5 12 0 14 2 19 5 13 2 -7 2 -19 0 -25z
m85 -426 c-1 -251 1 -495 6 -542 5 -54 7 51 5 290 -2 206 0 436 4 510 6 96 8
-20 9 -405 0 -297 -1 -527 -4 -510 l-4 30 -13 -33 c-9 -21 -21 -32 -35 -32
-20 0 -20 3 -20 468 0 258 -3 510 -6 560 l-7 91 34 15 c19 8 34 15 34 15 0 1
-1 -205 -3 -457z m25 411 c-3 -10 -5 -4 -5 12 0 17 2 24 5 18 2 -7 2 -21 0
-30z m-100 -95 c-2 -18 -4 -4 -4 32 0 36 2 50 4 33 2 -18 2 -48 0 -65z m10
-860 c-2 -29 -3 -8 -3 47 0 55 1 79 3 53 2 -26 2 -71 0 -100z m48 -178 c-3 -5
-12 -10 -18 -10 -7 0 -6 4 3 10 19 12 23 12 15 0z m28 -67 c-13 -2 -33 -2 -45
0 -13 2 -3 4 22 4 25 0 35 -2 23 -4z m37 -122 c0 -4 -11 -6 -25 -3 -14 2 -25
6 -25 8 0 2 11 4 25 4 14 0 25 -4 25 -9z m7 -53 c-3 -8 -6 -5 -6 6 -1 11 2 17
5 13 3 -3 4 -12 1 -19z"/>
<path d="M2502 4513 c92 -2 245 -2 340 0 95 1 20 3 -167 3 -187 0 -265 -2
-173 -3z"/>
<path d="M2018 570 c-13 -8 -15 -17 -8 -39 6 -22 5 -31 -6 -35 -37 -14 5 -40
81 -50 121 -17 452 -38 600 -39 261 0 612 27 681 54 l29 11 -22 18 c-20 15
-21 20 -8 30 8 7 15 18 15 26 0 14 -31 34 -52 33 -7 0 -3 -4 10 -10 32 -13 20
-26 -41 -44 -107 -31 -264 -46 -528 -52 -328 -7 -569 11 -703 54 l-50 16 23
18 c24 20 9 26 -21 9z m320 -107 c-10 -2 -26 -2 -35 0 -10 3 -2 5 17 5 19 0
27 -2 18 -5z m780 0 c-16 -2 -40 -2 -55 0 -16 2 -3 4 27 4 30 0 43 -2 28 -4z
m-510 -10 c-42 -2 -114 -2 -160 0 -46 1 -11 3 77 3 88 0 125 -2 83 -3z m335 0
c-29 -2 -77 -2 -105 0 -29 2 -6 3 52 3 58 0 81 -1 53 -3z"/>
<path d="M2665 500 c-3 -5 5 -12 18 -15 36 -9 100 -2 105 13 5 15 -113 17
-123 2z"/>
</g>
</svg>