<?xml version="1.0" encoding="UTF-8" standalone="no"?>
<!-- Created with Inkscape (http://www.inkscape.org/) -->

<svg
   width="30mm"
   height="30mm"
   viewBox="0 0 30 30"
   version="1.1"
   id="svg185"
   xml:space="preserve"
   inkscape:version="1.2.1 (9c6d41e410, 2022-07-14)"
   sodipodi:docname="Allergies.svg"
   xmlns:inkscape="http://www.inkscape.org/namespaces/inkscape"
   xmlns:sodipodi="http://sodipodi.sourceforge.net/DTD/sodipodi-0.dtd"
   xmlns="http://www.w3.org/2000/svg"
   xmlns:svg="http://www.w3.org/2000/svg"><sodipodi:namedview
     id="namedview187"
     pagecolor="#ffffff"
     bordercolor="#000000"
     borderopacity="0.25"
     inkscape:showpageshadow="2"
     inkscape:pageopacity="0.0"
     inkscape:pagecheckerboard="0"
     inkscape:deskcolor="#d1d1d1"
     inkscape:document-units="mm"
     showgrid="false"
     inkscape:zoom="1.0129245"
     inkscape:cx="-1052.3983"
     inkscape:cy="7.4043031"
     inkscape:window-width="1920"
     inkscape:window-height="991"
     inkscape:window-x="-9"
     inkscape:window-y="-9"
     inkscape:window-maximized="1"
     inkscape:current-layer="layer1" /><defs
     id="defs182" /><g
     inkscape:label="Layer 1"
     inkscape:groupmode="layer"
     id="layer1"
     transform="translate(226.64325,24.907787)"><g
       id="g4638"
       transform="translate(-264.86426,-95.340686)"
       style="fill:#333333"><path
         style="fill:#333333;stroke-width:0.256089"
         d="m -57.909806,177.43412 c -0.02515,-1.0298 0.04406,-1.21642 0.451114,-1.21642 0.264452,0 0.633555,0.18403 0.820229,0.40896 0.308188,0.37134 0.356528,0.36545 0.525535,-0.064 0.133961,-0.34042 0.190074,-0.22177 0.200206,0.42332 0.011,0.70034 -0.04532,0.81233 -0.257586,0.51218 -0.204438,-0.28907 -0.303806,-0.30492 -0.401553,-0.064 -0.07144,0.17606 -0.342316,0.32011 -0.601948,0.32011 -0.259633,0 -0.524762,0.20167 -0.589175,0.44816 -0.06441,0.24648 -0.130484,-0.0992 -0.146822,-0.76827 z m 0.994649,-0.44816 c 0,-0.28169 -0.108439,-0.51217 -0.240976,-0.51217 -0.343761,0 -0.585987,0.46611 -0.399247,0.76826 0.267644,0.43306 0.640223,0.28403 0.640223,-0.25609 z m 72.491174,0.44816 c -0.01565,-1.05787 0.04981,-1.21642 0.502214,-1.21642 0.28612,0 0.592559,0.18852 0.680979,0.41894 0.178862,0.4661 -0.192062,1.2163 -0.560272,1.13316 -0.130234,-0.0294 -0.319619,0.15673 -0.420856,0.41364 -0.116728,0.29621 -0.190651,0.0221 -0.202065,-0.74932 z m 0.957604,-0.38413 c -0.103954,-0.5398 -0.558448,-0.50576 -0.674269,0.0505 -0.04831,0.23201 0.09286,0.39766 0.338887,0.39766 0.263762,0 0.389366,-0.16784 0.335382,-0.44815 z m -40.407559,0.58312 c -0.4883,-0.58837 -0.211417,-1.28737 0.509942,-1.28737 0.459416,0 0.658868,0.15562 0.716276,0.55887 0.104635,0.73499 -0.78312,1.2624 -1.226218,0.7285 z m 0.851985,-0.5109 c 0.180604,-0.47065 -0.299545,-0.79687 -0.652858,-0.44355 -0.273352,0.27335 -0.07674,0.81948 0.295022,0.81948 0.117468,0 0.278492,-0.16917 0.357836,-0.37593 z m 3.764126,0.51874 c -0.243267,-0.29312 -0.189724,-0.33768 0.293222,-0.24401 l 0.590835,0.11458 -0.583421,-0.30514 c -0.320883,-0.16782 -0.542335,-0.43012 -0.492119,-0.58288 0.119376,-0.36316 1.203585,-0.52131 1.203585,-0.17556 0,0.14622 -0.20167,0.20245 -0.448156,0.12495 -0.376589,-0.11841 -0.367587,-0.0754 0.05636,0.26955 0.467966,0.38072 0.517778,0.37462 0.687527,-0.0842 0.146058,-0.39484 0.421082,-0.49112 1.362173,-0.47689 0.648543,0.01 1.251171,0.13433 1.339174,0.27672 0.09872,0.15973 -0.02773,0.19294 -0.330161,0.0867 -0.458535,-0.16108 -0.461246,-0.14967 -0.04201,0.17678 0.246485,0.19193 0.448155,0.46799 0.448155,0.61345 0,0.37932 -0.625172,0.56599 -1.038991,0.31024 -0.205724,-0.12715 -0.489086,-0.10424 -0.68102,0.055 -0.234414,0.19454 -0.434194,0.18524 -0.696465,-0.0324 -0.264445,-0.21947 -0.508697,-0.22979 -0.869419,-0.0367 -0.375677,0.20105 -0.576397,0.17842 -0.799274,-0.0901 z m 2.895191,-0.7079 c -0.731667,-0.39216 -0.975274,-0.42897 -1.134434,-0.17145 -0.307002,0.49675 -0.121839,0.61346 1.020763,0.64342 l 1.045419,0.0274 z m 30.448141,0.89328 c -0.176061,-0.0631 -0.320111,-0.39328 -0.320111,-0.73366 0,-0.34039 -0.11524,-0.61888 -0.256089,-0.61888 -0.140849,0 -0.256089,0.22367 -0.256089,0.49706 0,0.27338 -0.11524,0.56829 -0.256089,0.65534 -0.148962,0.0921 -0.256089,-0.16272 -0.256089,-0.60906 0,-0.73415 0.04707,-0.76674 1.088378,-0.75374 1.055991,0.0132 1.460486,0.26262 1.468591,0.90563 0.0049,0.3861 -0.780892,0.81207 -1.212502,0.65731 z m 0.704245,-0.86171 c 0,-0.6241 -0.598421,-0.53588 -0.723021,0.10659 -0.04901,0.2527 0.08163,0.42693 0.320111,0.42693 0.237556,0 0.40291,-0.21895 0.40291,-0.53352 z m 2.588708,0.8068 c -0.481052,-0.2973 -0.242782,-1.40387 0.325628,-1.51228 0.48453,-0.0924 0.915802,0.33269 0.923078,0.90988 0.0055,0.43423 -0.851711,0.84776 -1.248706,0.6024 z m 0.740448,-0.8068 c 0,-0.6241 -0.598421,-0.53588 -0.723021,0.10659 -0.04901,0.2527 0.08163,0.42693 0.320111,0.42693 0.237556,0 0.40291,-0.21895 0.40291,-0.53352 z m 2.210427,0.86596 c -0.319043,-0.31904 -0.1532,-0.5698 0.286441,-0.43311 0.426815,0.13271 0.426815,0.12562 0,-0.1488 -0.246486,-0.15849 -0.448156,-0.45529 -0.448156,-0.65956 0,-0.43425 0.912888,-0.50286 1.169356,-0.0879 0.120413,0.19483 -0.01506,0.22422 -0.433041,0.094 l -0.608271,-0.18958 0.62487,0.51122 c 0.61993,0.50717 0.620704,0.51345 0.09769,0.79335 -0.289946,0.15518 -0.599947,0.20937 -0.688892,0.12042 z m 29.94703,-0.22269 c -0.479276,-0.47927 -0.52045,-1.16973 -0.09512,-1.59506 0.351961,-0.35197 1.485316,-0.41814 1.485316,-0.0867 0,0.12131 -0.2881,0.1655 -0.640222,0.0982 -0.572133,-0.10937 -0.640222,-0.0375 -0.640222,0.67573 0,0.99516 0.521271,1.04888 1.483687,0.15289 0.847465,-0.78897 1.435442,-0.72535 1.539212,0.16655 0.09071,0.77963 -0.523986,1.14839 -1.045291,0.62709 -0.285291,-0.2853 -0.42205,-0.28349 -0.824622,0.0109 -0.614416,0.44927 -0.770041,0.44316 -1.262738,-0.0495 z m 2.881484,-0.53668 c -0.1246,-0.64247 -0.723021,-0.73069 -0.723021,-0.10659 0,0.31457 0.165354,0.53352 0.40291,0.53352 0.23848,0 0.369122,-0.17423 0.320111,-0.42693 z m -114.426516,-0.35645 c 0,-0.57627 0.106222,-0.97382 0.238375,-0.89214 0.131106,0.081 0.185983,0.43624 0.121948,0.78937 -0.08874,0.48938 0.02204,0.69767 0.46587,0.87592 0.564012,0.22651 0.560182,0.23437 -0.121949,0.25009 -0.655265,0.0151 -0.704244,-0.0561 -0.704244,-1.02324 z m 1.707259,0.86874 c -0.268088,-0.26808 -0.199481,-1.3658 0.08536,-1.3658 0.140849,0 0.256089,0.2881 0.256089,0.64022 0,0.35212 0.11524,0.64022 0.256089,0.64022 0.140849,0 0.256089,-0.2881 0.256089,-0.64022 0,-0.35212 0.11524,-0.64022 0.256089,-0.64022 0.140849,0 0.256089,0.34572 0.256089,0.76826 0,0.63413 -0.104332,0.76827 -0.597541,0.76827 -0.328647,0 -0.674368,-0.0768 -0.768267,-0.17073 z m 3.953941,-0.53351 c -0.02371,-0.72432 0.05581,-0.83229 0.612979,-0.83229 0.559447,0 0.635382,0.105 0.601852,0.83229 -0.03571,0.77465 -0.04576,0.78352 -0.145053,0.12804 -0.05868,-0.38733 -0.192026,-0.70424 -0.296329,-0.70424 -0.104305,0 -0.31487,0.31691 -0.467925,0.70424 l -0.278282,0.70425 z m 29.192424,-0.25609 c -0.02784,-1.18691 0.380182,-1.47371 0.63758,-0.44816 0.08838,0.35212 0.250939,0.64022 0.361249,0.64022 0.11031,0 0.272873,-0.2881 0.361249,-0.64022 0.250945,-0.99984 0.663107,-0.75168 0.663107,0.39925 0,0.57171 -0.10442,0.97493 -0.232047,0.89605 -0.127627,-0.0789 -0.18397,-0.40258 -0.125205,-0.71935 0.07859,-0.42365 0.03273,-0.38973 -0.173428,0.1283 -0.340094,0.85457 -0.651022,0.89853 -0.905733,0.12804 l -0.190484,-0.5762 -0.185381,0.64022 c -0.151538,0.52335 -0.190041,0.44153 -0.210907,-0.44815 z m 4.141645,-0.064 c 0,-0.63383 0.04994,-0.89312 0.110981,-0.57621 0.06104,0.31691 0.06104,0.8355 0,1.15241 -0.06104,0.31691 -0.110981,0.0576 -0.110981,-0.5762 z m 0.442429,0 c 0,-0.5634 0.115241,-1.02436 0.256089,-1.02436 0.140849,0 0.256089,0.46096 0.256089,1.02436 0,0.56339 -0.11524,1.02435 -0.256089,1.02435 -0.140848,0 -0.256089,-0.46096 -0.256089,-1.02435 z m 0.806637,0.19206 c 0.03571,-0.77465 0.04576,-0.78352 0.145054,-0.12804 0.05868,0.38733 0.264235,0.70424 0.456799,0.70424 0.192563,0 0.398121,-0.31691 0.456798,-0.70424 0.0993,-0.65548 0.10934,-0.64661 0.145054,0.12804 0.03353,0.72728 -0.0424,0.83229 -0.601852,0.83229 -0.559447,0 -0.635383,-0.10501 -0.601853,-0.83229 z m 31.7629,-0.19206 c 0.01373,-0.99451 0.0399,-1.02436 0.898071,-1.02436 0.770195,0 0.873404,0.0741 0.802101,0.5762 -0.05259,0.37029 -0.287739,0.60544 -0.658033,0.65803 -0.31691,0.045 -0.5762,0.24668 -0.5762,0.44816 0,0.20148 -0.108016,0.36632 -0.240038,0.36632 -0.132021,0 -0.233676,-0.46096 -0.225901,-1.02435 z m 1.311754,-0.38063 c 0.02777,-0.13892 -0.151174,-0.29142 -0.39766,-0.33889 -0.280315,-0.054 -0.448155,0.0716 -0.448155,0.33538 0,0.44554 0.756819,0.44868 0.845815,0.004 z m 6.786434,0.49312 c -0.05855,-0.50152 -0.01355,-0.96928 0.100026,-1.03947 0.113565,-0.0702 0.206482,0.34015 0.206482,0.91186 0,1.28311 -0.163656,1.35124 -0.306508,0.12761 z m 0.562597,0.12848 c 0,-0.45704 0.106682,-0.71745 0.256089,-0.62511 0.140849,0.0871 0.256089,0.43957 0.256089,0.78338 0,0.34381 -0.11524,0.62511 -0.256089,0.62511 -0.140849,0 -0.256089,-0.35252 -0.256089,-0.78338 z m 34.31592,0.001 c 0,-0.77349 0.01367,-0.78142 1.216423,-0.70424 1.113963,0.0715 1.223247,0.13737 1.297454,0.7823 0.04457,0.38733 -0.04186,0.70424 -0.192067,0.70424 -0.150204,6e-5 -0.273098,-0.28804 -0.273098,-0.64016 0,-0.35212 -0.11524,-0.64022 -0.256089,-0.64022 -0.140849,0 -0.256089,0.2881 -0.256089,0.64022 0,0.35212 -0.11524,0.64022 -0.256089,0.64022 -0.140849,0 -0.256089,-0.2881 -0.256089,-0.64022 0,-0.35212 -0.11524,-0.64022 -0.256089,-0.64022 -0.140849,0 -0.256089,0.2881 -0.256089,0.64022 0,0.35212 -0.11524,0.64022 -0.256089,0.64022 -0.140849,0 -0.256089,-0.35203 -0.256089,-0.7823 z m -76.442553,-3.35629 c -5.434461,-0.60778 -10.219967,-4.66892 -11.896031,-10.09538 -0.642898,-2.08147 -0.703599,-5.71312 -0.132162,-7.90702 1.281861,-4.9214 5.363522,-8.92545 10.490341,-10.29088 1.72511,-0.45945 5.058059,-0.43642 6.917098,0.0478 5.084498,1.32434 9.1695492,5.35508 10.5020312,10.36242 0.4792654,1.80102 0.480533,5.36084 0.00256,7.15694 -1.2083122,4.54043 -4.6555952,8.35165 -9.0601302,10.01661 -1.701176,0.64306 -4.66361,0.95109 -6.8237,0.70951 z m -0.201147,-7.36551 c 6.898642,-1.35536 11.77791,-4.65315 11.22728,-7.58827 -0.30281,-1.61411 -2.002923,-2.37346 -4.590215,-2.0502 -1.259415,0.15735 -1.465472,0.28346 -2.588281,1.584 l -1.219929,1.41304 0.438586,0.97261 c 0.402766,0.89318 0.405581,1.03643 0.03448,1.75407 -0.701537,1.35662 -1.847589,1.96775 -3.793632,2.02294 -1.498848,0.0425 -1.929249,0.17657 -3.384559,1.05431 -0.917037,0.55309 -1.594392,1.07857 -1.505235,1.16773 0.315026,0.31503 2.906677,0.15599 5.381508,-0.33023 z m -4.28041,-1.12641 c 3.504422,-2.0667 9.589039,-8.43218 11.273346,-11.79371 0.414559,-0.82738 0.691369,-1.60525 0.615133,-1.7286 -0.310899,-0.50304 -1.563382,-0.15108 -4.246666,1.19337 -3.641488,1.82456 -5.118978,2.78002 -7.018766,4.53889 -1.853131,1.71568 -2.824362,3.53659 -3.124818,5.85858 -0.284894,2.20173 -0.06292,2.85312 0.895315,2.62737 0.390579,-0.092 1.113485,-0.40517 1.606456,-0.6959 z m 77.338865,8.39101 c -6.763817,-1.4527 -11.524003,-7.31777 -11.524003,-14.19884 0,-3.97905 1.373133,-7.27124 4.227567,-10.13592 2.902285,-2.9127 6.042639,-4.19653 10.278504,-4.20203 12.829855,-0.0166 19.227116,15.61138 10.076327,24.6157 -2.013655,1.98143 -4.575736,3.36285 -7.296394,3.93406 -2.184072,0.45855 -3.581225,0.4554 -5.762001,-0.013 z m 3.363969,-6.03202 c -0.11743,-3.42209 0.284302,-5.896 1.417068,-8.72641 l 0.89014,-2.22417 -0.422867,-2.25669 c -0.441398,-2.35559 -1.213421,-4.46758 -1.81585,-4.96756 -0.715679,-0.59396 -1.64268,-0.0358 -2.282818,1.37453 -1.095825,2.41429 -1.495887,5.40762 -1.515729,11.34098 l -0.01805,5.39644 1.280444,1.44713 c 0.983356,1.11136 1.428989,1.43385 1.920667,1.38991 l 0.640223,-0.0572 -0.09323,-2.71696 z m -2.758526,-1.89093 c -0.0887,-0.23115 -0.03848,-0.54307 0.111606,-0.69315 0.390179,-0.39018 1.129457,-0.0336 1.027536,0.49565 -0.113524,0.58949 -0.934125,0.73176 -1.139142,0.1975 z m -0.04541,-2.37054 c 0.04698,-0.24648 0.343528,-0.48498 0.659001,-0.52999 0.435644,-0.0622 0.573583,0.0456 0.573583,0.44816 0,0.39862 -0.163343,0.52999 -0.658999,0.52999 -0.489434,0 -0.637023,-0.11532 -0.573585,-0.44816 z m 0.223794,-1.96593 c -0.204385,-0.24627 -0.178418,-0.41756 0.0981,-0.64705 0.422629,-0.35075 0.910688,-0.15786 0.910688,0.35992 0,0.48927 -0.68032,0.68291 -1.00879,0.28713 z m 0.160496,-2.10481 c -0.362499,-0.3625 -0.157375,-0.85897 0.354893,-0.85897 0.358005,0 0.503985,0.13907 0.448156,0.42693 -0.09141,0.47133 -0.528568,0.70652 -0.803049,0.43204 z m 0.08003,-2.48087 c 0,-0.48167 0.246443,-0.67053 0.665261,-0.50981 0.544716,0.20903 0.429223,0.85127 -0.153083,0.85127 -0.281698,0 -0.512178,-0.15366 -0.512178,-0.34146 z m 0.432151,-1.87265 c -0.351826,-0.35182 -0.169337,-0.89522 0.272094,-0.81021 0.246486,0.0475 0.448156,0.24799 0.448156,0.44559 0,0.40433 -0.451815,0.63306 -0.72025,0.36462 z m 0.336116,-2.52354 c 0,-0.21127 0.17286,-0.38413 0.384134,-0.38413 0.211273,0 0.384133,0.17286 0.384133,0.38413 0,0.21127 -0.17286,0.38413 -0.384133,0.38413 -0.211274,0 -0.384134,-0.17286 -0.384134,-0.38413 z m 4.516664,15.12889 c 0.551821,-0.98376 1.406221,-4.34307 2.402015,-9.4442 0.297001,-1.52144 0.706869,-3.23921 0.910819,-3.81726 0.203949,-0.57806 0.310241,-1.11159 0.236203,-1.18563 -0.435441,-0.43544 -3.444319,3.41949 -4.446457,5.69673 -1.187185,2.69774 -1.792456,6.53054 -1.456242,9.22148 l 0.181636,1.45379 0.812227,-0.47437 c 0.446727,-0.2609 1.058636,-0.91365 1.359799,-1.45054 z m -7.333642,-5.46115 c -0.139261,-5.77976 -0.175575,-5.93761 -1.858584,-8.07899 -0.883204,-1.12375 -1.12507,-1.08332 -0.733979,0.12269 0.151505,0.4672 0.453052,2.69329 0.670106,4.94687 0.217055,2.25359 0.457651,4.44315 0.53466,4.86569 0.182194,0.99973 1.144167,3.45709 1.353517,3.45758 0.08928,2.1e-4 0.104704,-2.39102 0.03428,-5.31384 z m -111.342266,11.08294 c -3.716898,-1.29692 -6.328652,-3.53888 -8.330124,-7.15069 -2.275917,-4.10706 -2.001541,-10.0762 0.652261,-14.19016 2.7105,-4.20186 7.219979,-6.6981 12.113209,-6.70533 4.984464,-0.007 9.358056,2.40956 12.171715,6.72627 4.160094,6.38241 2.34956,15.12752 -4.032794,19.47892 -2.589756,1.76566 -4.249727,2.27742 -7.765006,2.39389 -2.641383,0.0875 -3.137231,0.0305 -4.809261,-0.5529 z m 5.574709,-3.65674 c -0.0016,-0.95073 -0.07119,-2.14191 -0.154757,-2.64707 -0.140553,-0.84964 -0.217104,-0.91681 -1.021537,-0.89644 l -0.869599,0.022 v 2.62504 2.62505 h 1.024356 1.024356 l -0.0028,-1.7286 z m -2.494049,-4.14467 c 1.063547,0.0233 2.521491,0.0198 2.816979,-0.007 0.176061,-0.0159 0.850627,0.0461 1.499035,0.13772 1.95121,0.27566 2.73125,-0.5015 3.168447,-3.15674 0.220874,-1.34145 -0.132533,-1.42417 -1.41202,-0.33052 -0.487653,0.41683 -0.966009,0.76255 -1.063015,0.76827 -0.09701,0.006 -0.251283,-0.48911 -0.342834,-1.09963 -0.251021,-1.67392 -0.536061,-1.97475 -1.132041,-1.19476 -1.397907,1.82951 -1.276667,1.79932 -1.285628,0.32011 -0.008,-1.32131 -0.02137,-1.34446 -0.776411,-1.34446 -0.666536,0 -0.76873,0.0932 -0.771764,0.70424 -0.0019,0.38734 -0.07384,0.9668 -0.15981,1.2877 -0.14818,0.5531 -0.195787,0.52978 -0.914969,-0.44816 -0.41726,-0.56738 -0.850485,-1.03161 -0.962722,-1.03161 -0.279818,0 -0.512191,0.95599 -0.516395,2.12447 l -0.0035,0.97206 -1.189226,-0.90804 c -0.654075,-0.49942 -1.287895,-0.90804 -1.408489,-0.90804 -0.308318,0 -0.273188,1.61695 0.05389,2.48019 0.150231,0.39651 0.524668,0.9894 0.832082,1.31753 0.486531,0.51933 0.724832,0.57783 1.839587,0.45163 0.704358,-0.0797 1.482321,-0.14056 1.728806,-0.13515 z m -0.343694,-6.39901 c 0.218887,-0.13857 0.603304,-0.11764 0.978385,0.0532 0.449622,0.20487 0.822089,0.20441 1.36805,-0.002 0.536303,-0.20243 0.956398,-0.20535 1.47332,-0.0102 0.965948,0.36461 1.9935,0.0738 2.506641,-0.70933 0.428368,-0.65364 0.819615,-2.93713 0.503263,-2.93713 -0.09622,0 -0.598175,0.2876 -1.115467,0.63911 l -0.94053,0.63911 -0.262304,-1.06823 c -0.144269,-0.58753 -0.377547,-1.10406 -0.518396,-1.14785 -0.140849,-0.0438 -0.544189,0.35098 -0.896311,0.87727 l -0.640223,0.9569 -0.07805,-1.21642 c -0.07047,-1.09824 -0.138891,-1.21642 -0.704245,-1.21642 -0.575166,0 -0.626855,0.0991 -0.634335,1.21642 -0.0088,1.31808 0.01807,1.32561 -1.144125,-0.32011 -0.312439,-0.44242 -0.397577,-0.45986 -0.625149,-0.12804 -0.144898,0.21127 -0.265215,0.82182 -0.267372,1.35677 l -0.0039,0.97263 -1.134518,-0.78057 c -0.623986,-0.42931 -1.200186,-0.78057 -1.280445,-0.78057 -0.289871,0 -0.136894,1.29266 0.27472,2.32138 0.231355,0.57821 0.663505,1.14944 0.960333,1.26939 0.71753,0.28997 1.73484,0.29672 2.180683,0.0145 z m 5.25041,-6.04655 c 0.396817,-0.53905 0.781512,-2.13536 0.566433,-2.35044 -0.0714,-0.0714 -0.47115,0.11324 -0.888337,0.4103 -0.984062,0.70072 -1.063588,0.68479 -1.063588,-0.21303 0,-1.03648 -0.370712,-1.17206 -1.00385,-0.36716 l -0.532684,0.6772 v -1.15558 c 0,-1.08591 -0.470756,-1.94261 -0.855852,-1.55752 -0.09268,0.0927 -0.172146,0.75431 -0.176597,1.47029 l -0.0081,1.30179 -0.632598,-0.71907 c -0.741082,-0.84239 -1.14384,-0.71178 -1.14384,0.37093 v 0.77404 l -0.862516,-0.53306 c -0.474384,-0.29319 -0.91987,-0.53307 -0.98997,-0.53307 -0.276444,0 0.27476,2.09091 0.664829,2.52193 0.357652,0.39521 0.839024,0.45491 3.485411,0.43235 2.739462,-0.0234 3.11042,-0.0805 3.441251,-0.5299 z m 66.497113,20.47246 C 7.3927921,171.9443 3.4095819,167.78316 2.0919556,162.63996 1.46001,160.17324 1.6816729,156.63813 2.6135089,154.32209 c 2.2933714,-5.70007 7.4488231,-9.33526 13.2520141,-9.34421 2.622638,-0.004 4.306459,0.37094 6.534763,1.45526 3.542117,1.72363 6.166545,4.78103 7.479255,8.71316 0.639264,1.91488 0.722393,5.86297 0.167343,7.94796 -1.241898,4.6651 -5.559931,8.94256 -10.264352,10.1679 -1.890126,0.49232 -5.680094,0.48598 -7.534639,-0.0126 z m 1.676251,-7.32636 1.889962,-1.07531 v -2.3422 c 0,-2.67365 0.04234,-2.60585 -2.478959,-3.96916 -1.729579,-0.93521 -1.533059,-0.95337 -3.8566384,0.35635 -1.8785585,1.05887 -1.8592494,1.02145 -1.8592494,3.60284 v 2.34891 l 1.8566449,1.07014 c 1.0211549,0.58858 2.0145109,1.0732 2.2074609,1.07694 0.192948,0.004 1.201298,-0.47709 2.240779,-1.06851 z m -4.670689,-3.62316 c 0.030016,-1.4793 0.043499,-1.50508 1.11876,-2.13874 0.598608,-0.35276 1.088379,-0.53259 1.088379,-0.39962 0,0.13298 -0.408337,0.46159 -0.907416,0.73025 -0.9115971,0.49074 -1.0470426,0.7559 -1.2305943,2.40915 -0.054731,0.49297 -0.085838,0.2225 -0.069129,-0.60104 z m 13.441159,3.64099 1.826516,-1.05747 v -2.4779 -2.47789 l -1.920734,-1.07423 c -1.056402,-0.59083 -2.024872,-1.07424 -2.152153,-1.07424 -0.254798,0 -3.291619,1.67913 -3.801848,2.10213 -0.211507,0.17535 -0.320111,1.02607 -0.320111,2.50747 0,1.76989 0.08891,2.31611 0.422167,2.59356 0.762116,0.63448 3.282236,2.00037 3.705385,2.00829 0.227845,0.004 1.236195,-0.46811 2.240778,-1.04972 z m -4.831797,-3.65426 c 0,-1.40574 0.0058,-1.41622 1.163968,-2.09494 0.640184,-0.37517 1.229381,-0.61672 1.309327,-0.53677 0.145315,0.14531 -1.406187,1.19454 -1.76905,1.19635 -0.105637,5.1e-4 -0.192067,0.57036 -0.192067,1.26629 0,0.69593 -0.11524,1.33655 -0.256089,1.4236 -0.158905,0.0982 -0.256089,-0.37787 -0.256089,-1.25453 z m 1.993497,-4.84429 c 0.23671,-0.18185 0.308502,-0.93338 0.256089,-2.68079 l -0.07283,-2.42811 -1.949661,-1.13295 -1.949664,-1.13296 -1.251448,0.68636 c -0.688298,0.3775 -1.62598,0.912 -2.083739,1.18777 l -0.83229,0.50141 v 2.40116 2.40116 l 1.088378,0.62679 c 0.598608,0.34474 1.538941,0.86352 2.08963,1.15285 l 1.001254,0.52606 1.68768,-0.92804 c 0.928225,-0.51041 1.835697,-1.04173 2.016601,-1.18071 z m -6.347009,-2.79971 c 0,-1.42727 0.0015,-1.43018 1.149448,-2.07172 0.632196,-0.35334 1.206932,-0.54943 1.27719,-0.43575 0.07026,0.11368 -0.212692,0.34771 -0.628778,0.52005 -1.041399,0.43137 -1.319055,0.83571 -1.417773,2.06467 -0.128211,1.59614 -0.380087,1.54495 -0.380087,-0.0772 z m -68.234187,-13.23129 c -0.07962,-0.12882 -0.01954,-0.27595 0.133489,-0.32696 0.194666,-0.0649 0.182796,-0.30223 -0.03951,-0.79014 -0.397204,-0.87177 -0.747719,-0.89857 -0.747719,-0.0572 0,0.35212 -0.11524,0.64022 -0.256088,0.64022 -0.140849,0 -0.256089,-0.34572 -0.256089,-0.76827 0,-0.65615 0.09693,-0.76826 0.664197,-0.76826 0.461677,0 0.707553,0.16579 0.806388,0.54374 0.140849,0.5386 0.145559,0.538 0.498885,-0.064 l 0.356696,-0.60776 -0.172924,0.64023 c -0.440701,1.63163 -0.694491,2.03222 -0.987323,1.5584 z m 106.139273,-1.07528 c -0.0035,-1.06418 0.05328,-1.17857 0.57228,-1.1524 0.760963,0.0384 0.983243,1.35004 0.273239,1.61238 -0.255918,0.0946 -0.549972,0.29558 -0.653452,0.44671 -0.103481,0.15112 -0.189911,-0.25689 -0.192067,-0.90669 z m 0.918,-0.63678 c -0.12396,-0.32303 -0.247272,-0.36734 -0.452143,-0.16247 -0.154934,0.15494 -0.204997,0.48157 -0.111253,0.72587 0.12396,0.32303 0.247272,0.36734 0.452143,0.16247 0.154934,-0.15494 0.204997,-0.48157 0.111253,-0.72587 z m -114.213884,0.77293 c -0.425642,-1.1092 0.282182,-2.1088 1.234494,-1.74336 0.623982,0.23945 0.474795,0.55467 -0.201338,0.42542 -0.652685,-0.12477 -1.029061,0.40517 -0.76903,1.0828 0.223143,0.5815 0.862769,0.46159 1.501232,-0.28143 0.580196,-0.67522 1.402706,-0.7609 1.600541,-0.16673 0.06252,0.18776 -0.114,0.32011 -0.426934,0.32011 -0.293435,0 -0.533519,0.12301 -0.533519,0.27335 0,0.15681 0.218364,0.20404 0.512178,0.11079 0.293814,-0.0933 0.512178,-0.046 0.512178,0.11078 0,0.38334 -1.2054,0.3427 -1.387149,-0.0468 -0.119508,-0.25609 -0.179262,-0.25609 -0.29877,0 -0.216947,0.46489 -1.557957,0.39955 -1.743883,-0.085 z m 3.70389,-0.6833 c 0.01273,-0.76998 0.07467,-0.94369 0.211703,-0.5938 0.181218,0.46271 0.08588,1.68218 -0.131512,1.68218 -0.054,0 -0.09009,-0.48977 -0.08019,-1.08838 z m 0.657659,0.70425 c -0.237627,-0.61925 0.112892,-1.18613 0.681345,-1.10192 0.710027,0.10519 0.881462,0.71778 0.200871,0.71778 -0.293435,0 -0.533518,0.12868 -0.533518,0.28596 0,0.15988 0.225822,0.2269 0.512178,0.15202 0.281698,-0.0737 0.512178,-0.0295 0.512178,0.0982 0,0.39163 -1.216101,0.25699 -1.373054,-0.15202 z m 1.047607,-0.79495 c -0.0851,-0.0851 -0.305973,-0.0942 -0.490837,-0.0202 -0.204291,0.0817 -0.143608,0.14243 0.154721,0.15472 0.26996,0.0111 0.421212,-0.0494 0.336116,-0.13451 z m 30.342826,0.15017 c 0.09245,-1.30171 0.451575,-1.40907 0.841432,-0.25153 l 0.301877,0.89631 0.317809,-0.96269 c 0.391448,-1.18576 0.788711,-1.01572 0.788711,0.33758 0,1.02346 -0.377393,1.38131 -0.591737,0.56109 -0.11154,-0.42682 -0.118531,-0.42682 -0.146824,0 -0.04197,0.63321 -0.51481,0.55657 -0.789993,-0.12805 l -0.231604,-0.5762 -0.01624,0.5762 c -0.0089,0.31691 -0.135546,0.5762 -0.281373,0.5762 -0.150926,0 -0.233663,-0.44323 -0.192067,-1.02891 z m 2.676645,0.85818 c -0.250704,-0.2507 -0.208247,-1.3658 0.052,-1.3658 0.1225,0 0.20893,0.24906 0.192066,0.55348 -0.04632,0.8361 0.555729,0.86962 0.680756,0.0379 0.103481,-0.68837 0.109806,-0.68349 0.146522,0.11286 0.02998,0.6503 -0.06429,0.83229 -0.431126,0.83229 -0.258225,0 -0.546325,-0.0768 -0.640222,-0.17073 z m 1.476895,-0.11279 c -0.11967,-0.19364 0.01762,-0.22672 0.433042,-0.10434 l 0.60827,0.17919 -0.580485,-0.42536 c -0.319266,-0.23395 -0.514134,-0.53272 -0.433041,-0.66393 0.195124,-0.31572 1.14157,-0.30786 1.14157,0.009 0,0.13643 -0.20167,0.17987 -0.448155,0.0965 -0.299212,-0.10116 -0.255234,-0.008 0.132328,0.28165 0.319267,0.23824 0.514135,0.54052 0.433042,0.67173 -0.204019,0.33012 -1.073546,0.29973 -1.286571,-0.045 z m 1.621753,-0.51987 c -0.05822,-0.39667 -0.01273,-0.86796 0.101086,-1.0473 0.236518,-0.37267 0.309967,-0.005 0.216436,1.08225 l -0.05504,0.64005 0.602893,-0.50928 c 0.331591,-0.2801 0.660514,-0.55767 0.730939,-0.61682 0.07042,-0.0592 -0.07363,-0.0352 -0.320111,0.0532 -0.246486,0.0885 -0.448156,0.0492 -0.448156,-0.0872 0,-0.13643 0.2881,-0.24805 0.640222,-0.24805 0.540289,0 0.640223,0.11963 0.640223,0.76642 0,0.72719 -0.05126,0.76442 -1.001318,0.72719 -0.890439,-0.0349 -1.013042,-0.1191 -1.107175,-0.76047 z m 1.722546,0.29415 c 0.08972,-0.14517 -0.01309,-0.1881 -0.240974,-0.10065 -0.443654,0.17025 -0.524826,0.3538 -0.15646,0.3538 0.132536,0 0.311383,-0.11392 0.397434,-0.25315 z m 0.642036,-0.25123 c 0,-0.70838 0.06295,-0.7581 0.919047,-0.72591 0.515696,0.0194 1.010079,-0.11275 1.126463,-0.30106 0.26336,-0.42613 0.456581,0.36075 0.300756,1.2248 -0.14291,0.79245 -1.159063,0.67965 -1.275699,-0.1416 -0.111337,-0.78394 -0.558389,-0.73268 -0.558389,0.064 0,0.35212 -0.11524,0.64022 -0.256089,0.64022 -0.140849,0 -0.256089,-0.34221 -0.256089,-0.76047 z m 2.048711,-0.008 c 0,-0.54011 -0.372578,-0.68914 -0.640222,-0.25608 -0.18674,0.30215 0.05549,0.76826 0.399248,0.76826 0.132536,0 0.240974,-0.23048 0.240974,-0.51218 z m 26.875975,0.36804 c -0.291052,-0.3507 -0.247387,-0.37896 0.352778,-0.22833 0.831536,0.2087 0.910747,-0.17528 0.108743,-0.52713 -0.847283,-0.37173 -0.738711,-1.02106 0.170727,-1.02106 0.441042,0 0.794992,0.15731 0.8643,0.38413 0.09473,0.31002 0.05191,0.32237 -0.221944,0.064 -0.385332,-0.36352 -1.005149,-0.42835 -1.005149,-0.10513 0,0.11824 0.2881,0.34625 0.640222,0.50669 0.722348,0.32912 0.844505,0.93777 0.235143,1.1716 -0.604966,0.23215 -0.780067,0.1947 -1.14482,-0.24479 z m 2.126099,0.23063 c -0.467856,-0.18878 -0.391519,-1.35561 0.101056,-1.54462 0.600664,-0.2305 1.17407,0.61385 0.840345,1.23742 -0.262017,0.48958 -0.387736,0.53061 -0.941401,0.3072 z m 0.576201,-0.34258 c 0.08705,-0.14085 -0.02819,-0.25609 -0.256089,-0.25609 -0.227899,0 -0.343139,0.11524 -0.256089,0.25609 0.08705,0.14085 0.20229,0.25609 0.256089,0.25609 0.0538,0 0.169039,-0.11524 0.256089,-0.25609 z m 0.128044,-0.76826 c 0,-0.14085 -0.108438,-0.25609 -0.240974,-0.25609 -0.132537,0 -0.312199,0.11524 -0.399248,0.25609 -0.08705,0.14085 0.02138,0.25609 0.240974,0.25609 0.219586,0 0.399248,-0.11524 0.399248,-0.25609 z m 0.896311,1.02435 c -0.08705,-0.14085 0.0502,-0.26339 0.304997,-0.27232 0.361977,-0.0127 0.332596,-0.0686 -0.134377,-0.25577 -0.328706,-0.13175 -0.550159,-0.38373 -0.492119,-0.55997 0.129456,-0.39308 1.217811,-0.58812 1.217811,-0.21823 0,0.14622 -0.20167,0.20245 -0.448156,0.12495 -0.426519,-0.13411 -0.426503,-0.12308 2.56e-4,0.22856 0.470064,0.38727 1.728298,0.30086 1.728298,-0.11868 0,-0.13393 -0.25929,-0.16516 -0.5762,-0.0694 -0.444393,0.13426 -0.509197,0.10342 -0.28329,-0.13481 0.480814,-0.50704 1.235462,-0.19857 1.321426,0.54016 0.05966,0.51269 -0.05665,0.70374 -0.498851,0.81938 -0.317161,0.0829 -0.716442,0.0348 -0.887294,-0.10701 -0.209394,-0.17378 -0.364727,-0.17029 -0.476595,0.0107 -0.209685,0.33928 -0.570379,0.34506 -0.775952,0.0125 z m 2.979898,-0.5684 c -0.03447,-0.94145 -0.02369,-0.95216 0.925459,-0.92065 0.528183,0.0175 1.03798,0.15067 1.132881,0.29585 0.114188,0.17468 0.307978,0.15156 0.57294,-0.0683 0.568272,-0.47162 1.17518,-0.15075 1.17518,0.62132 0,0.71368 -0.639493,1.12752 -1.072775,0.69424 -0.148544,-0.14855 -0.4289,-0.20914 -0.62301,-0.13465 -0.245457,0.0942 -0.352927,-0.0725 -0.352927,-0.54731 0,-0.38994 -0.109824,-0.61485 -0.256089,-0.52446 -0.140849,0.0871 -0.256089,0.45878 -0.256089,0.82606 0,0.36729 -0.08643,0.58136 -0.192067,0.47573 -0.196087,-0.19609 -0.231883,-0.33238 -0.2881,-1.09692 -0.04393,-0.59739 -0.470379,-0.11846 -0.615673,0.69144 -0.08436,0.47026 -0.124114,0.38734 -0.14973,-0.31231 z m 3.422326,0.31231 c 0.08705,-0.14085 -0.02819,-0.25609 -0.256089,-0.25609 -0.227898,0 -0.343138,0.11524 -0.256089,0.25609 0.08705,0.14085 0.20229,0.25609 0.256089,0.25609 0.0538,0 0.16904,-0.11524 0.256089,-0.25609 z m 0.128045,-0.6251 c 0,-0.2703 -0.491463,-0.38386 -0.637641,-0.14734 -0.08847,0.14315 0.0188,0.26027 0.238393,0.26027 0.219586,0 0.399248,-0.0508 0.399248,-0.11293 z m 26.035711,0.96655 c -0.340516,-0.34051 -0.160908,-0.6521 0.20219,-0.35076 0.205102,0.17022 0.493202,0.23515 0.640222,0.14429 0.447211,-0.27639 0.299975,-0.60689 -0.308894,-0.69337 -0.833429,-0.11836 -0.795313,-1.10618 0.04268,-1.10618 0.340383,0 0.676034,0.17286 0.74589,0.38413 0.11008,0.33293 0.06881,0.33609 -0.309624,0.0237 -0.30712,-0.25355 -0.517021,-0.28009 -0.707646,-0.0895 -0.190627,0.19063 -0.09246,0.32678 0.330964,0.45901 0.768172,0.23991 1.031473,0.65206 0.684017,1.07072 -0.291153,0.35081 -1.037609,0.44016 -1.319801,0.15797 z m 1.821704,-0.60881 c -0.06293,-0.42875 -0.01839,-0.83889 0.09898,-0.91143 0.117365,-0.0725 0.213391,0.15622 0.213391,0.50834 0,0.35213 0.11524,0.71145 0.256089,0.7985 0.144641,0.0894 0.256089,-0.12035 0.256089,-0.48195 0,-0.35213 0.11524,-0.71145 0.256089,-0.7985 0.152403,-0.0942 0.256089,0.21075 0.256089,0.75316 0,0.7899 -0.08149,0.91142 -0.611157,0.91142 -0.485245,0 -0.634729,-0.1606 -0.725569,-0.77954 z m 1.592815,-0.34529 c 0,-0.66561 0.09449,-1.1518 0.209975,-1.08042 0.254575,0.15733 0.234644,1.846 -0.02484,2.10549 -0.101829,0.10182 -0.185134,-0.35946 -0.185134,-1.02507 z m 3.346488,0.54863 c -0.01963,-0.79775 -0.52951,-0.98269 -0.52951,-0.19207 0,0.2817 -0.11524,0.51218 -0.256089,0.51218 -0.140849,0 -0.256089,-0.46096 -0.256089,-1.02435 0,-0.5634 0.06265,-1.02436 0.13922,-1.02436 0.07657,0 0.442837,0.28153 0.81392,0.62562 0.578592,0.5365 0.634187,0.70977 0.39029,1.21642 -0.28346,0.58883 -0.284469,0.58845 -0.301742,-0.11344 z m 0.824179,-0.5762 c 0.002,-0.70424 0.05166,-0.96195 0.11052,-0.57268 0.05886,0.38927 0.05729,0.96547 -0.0035,1.28045 -0.06079,0.31497 -0.108945,-0.004 -0.107024,-0.70777 z m 0.664563,0.83229 c -0.104018,-1.09321 -0.07129,-1.47483 0.131538,-1.53387 0.126016,-0.0367 0.241256,0.36553 0.256089,0.8938 0.01483,0.52827 -0.05946,0.96042 -0.165101,0.96034 -0.105636,-9e-5 -0.205772,-0.14421 -0.222526,-0.32027 z m 0.849944,0.0128 c -0.63056,-0.63056 -0.0098,-1.64987 0.812635,-1.33429 0.596607,0.22894 0.514928,0.87333 -0.1107,0.87333 -0.29001,0 -0.45918,0.11021 -0.375931,0.24491 0.08325,0.1347 0.339433,0.17273 0.569301,0.0845 0.279375,-0.1072 0.35655,-0.061 0.232775,0.13923 -0.238593,0.38605 -0.737739,0.38265 -1.12808,-0.008 z m 0.903782,-0.87177 c -0.0851,-0.0851 -0.305975,-0.0942 -0.490838,-0.0202 -0.20429,0.0817 -0.14361,0.14243 0.154721,0.15472 0.269959,0.0111 0.421213,-0.0494 0.336117,-0.13451 z m 0.808424,1.13384 c -0.01606,-0.0455 -0.06659,-0.39729 -0.112287,-0.78167 -0.09414,-0.79179 0.217829,-1.09462 0.857995,-0.83287 0.392134,0.16033 0.384474,0.19937 -0.07629,0.38882 -0.460269,0.18926 -0.464856,0.21243 -0.04525,0.22861 0.598964,0.0231 0.470678,0.87468 -0.149761,0.99417 -0.24487,0.0471 -0.458356,0.0485 -0.474415,0.003 z m 0.541377,-0.46694 c 0,-0.14085 -0.122042,-0.25609 -0.271203,-0.25609 -0.149162,0 -0.19998,0.11524 -0.11293,0.25609 0.08705,0.14085 0.209091,0.25609 0.271203,0.25609 0.06211,0 0.11293,-0.11524 0.11293,-0.25609 z m -81.937791,-3.72645 c -5.242272,-0.93348 -9.660372,-4.83996 -11.280616,-9.97431 -0.796063,-2.52262 -0.800176,-6.26438 -0.0094,-8.57898 2.644851,-7.74173 10.7582,-11.90178 18.277727,-9.37174 2.515104,0.84624 4.252298,1.95964 6.097988,3.90833 2.5724928,2.71605 3.8396517,6.00033 3.8370242,9.94497 -0.00592,8.8776 -8.1343682,15.63665 -16.9226932,14.07173 z m 7.054167,-5.05887 c 0.452581,-0.52635 0.617827,-1.02293 0.617827,-1.85665 v -1.13812 h -3.186591 c -4.016318,0 -3.955911,0.0583 -3.78479,-3.65053 0.06658,-1.44301 0.225932,-2.82532 0.354115,-3.0718 0.201365,-0.38721 0.632386,-0.44816 3.169075,-0.44816 h 2.936013 v -0.65294 c 0,-0.7015 -0.585316,-2.01299 -1.222973,-2.74024 -0.332408,-0.37911 -0.856722,-0.44815 -3.403553,-0.44815 h -3.010612 l -0.644299,0.7657 c -0.875261,1.04019 -1.133304,2.63196 -1.308141,8.06937 -0.162489,5.05336 -0.101616,5.32213 1.306351,5.76781 0.400733,0.12684 2.265611,0.20624 4.144177,0.17643 3.396334,-0.0539 3.419051,-0.0582 4.033401,-0.77272 z m 0.51048,-4.15588 c -0.125394,-0.49961 -0.378653,-3.8498 -0.401678,-5.31352 -0.0018,-0.11025 -1.299603,-0.16787 -2.884153,-0.12805 l -2.881001,0.0724 -0.0735,2.67163 c -0.04042,1.46939 -0.01524,2.82346 0.05599,3.00904 0.09729,0.25353 0.902421,0.33742 3.238347,0.33742 h 3.108869 z m -1.733837,-11.57931 c -0.07271,-0.87854 -0.154512,-0.97124 -0.960367,-1.08838 -0.918789,-0.13355 -0.880319,-0.0683 -1.406121,-2.38439 -0.142769,-0.62889 -0.266926,-0.70977 -0.982823,-0.64023 -0.773161,0.0751 -0.834182,0.15792 -1.081156,1.46726 -0.143961,0.76322 -0.376282,1.41577 -0.516271,1.45012 -0.139988,0.0343 -0.571434,0.13233 -0.958768,0.21776 -0.603643,0.13314 -0.704245,0.28267 -0.704245,1.04676 v 0.89143 h 3.344616 3.344614 z m -44.141232,20.47001 c -9.091871,-2.694 -13.277479,-13.31096 -8.412446,-21.33849 1.854447,-3.05992 5.853685,-5.92706 9.255963,-6.6358 2.179804,-0.45408 6.243768,-0.17628 8.006001,0.54727 2.055298,0.84387 4.69872,2.64966 5.894768,4.02685 1.599286,1.84151 3.020956,4.96976 3.380902,7.43935 0.98026,6.72556 -3.032337,13.41799 -9.403714,15.68403 -2.173837,0.77315 -6.574946,0.91283 -8.721474,0.27679 z m 4.753523,-4.72054 c 0.0022,-1.65095 0.441422,-2.90472 1.189361,-3.39478 0.567849,-0.37207 1.031899,-0.4112 3.067197,-0.25861 2.754136,0.20649 3.001541,0.0406 2.262307,-1.51726 -0.510912,-1.07667 -1.101474,-1.29774 -3.447226,-1.29038 -2.979713,0.009 -4.158044,1.16784 -4.631711,4.55376 -0.363521,2.59857 -0.25982,2.99564 0.78234,2.99564 0.742349,0 0.776366,-0.0476 0.777732,-1.08837 z m -1.794051,-3.42749 c 0,-2.33611 -1.208387,-4.23877 -3.379035,-5.32045 -2.234792,-1.11365 -4.815811,-0.73951 -4.815811,0.69808 0,0.66501 0.610068,1.09855 1.881524,1.33707 l 0.920222,0.17264 -0.632606,0.82939 c -0.347934,0.45616 -0.632607,1.14785 -0.632607,1.53709 v 0.70769 l 2.543331,-0.18203 c 2.491329,-0.17832 2.555472,-0.16896 3.13709,0.45751 0.816812,0.8798 0.977892,0.84077 0.977892,-0.23699 z m 2.432845,-2.9753 c 1.206668,-0.59549 2.457145,-0.72914 4.056288,-0.43352 2.222102,0.41077 4.014696,-0.32713 3.642617,-1.49946 -0.204777,-0.64518 -1.207352,-1.0755 -2.505772,-1.0755 h -1.056945 l 0.556819,-0.59271 c 1.227334,-1.30644 0.251006,-2.43395 -1.806577,-2.08633 -1.118886,0.18904 -3.793136,1.88178 -4.374407,2.76891 -0.606249,0.92526 -1.003845,2.71657 -0.820219,3.69538 l 0.166351,0.88673 0.686789,-0.64218 c 0.377734,-0.35319 1.032509,-0.81279 1.455056,-1.02132 z m -2.221226,-2.41545 c 0.470736,-0.87607 0.360075,-2.86927 -0.226582,-4.08114 -0.681443,-1.40768 -2.39515,-2.97161 -3.139988,-2.86556 -0.905329,0.12889 -0.841793,1.20557 0.158891,2.69258 l 0.870685,1.29383 -0.893482,-0.2467 c -1.098384,-0.30328 -2.590392,-0.0532 -2.790269,0.46766 -0.290125,0.75606 0.342177,1.50091 1.683595,1.98328 0.726331,0.26118 1.865281,0.96928 2.531,1.57354 l 1.210398,1.09866 0.147597,-0.67839 c 0.08118,-0.37312 0.282848,-0.93011 0.448155,-1.23776 z m 3.077046,-2.91628 c 1.461603,-0.80704 2.398264,-2.10355 2.293334,-3.17442 -0.107355,-1.09561 -0.878154,-1.12497 -2.192792,-0.0835 -1.670587,1.32346 -2.364851,2.42435 -2.364851,3.74994 v 1.14234 l 0.535709,-0.48784 c 0.294639,-0.26832 1.07251,-0.78425 1.7286,-1.14652 z m 0.552669,-5.13425 c 0,-0.77679 -0.510812,-0.97328 -1.274609,-0.49028 -0.296978,0.18779 -0.463694,0.008 -0.775559,-0.83622 -0.554912,-1.50221 -1.314597,-1.49261 -1.649931,0.0209 -0.187727,0.84726 -0.333146,1.05753 -0.640222,0.92571 -0.218529,-0.0938 -0.627804,-0.18379 -0.909502,-0.19996 -0.872337,-0.0501 -0.607393,1.45402 0.465264,2.64132 0.495524,0.54849 1.028667,1.23589 1.184761,1.52755 0.267808,0.5004 0.37728,0.43497 1.941803,-1.16066 1.264518,-1.28966 1.657995,-1.86595 1.657995,-2.42831 z m 66.952813,21.57391 c -4.77086,-1.36628 -8.6769183,-5.39264 -9.9793355,-10.28669 -0.5198503,-1.95343 -0.4792192,-5.39579 0.087828,-7.44074 1.0161149,-3.66442 3.7576726,-7.07961 7.1166839,-8.86533 5.6238676,-2.98976 12.7376216,-1.88909 17.1529816,2.65398 3.564618,3.66772 4.958843,9.14756 3.558054,13.98452 -1.361026,4.69965 -5.565704,8.82592 -10.228877,10.03814 -2.020628,0.52528 -5.72086,0.48501 -7.707335,-0.0839 z m 7.448281,-5.04586 c 1.001464,-0.47523 2.201015,-1.60101 3.966941,-3.72298 2.070802,-2.48832 1.752762,-2.91443 -2.367425,-3.17187 -3.540153,-0.2212 -4.706651,0.0386 -5.808842,1.29398 -1.186097,1.35089 -1.059976,3.42757 0.293175,4.82747 1.206586,1.24826 2.413262,1.48657 3.916151,0.7734 z m -2.815862,-4.7035 c -0.330624,-0.53496 1.048876,-0.88757 3.299601,-0.84339 3.253731,0.0639 3.530701,0.57376 0.311658,0.57376 -1.375495,0 -2.716809,0.11555 -2.980699,0.25678 -0.301345,0.16128 -0.535874,0.16606 -0.63056,0.0129 z m -4.241524,-0.59725 c 0.347896,-0.17603 0.905556,-0.72172 1.239245,-1.21264 0.846883,-1.24593 0.663114,-2.67848 -0.727372,-5.67021 -1.985491,-4.2719 -2.554498,-4.34376 -4.4341037,-0.55995 -1.8877187,3.80015 -1.9113686,6.07031 -0.07549,7.2465 0.9301151,0.5959 3.0065207,0.69786 3.9977207,0.1963 z m -3.99044,-2.59997 c -0.2206411,-0.57499 0.2767323,-2.19975 1.2596478,-4.11486 0.4923262,-0.95924 0.8236432,-1.37628 0.8818472,-1.11001 0.05128,0.23458 -0.265408,1.13697 -0.7037399,2.0053 -0.4383347,0.86834 -0.8326553,1.97647 -0.8762698,2.46251 -0.094305,1.05098 -0.3278579,1.36588 -0.5614853,0.75706 z m 12.963845,-1.48994 c 1.810685,-1.23234 2.442241,-2.99317 1.66274,-4.63584 -0.6069,-1.27895 -1.75601,-1.90727 -5.057427,-2.76533 -2.604594,-0.67695 -2.882092,-0.70467 -3.434032,-0.34302 -0.330255,0.21639 -0.600465,0.54759 -0.600465,0.73599 0,0.7253 2.540879,5.69711 3.236883,6.3337 1.547064,1.415 2.80654,1.61764 4.192301,0.6745 z m -3.252855,-1.79263 c -0.796536,-0.83935 -1.226281,-1.57001 -1.958076,-3.32915 -0.29619,-0.71201 -0.318278,-0.96034 -0.08542,-0.96034 0.172745,0 0.643277,0.75565 1.045626,1.67922 0.402352,0.92357 1.061814,2.00949 1.465477,2.41315 0.40366,0.40366 0.733928,0.80041 0.733928,0.88167 0,0.35453 -0.469078,0.0873 -1.201539,-0.68455 z m 31.063575,16.32004 c -8.679113,-2.38303 -13.111839,-12.0852 -9.238201,-20.22021 2.660531,-5.58736 8.635552,-8.81084 14.891956,-8.0341 6.100347,0.75736 10.949227,5.2639 12.245024,11.3805 0.506754,2.39205 0.477955,4.00948 -0.112492,6.31811 -1.344656,5.25755 -4.946414,8.96164 -10.241793,10.53278 -1.69712,0.50353 -5.749238,0.51584 -7.544494,0.0229 z m 8.399408,-3.15688 c 0.16519,-0.26728 -0.662896,-0.69759 -2.024857,-1.0522 -1.814172,-0.47235 -1.784036,-0.40473 -1.876174,-4.20954 l -0.08355,-3.45019 -0.667583,0.0513 -0.66758,0.0513 0.0649,2.81284 c 0.09238,4.00383 -0.02606,4.21918 -2.769764,5.03609 -0.62373,0.18571 -1.180723,0.4817 -1.237762,0.65776 -0.08037,0.24808 0.934873,0.32011 4.512121,0.32011 2.538704,0 4.676317,-0.0979 4.750245,-0.21749 z m -2.716384,-9.61907 c 0.81036,-0.42335 1.901868,-1.55282 2.361767,-2.44389 0.974696,-1.88853 1.271894,-5.06784 0.727252,-7.77982 l -0.291442,-1.4512 h -4.674894 c -4.209738,0 -4.693652,0.0446 -4.863408,0.44816 -0.103683,0.24648 -0.245582,1.67552 -0.315332,3.17564 -0.09959,2.14183 -0.0317,3.0299 0.31617,4.13586 0.490935,1.56082 1.597769,3.0597 2.801395,3.79367 0.94694,0.57744 2.947684,0.6392 3.938492,0.12158 z m -2.675633,-0.9455 c -1.829663,-0.52403 -3.163108,-3.18029 -3.163108,-6.301 v -1.62477 l 3.905356,0.0707 3.905357,0.0707 -0.0289,1.94897 c -0.05754,3.88156 -2.161124,6.53928 -4.61871,5.83542 z m 0.678226,-1.25217 c 0,-0.13978 -0.25929,-0.55092 -0.5762,-0.91364 -0.779443,-0.89212 -1.173566,-2.04651 -1.196939,-3.50584 -0.01071,-0.66904 -0.134724,-1.21643 -0.275573,-1.21643 -0.458691,0 -0.269277,2.63506 0.275795,3.83673 0.721966,1.59166 1.772917,2.65817 1.772917,1.79918 z m -76.399381,-17.37519 c 0.072,-0.27534 0.0013,-0.74289 -0.157206,-1.03898 -0.34887,-0.65187 -0.07563,-0.71384 0.397768,-0.0902 0.207765,0.2737 0.343369,0.32354 0.348345,0.12805 0.0045,-0.17606 0.238624,-0.55059 0.520322,-0.83229 0.398361,-0.39836 0.512177,-0.42682 0.512177,-0.12805 0,0.21128 0.08643,0.37049 0.192067,0.35381 0.655316,-0.10347 0.859706,0.0877 0.785276,0.73457 -0.05802,0.50424 -0.244669,0.72749 -0.657231,0.78608 -0.495701,0.0704 -0.5762,-0.034 -0.5762,-0.74693 0,-0.94905 -0.260451,-0.81131 -0.657865,0.34791 -0.301547,0.87958 -0.921802,1.30571 -0.707453,0.48604 z m 2.344428,-0.89432 c 0.04901,-0.2527 -0.08163,-0.42693 -0.320112,-0.42693 -0.237555,0 -0.40291,0.21895 -0.40291,0.53352 0,0.6241 0.598421,0.53588 0.723022,-0.10659 z m -41.923637,-0.25188 c -0.02891,-1.20045 -0.01088,-1.23126 0.674538,-1.1524 0.978777,0.11262 1.14586,1.14498 0.222806,1.37665 -0.353504,0.0887 -0.693338,0.35209 -0.755186,0.58525 -0.06185,0.23317 -0.125819,-0.13111 -0.142158,-0.8095 z m 1.250739,-0.43114 c 0,-0.14085 -0.23048,-0.25609 -0.512178,-0.25609 -0.281698,0 -0.512178,0.11524 -0.512178,0.25609 0,0.14085 0.23048,0.25609 0.512178,0.25609 0.281698,0 0.512178,-0.11524 0.512178,-0.25609 z m 0.682904,1.36581 c -0.299058,-0.29906 -0.183899,-1.03608 0.213407,-1.36581 0.306466,-0.25435 0.461801,-0.25435 0.768267,0 0.533724,0.44295 0.479505,0.76827 -0.128045,0.76827 -0.281698,0 -0.512178,0.123 -0.512178,0.27334 0,0.16218 0.221348,0.2031 0.544248,0.10061 0.366243,-0.11624 0.486937,-0.08 0.36902,0.11079 -0.19256,0.31157 -0.984734,0.38278 -1.254719,0.1128 z m 1.677638,-0.58496 c 0.03791,-1.3334 1.224703,-1.33095 1.224703,0.003 0,0.62712 -0.104272,0.75315 -0.623094,0.75315 -0.52415,0 -0.619683,-0.12 -0.601609,-0.75568 z m 0.84057,0.2435 c 0.08705,-0.14084 0.04303,-0.25608 -0.09782,-0.25608 -0.140849,0 -0.327311,0.11524 -0.41436,0.25608 -0.08705,0.14085 -0.04303,0.25609 0.09782,0.25609 0.140849,0 0.327311,-0.11524 0.41436,-0.25609 z m 0.05869,-0.6669 c -0.0851,-0.0851 -0.305973,-0.0942 -0.490838,-0.0202 -0.20429,0.0818 -0.143608,0.14243 0.154721,0.15472 0.26996,0.0111 0.421213,-0.0494 0.336117,-0.1345 z m 0.581535,0.43216 c 0,-0.78165 0.334443,-1.04165 1.088378,-0.84611 0.482843,0.12523 0.659811,1.59303 0.192067,1.59303 -0.140849,0 -0.256089,-0.2881 -0.256089,-0.64022 0,-0.35212 -0.11524,-0.64022 -0.256089,-0.64022 -0.140849,0 -0.256089,0.2881 -0.256089,0.64022 0,0.35212 -0.11524,0.64022 -0.256089,0.64022 -0.140849,0 -0.256089,-0.33611 -0.256089,-0.74692 z m 1.963349,0.5762 c -0.0939,-0.0939 -0.159239,-0.46843 -0.145199,-0.83229 0.02491,-0.64558 0.02955,-0.64728 0.192066,-0.0703 0.239758,0.85128 0.647244,0.8128 0.837969,-0.0791 0.159144,-0.74423 0.165232,-0.73823 0.194584,0.19207 0.02435,0.77152 -0.06201,0.96033 -0.439198,0.96033 -0.258223,0 -0.546323,-0.0768 -0.640222,-0.17072 z m 1.544422,-0.70219 c -0.06802,-0.43542 -0.02079,-0.90114 0.104942,-1.03495 0.237907,-0.25317 0.317146,0.071 0.247254,1.01155 -0.02818,0.37922 0.130659,0.52177 0.611876,0.54911 0.357465,0.0203 0.649936,-0.0661 0.649936,-0.19207 0,-0.12594 -0.181311,-0.22899 -0.40291,-0.22899 -0.469792,0 -0.402188,-0.79898 0.08122,-0.95993 0.346457,-0.11536 0.925242,1.11707 0.697591,1.48542 -0.07697,0.12453 -0.528352,0.21182 -1.003085,0.19397 -0.758018,-0.0285 -0.878211,-0.12887 -0.986828,-0.82411 z m 27.13561,0.50263 c -0.177574,-0.46275 0.113619,-0.52531 0.525941,-0.11299 0.156744,0.15674 0.426726,0.19739 0.599954,0.0903 0.218099,-0.13479 0.102016,-0.30623 -0.377444,-0.55745 -0.731894,-0.38347 -0.821034,-1.16912 -0.14604,-1.28712 0.482713,-0.0844 1.193426,0.35824 0.956167,0.5955 -0.09815,0.0982 -0.343848,0.0412 -0.545987,-0.12655 -0.251008,-0.20832 -0.420229,-0.21974 -0.533776,-0.036 -0.09144,0.14796 0.137166,0.38437 0.508014,0.52536 0.438744,0.16681 0.64463,0.41264 0.589419,0.70377 -0.111245,0.58662 -1.367141,0.75009 -1.576248,0.20517 z m 2.061445,0.21036 c -0.295576,-0.29558 -0.207412,-1.03633 0.159592,-1.34092 0.471816,-0.39157 1.281541,0.22278 1.15662,0.87755 -0.09455,0.49558 -0.974292,0.80529 -1.316212,0.46337 z m 0.842827,-0.60834 c 0,-0.54012 -0.372579,-0.68915 -0.640222,-0.25609 -0.186741,0.30215 0.05549,0.76826 0.399247,0.76826 0.132537,0 0.240975,-0.23048 0.240975,-0.51217 z m 4.012061,0.59754 c -0.334311,-0.33432 -0.1632,-1.09573 0.302218,-1.34481 0.325397,-0.17415 0.565084,-0.16098 0.768267,0.0422 0.468323,0.46832 0.347441,0.70507 -0.360015,0.70507 -0.399563,0 -0.58935,0.10676 -0.486274,0.27354 0.09299,0.15045 0.330265,0.21169 0.527292,0.13608 0.197027,-0.0756 0.35823,-0.0258 0.35823,0.11059 0,0.28001 -0.847951,0.33909 -1.109718,0.0773 z m 1.508134,-0.0623 c -0.174003,-0.28154 0.107257,-1.11045 0.455992,-1.34388 0.474537,-0.31763 0.938215,0.0955 0.938215,0.83599 0,0.61476 -0.106408,0.74087 -0.625108,0.74087 -0.34381,0 -0.689904,-0.10484 -0.769099,-0.23298 z m 1.010073,-0.2792 c 0.08705,-0.14084 0.04303,-0.25608 -0.09782,-0.25608 -0.140849,0 -0.32731,0.11524 -0.41436,0.25608 -0.08705,0.14085 -0.04303,0.25609 0.09782,0.25609 0.140849,0 0.32731,-0.11524 0.41436,-0.25609 z m 0.640223,-0.23506 c 0,-0.73655 0.02015,-0.74705 1.408489,-0.73458 1.450132,0.013 1.417888,-0.0136 1.406653,1.16171 -10e-4,0.10564 -0.404349,0.19578 -0.896311,0.20031 -0.763025,0.007 -0.894476,-0.0776 -0.894476,-0.5762 0,-0.32144 -0.11524,-0.58444 -0.256088,-0.58444 -0.140849,0 -0.256089,0.2881 -0.256089,0.64022 0,0.35212 -0.11524,0.64022 -0.256089,0.64022 -0.140849,0 -0.256089,-0.33626 -0.256089,-0.74724 z m 2.191832,0.0989 c -0.569045,-0.43041 -0.911388,-0.4825 -0.911388,-0.13868 0,0.13052 0.20167,0.29001 0.448156,0.35442 0.837288,0.21881 0.961363,0.16102 0.463232,-0.21574 z m 28.56914,-0.44002 c -0.03506,-1.40741 0.300687,-1.58453 0.728171,-0.38413 l 0.296395,0.83229 0.356517,-0.83229 c 0.196084,-0.45776 0.419701,-0.83229 0.496925,-0.83229 0.07722,0 0.126772,0.54739 0.110108,1.21642 -0.02598,1.043 -0.05496,1.10689 -0.203281,0.44816 l -0.172983,-0.76827 -0.185731,0.70425 c -0.102154,0.38733 -0.286284,0.70424 -0.409179,0.70424 -0.122897,0 -0.312257,-0.31691 -0.420803,-0.70424 l -0.197352,-0.70425 -0.184243,0.76827 c -0.1614,0.67301 -0.188,0.61744 -0.214544,-0.44816 z m 2.590004,0.32012 c 0,-0.49298 0.0527,-0.69465 0.117118,-0.44816 0.06441,0.24649 0.06441,0.64983 0,0.89631 -0.06442,0.24649 -0.117118,0.0448 -0.117118,-0.44815 z m 0.452766,-0.39925 c 0,-0.71313 0.09967,-1.10592 0.256089,-1.00924 0.140848,0.0871 0.256089,0.61243 0.256089,1.16751 0,0.55508 -0.115241,1.00924 -0.256089,1.00924 -0.140849,0 -0.256089,-0.52538 -0.256089,-1.16751 z m 0.821141,0.0151 c 0.0093,-0.70425 0.06797,-1.01235 0.130421,-0.68467 0.07567,0.39705 0.239323,0.54752 0.490605,0.45109 0.207445,-0.0796 0.308149,-0.0332 0.223868,0.10317 -0.08425,0.13633 -0.02856,0.48073 0.123755,0.76534 0.155262,0.2901 0.172501,0.51747 0.03924,0.51747 -0.130733,0 -0.320019,-0.20167 -0.420631,-0.44816 -0.167928,-0.4114 -0.200202,-0.40615 -0.393532,0.064 -0.148291,0.36064 -0.205608,0.13333 -0.193726,-0.76826 z m 32.769432,0 -0.02451,-1.28045 0.629741,0.76827 c 0.585314,0.71407 0.62983,0.72868 0.631011,0.20718 7.68e-4,-0.3086 0.116513,-0.63231 0.257362,-0.71936 0.156421,-0.0967 0.256089,0.29611 0.256089,1.00924 0,1.36219 -0.298664,1.48196 -0.945855,0.3793 l -0.462635,-0.78822 -0.158355,0.85224 c -0.137271,0.73878 -0.161618,0.68177 -0.182858,-0.4282 z m 2.176518,0.98167 c -0.0939,-0.0939 -0.170727,-0.45882 -0.170727,-0.81094 0,-0.57689 0.338025,-0.59423 0.416145,-0.0213 0.01762,0.12911 0.04642,0.34999 0.06402,0.49083 0.06818,0.54543 0.515579,0.22038 0.616854,-0.44815 0.0993,-0.65548 0.10934,-0.64661 0.145054,0.12804 0.02998,0.6503 -0.06429,0.83229 -0.431126,0.83229 -0.258224,0 -0.546324,-0.0768 -0.640222,-0.17072 z m 1.568145,-0.59158 c -0.06153,-0.41927 -0.01877,-0.90904 0.09506,-1.08838 0.217685,-0.343 0.227888,-0.3082 0.298517,1.01842 0.05553,1.04298 -0.242977,1.09604 -0.393573,0.07 z m 0.822018,0.51426 c 0,-0.13643 0.20167,-0.18464 0.448155,-0.10714 0.426816,0.13421 0.426816,0.12333 0,-0.22833 -0.552455,-0.45519 -0.573477,-0.85012 -0.05582,-1.04877 0.418754,-0.16069 1.017428,0.95979 0.746788,1.39769 -0.193329,0.31281 -1.139119,0.30165 -1.139119,-0.0134 z m -115.24003,-4.012543 c -0.211273,-0.06751 -1.122786,-0.359713 -2.025584,-0.649347 -5.931239,-1.902854 -10.244928,-8.454816 -9.635878,-14.635709 0.586016,-5.947139 4.272534,-10.65788 9.86884,-12.610699 1.521884,-0.531057 2.425791,-0.674392 4.353512,-0.690354 4.183789,-0.03464 7.338457,1.269896 10.380937,4.292786 3.501894,3.479347 4.879496,7.986543 3.96164,12.96156 -0.427318,2.316161 -2.11058,5.380619 -3.985203,7.255239 -1.87462,1.874622 -4.939077,3.557885 -7.255238,3.985202 -1.399637,0.258222 -4.960932,0.315653 -5.663026,0.09132 z m -0.256089,-5.473131 c 1.71312,-0.48849 1.744515,-0.610004 0.507425,-1.964028 -0.62046,-0.679105 -1.21159,-1.270703 -1.313623,-1.314661 -0.418867,-0.180453 -1.872851,2.882668 -1.587493,3.344386 0.166606,0.269575 1.329865,0.237648 2.393691,-0.0657 z m -2.733518,-0.701899 c 0.07787,-0.387334 0.215063,-0.997267 0.304862,-1.355407 0.118273,-0.471706 -0.03315,-0.951163 -0.549422,-1.739707 l -0.712691,-1.088547 -0.434717,0.84735 c -0.239094,0.466043 -0.514405,1.378754 -0.611803,2.028247 -0.157533,1.05051 -0.111555,1.226799 0.416416,1.596605 0.884359,0.619428 1.424545,0.521235 1.587355,-0.288541 z m 5.923835,-1.687078 c 0.35806,-0.610982 0.649177,-1.215992 0.646927,-1.344467 -0.0052,-0.299806 -1.409257,-1.898167 -1.667358,-1.898167 -0.463269,0 -2.4251,1.442088 -2.425517,1.782929 -5.61e-4,0.45948 2.031969,2.570583 2.474912,2.570583 0.17601,0 0.612977,-0.499896 0.971036,-1.110878 z m -8.29698,-0.105545 c 0.01608,-0.748919 0.779374,-2.361718 1.688042,-3.566722 l 0.550757,-0.730371 -0.647959,-0.753296 -0.64796,-0.753298 -0.587718,0.737067 c -0.920015,1.153812 -1.462722,4.115916 -0.983101,5.365786 0.247102,0.643938 0.611422,0.470369 0.627939,-0.299166 z m 4.725773,-3.750297 c -0.38734,-0.507829 -0.801807,-0.923326 -0.921038,-0.923326 -0.311193,0 -2.027228,1.544549 -2.027228,1.824642 0,0.129278 0.308185,0.700749 0.684855,1.269937 l 0.684855,1.034884 1.141405,-1.141404 1.141406,-1.141407 z m 6.098978,-0.175213 c 0.305852,-0.249603 1.218722,-0.771706 2.028603,-1.160232 0.809882,-0.388525 1.472512,-0.848287 1.472512,-1.021692 0,-0.285104 -2.308319,-2.505984 -2.438994,-2.346602 -0.03027,0.03692 -0.537577,0.867532 -1.12735,1.845812 -0.589773,0.978278 -1.267446,1.91964 -1.505941,2.091919 -1.589636,1.148282 -1.534987,1.004481 -0.709931,1.868087 l 0.748052,0.783007 0.48848,-0.803241 c 0.268663,-0.441781 0.73872,-1.007459 1.044569,-1.257058 z m -3.120942,-0.10525 c 0.785796,-0.491517 1.7333,-1.35392 2.105564,-1.91645 l 0.676843,-1.022778 -0.948893,-0.869594 -0.948892,-0.869596 -0.832175,1.089866 c -0.457696,0.599428 -1.356334,1.397045 -1.996973,1.772484 -0.640638,0.375439 -1.164797,0.815503 -1.164797,0.977919 0,0.305333 1.258962,1.73182 1.528435,1.73182 0.08369,0 0.795092,-0.402152 1.580888,-0.893671 z m -3.089982,-1.678515 c 0.975305,-0.569608 1.773281,-1.128177 1.773281,-1.24126 0,-0.113084 -0.211022,-0.448919 -0.468939,-0.7463 l -0.468939,-0.540693 -1.963906,0.928322 c -1.080148,0.510575 -1.963906,1.031485 -1.963906,1.157578 0,0.325917 0.854864,1.460332 1.10772,1.469959 0.116274,0.0044 1.009385,-0.457997 1.984689,-1.027606 z m 11.450757,-1.975765 c 0.322475,-0.579219 0.655437,-1.636726 0.739916,-2.35001 0.150882,-1.273963 0.141471,-1.296886 -0.532499,-1.296886 -0.846615,0 -2.343934,0.759947 -3.320414,1.68524 l -0.734058,0.695576 1.374281,1.230592 c 0.755852,0.676825 1.489518,1.198647 1.630367,1.159604 0.140849,-0.03905 0.519932,-0.544896 0.842407,-1.124116 z m -8.146278,-1.021984 c 0.420129,-0.669032 0.766061,-1.34722 0.768737,-1.507081 0.0043,-0.254673 -1.057768,-1.117831 -1.375379,-1.117831 -0.0648,0 -0.456008,0.624399 -0.86935,1.387552 l -0.75153,1.387551 0.533115,0.533116 c 0.293214,0.293214 0.622535,0.533116 0.731826,0.533116 0.10929,0 0.542452,-0.547391 0.962581,-1.216423 z m 3.92794,-0.351697 c 1.078954,-1.415896 1.032832,-1.692705 -0.406014,-2.436763 -0.674328,-0.348707 -0.791515,-0.34484 -1.216944,0.04017 -0.258919,0.234319 -0.662538,0.830174 -0.896931,1.324121 -0.421588,0.888429 -0.418514,0.906078 0.28587,1.641297 0.391622,0.408764 0.834529,0.736645 0.984239,0.728624 0.149709,-0.008 0.712111,-0.591872 1.24978,-1.297446 z m -2.38607,-2.025756 c 0,-0.786626 3.408779,-3.064437 4.585974,-3.064437 0.650932,0 0.909838,-0.412122 0.385345,-0.61339 -0.620117,-0.23796 -2.689362,-0.181247 -3.707611,0.101622 -1.061843,0.294976 -3.056331,1.910339 -3.056331,2.475363 0,0.436719 0.98454,1.344055 1.472511,1.357041 0.176062,0.0047 0.320112,-0.110605 0.320112,-0.256199 z m 5.121779,-0.247459 c 0.552174,-0.281698 1.239022,-0.512178 1.526331,-0.512178 0.642161,0 0.688032,-0.67389 0.102753,-1.509496 -0.36369,-0.519238 -0.565375,-0.579127 -1.512945,-0.449246 -1.056301,0.144782 -3.455242,1.145747 -3.435738,1.433573 0.01211,0.178812 1.842483,1.503964 2.113379,1.53005 0.111247,0.01071 0.654046,-0.211005 1.20622,-0.492703 z m 26.761295,19.066289 c -4.896525,-1.341005 -8.802668,-5.23683 -10.253048,-10.225962 -0.509651,-1.753139 -0.575837,-5.278155 -0.134734,-7.175749 1.062925,-4.572614 5.166316,-8.977528 9.65431,-10.363727 9.411464,-2.906905 18.7877437,3.866899 18.7877437,13.573027 0,4.328902 -1.2390121,7.380852 -4.2176827,10.389042 -1.968015,1.987519 -4.489705,3.399514 -6.998814,3.918919 -1.814562,0.375626 -5.256697,0.317458 -6.837775,-0.11555 z m 0.815618,-5.765395 c 0.396505,-0.149499 1.354736,-0.764594 2.129405,-1.366877 0.77467,-0.602283 1.803891,-1.230305 2.287159,-1.395605 2.47986,-0.848231 4.278117,-2.656859 4.885931,-4.914112 0.135341,-0.502613 0.634146,-1.368685 1.108453,-1.924606 1.964448,-2.302449 2.307008,-4.293605 1.094596,-6.362427 -0.8292,-1.414928 -1.374148,-1.608006 -2.671049,-0.946377 -1.303083,0.664784 -2.26379,1.82322 -2.630993,3.172496 -0.161183,0.59226 -0.372904,1.357075 -0.470495,1.699589 -0.111368,0.390876 -0.743772,0.965148 -1.698451,1.542326 -1.137237,0.687548 -1.732098,1.2735 -2.35758,2.322271 -0.867748,1.45498 -1.523663,1.89923 -3.202564,2.169086 -0.63915,0.102733 -1.398863,0.539669 -2.245037,1.291191 -1.230098,1.092501 -1.665521,1.299469 -3.063083,1.455973 -0.43677,0.04891 -0.665752,0.251164 -0.720557,0.636458 -0.06716,0.472138 0.226848,0.719797 1.792622,1.510026 1.030128,0.519894 2.161058,1.033713 2.51318,1.141823 0.94904,0.291376 2.43062,0.277132 3.248463,-0.03124 z m -2.36733,-1.340853 c -1.338958,-1.151725 -0.729953,-3.509105 0.90654,-3.509105 0.969363,0 1.900008,1.071422 1.900008,2.187417 0,1.646642 -1.569487,2.38576 -2.806548,1.321688 z m 0.527357,-1.460394 c -0.07502,-0.121383 -0.01928,-0.293083 0.123867,-0.381552 0.143146,-0.08847 0.260266,-0.323294 0.260266,-0.521835 0,-0.509064 -0.714122,-0.182819 -0.903093,0.412575 -0.180486,0.568658 0.06331,1.077417 0.412788,0.861427 0.133414,-0.08245 0.18119,-0.249231 0.106172,-0.370615 z m 6.237318,-2.439242 c -0.740548,-0.399903 -1.312807,-1.672222 -1.065807,-2.369642 0.598908,-1.691066 2.488921,-1.841556 3.305138,-0.26317 0.916338,1.772002 -0.578597,3.52962 -2.239331,2.632812 z m 0.431361,-2.237275 c 0.142598,-0.577347 0.100709,-0.678764 -0.228219,-0.552543 -0.472297,0.181237 -0.787069,1.004812 -0.53804,1.407747 0.230557,0.37305 0.551316,0.01506 0.766259,-0.855204 z m 3.379268,-4.350618 c -0.556033,-0.422235 -0.98322,-1.609158 -0.782636,-2.174534 0.603248,-1.700335 2.490065,-1.855792 3.308761,-0.272609 0.471258,0.911313 0.267526,2.148645 -0.413827,2.513296 -0.651047,0.348429 -1.605716,0.318531 -2.112298,-0.06615 z m 0.668267,-1.726322 c 0.383362,-0.768466 0.260304,-1.145017 -0.267222,-0.817671 -0.281859,0.174904 -0.421153,0.658679 -0.36382,1.263548 0.04762,0.502359 0.218088,0.381911 0.631042,-0.445877 z m 27.18495,19.253656 C 7.3093685,97.935683 3.4116665,93.962686 2.1206171,89.006015 1.6281478,87.115292 1.6217532,83.812095 2.1070444,81.988573 3.3848796,77.186892 7.1846916,73.225265 11.972784,71.702704 c 1.914355,-0.608744 5.501805,-0.726558 7.527423,-0.247203 3.709609,0.877865 7.138436,3.483673 9.179301,6.975999 1.878123,3.213842 2.354443,7.951757 1.148141,11.420471 -1.561871,4.491163 -4.577784,7.640944 -8.829568,9.22149 -2.331749,0.866797 -6.385767,1.038779 -8.641163,0.366583 z M 19.7647,95.210945 c 0.338266,-0.247343 0.488406,-0.765514 0.55652,-1.920667 l 0.09328,-1.581936 h -2.856232 c -3.694816,0 -3.792875,-0.0759 -3.792875,-2.935768 0,-2.920464 0.0096,-2.9285 3.585245,-3.01285 l 2.945023,-0.06947 -0.01867,-1.69631 C 20.262911,82.714454 20.02009,81.628975 19.2888,79.576409 l -0.969525,-2.721224 -2.212921,0.0015 -2.212918,0.0015 -0.896312,2.367317 -0.896311,2.367317 -0.07598,6.564044 c -0.06681,5.771991 -0.02598,6.614045 0.338404,6.978424 0.54852,0.548522 6.669212,0.611079 7.401457,0.07565 z m 0.604703,-6.519858 0.07374,-2.377036 -3.018764,0.07223 -3.018763,0.07223 -0.07554,2.026076 c -0.04155,1.11434 -0.0149,2.184105 0.05922,2.377255 0.105493,0.274912 0.76147,0.335444 3.020561,0.278725 l 2.885802,-0.07246 z m -1.48223,-12.996968 v -0.648886 l -2.752956,0.07269 c -2.634523,0.06956 -2.756478,0.09748 -2.83479,0.648886 -0.08064,0.567767 -0.04035,0.5762 2.752957,0.5762 h 2.834789 z m 30.474586,23.841754 c -3.05152,-0.851373 -6.242988,-3.072771 -8.012365,-5.576952 -1.755488,-2.484519 -2.540183,-4.722736 -2.686315,-7.662281 -0.145847,-2.933814 0.167175,-4.513002 1.39759,-7.050777 4.336764,-8.944721 16.1944,-10.959703 23.127125,-3.930023 2.055234,2.08398 3.397788,4.539986 3.950318,7.226525 0.499963,2.430943 0.504541,3.664938 0.02205,5.942442 -0.620511,2.92902 -1.675457,4.833935 -3.907594,7.055947 -2.104557,2.095008 -4.124843,3.29081 -6.731934,3.984616 -1.685247,0.448481 -5.568636,0.454179 -7.158879,0.0105 z m 5.511183,-5.71494 c 2.261908,-1.408648 3.771527,-2.493454 4.32391,-3.107138 0.601651,-0.66842 0.518281,-0.672292 -0.796618,-0.037 -3.098121,1.496847 -8.589836,1.416625 -11.045383,-0.161354 -0.938044,-0.602803 -0.964682,-0.185826 -0.03872,0.606178 1.263543,1.080754 5.194406,3.623728 5.630876,3.642758 0.211274,0.0092 1.077945,-0.415338 1.925938,-0.943442 z m 1.952442,-3.127761 c 0.895144,-0.276645 2.168741,-0.846387 2.830221,-1.266093 1.458155,-0.925198 1.843851,-1.967537 1.856525,-5.017272 0.0092,-2.226217 -0.419169,-3.502229 -1.612167,-4.801668 -0.736307,-0.802001 -0.772631,-0.811098 -1.384427,-0.346732 -0.423815,0.321684 -0.41269,0.407187 0.194238,1.493102 0.756909,1.354259 1.318896,3.974603 0.934812,4.358687 C 59.4757,85.282082 59.334641,84.947632 59.225944,84.12059 59.006945,82.454271 58.416391,80.858721 57.81831,80.317465 57.434587,79.9702 57.176321,79.928299 56.611089,80.1216 c -0.786045,0.268817 -0.790582,0.318255 -0.216559,2.359327 0.467096,1.660865 0.504032,3.727462 0.102366,5.727504 -0.355305,1.769198 -0.854581,1.979818 -0.556537,0.234777 0.310254,-1.816544 0.197567,-5.430548 -0.205617,-6.594291 -0.338793,-0.97788 -0.408992,-1.027851 -1.547289,-1.101428 l -1.192396,-0.07707 0.225952,0.973383 c 0.437464,1.884549 0.158947,5.439317 -0.44183,5.639141 -0.219287,0.07294 -0.229628,-0.18673 -0.03994,-1.003229 0.251651,-1.083246 0.146611,-4.298187 -0.166363,-5.091852 -0.09827,-0.249193 -0.721943,-0.51152 -1.621381,-0.681973 -0.803927,-0.152352 -1.655546,-0.353979 -1.892485,-0.448058 -0.317174,-0.12594 -0.619095,0.113478 -1.144702,0.907725 -0.633882,0.957862 -0.72528,1.362053 -0.81541,3.605983 -0.100551,2.503444 -0.522283,3.534527 -0.588505,1.438826 -0.07496,-2.372265 0.09451,-3.449452 0.754919,-4.798498 0.378379,-0.772925 0.719756,-1.473318 0.758617,-1.556429 0.03886,-0.08311 -0.226613,-0.286551 -0.589936,-0.452092 -0.598017,-0.272476 -0.732824,-0.222077 -1.423189,0.532071 -1.461162,1.596152 -1.944261,5.142607 -1.055366,7.747459 0.376484,1.10326 0.631851,1.396871 1.845436,2.12181 0.774669,0.46275 1.92707,1.002115 2.56089,1.198586 1.761787,0.546117 5.519672,0.490684 7.463625,-0.110098 z M 55.902245,79.787181 c 0.839475,-0.218439 1.814173,-0.585532 2.165995,-0.815764 l 0.63968,-0.418605 -1.151858,-0.528703 c -0.985481,-0.452338 -1.65122,-0.52793 -4.609058,-0.523354 -2.675074,0.0041 -3.674459,0.102569 -4.417534,0.435087 -0.528184,0.236358 -0.960334,0.541329 -0.960334,0.677717 0,0.262509 1.705783,0.982334 3.123289,1.318 1.414797,0.335023 3.600188,0.274461 5.20982,-0.144378 z M 14.880662,66.56189 c 0.03232,-0.959788 0.113483,-1.106512 0.62638,-1.132349 0.535864,-0.02699 0.582265,0.06581 0.512178,1.024356 -0.06237,0.853014 -0.181833,1.068974 -0.626381,1.132348 -0.493363,0.07034 -0.545525,-0.034 -0.512177,-1.024355 z m 0.877217,0.05419 c 0.01193,-0.420102 -0.08657,-0.830745 -0.218925,-0.912545 -0.373801,-0.231021 -0.586465,0.61509 -0.254988,1.014496 0.225507,0.271718 0.217135,0.387383 -0.03537,0.4887 -0.226887,0.09103 -0.202264,0.139079 0.07838,0.152946 0.283427,0.01401 0.415858,-0.214531 0.430901,-0.743597 z m 0.688544,0.751024 c -0.130552,-0.211238 -0.0069,-0.245927 0.423991,-0.118979 l 0.60827,0.179191 -0.5762,-0.422365 C 16.2456,66.52344 16.16724,66.038065 16.677958,65.614207 c 0.648345,-0.538079 1.219413,-0.05177 1.134354,0.96598 -0.06059,0.724944 -0.198213,0.944945 -0.629575,1.006417 -0.303619,0.04327 -0.634962,-0.05551 -0.736314,-0.219504 z m 0.904216,-1.139609 c 0,-0.211273 -0.108438,-0.384133 -0.240974,-0.384133 -0.322923,0 -0.554202,0.399906 -0.349605,0.604503 0.288405,0.288402 0.590579,0.175649 0.590579,-0.22037 z M -61.72963,66.8165 c -0.732128,-0.732128 -0.173909,-1.997494 0.881198,-1.997494 0.596045,0 1.035768,0.421981 0.743882,0.713866 -0.09219,0.09219 -0.264956,0.01012 -0.383931,-0.182399 -0.324666,-0.525321 -1.036277,-0.123259 -1.036277,0.585498 0,0.673998 0.491929,1.004714 1.014281,0.681883 0.248912,-0.153835 0.212573,-0.269311 -0.151268,-0.480697 -0.447457,-0.259963 -0.441071,-0.278732 0.09732,-0.286008 0.397362,-0.0054 0.5762,0.142678 0.5762,0.476992 0,0.745498 -1.159184,1.07058 -1.741405,0.488359 z m 1.997494,-0.829979 c 0,-0.642133 0.11524,-1.167515 0.256089,-1.167515 0.140849,0 0.256089,0.454158 0.256089,1.009241 0,0.555083 -0.11524,1.080465 -0.256089,1.167515 -0.156422,0.09667 -0.256089,-0.29611 -0.256089,-1.009241 z m 0.921202,0.948768 c -0.08411,-0.08411 -0.1393,-0.508257 -0.122636,-0.942543 l 0.0303,-0.789607 0.164283,0.768267 c 0.09036,0.422547 0.277259,0.768267 0.415341,0.768267 0.138083,0 0.324987,-0.34572 0.415342,-0.768267 l 0.164283,-0.768267 0.0303,0.905838 c 0.02404,0.718673 -0.07038,0.913421 -0.456988,0.942543 -0.268008,0.02018 -0.556108,-0.03212 -0.640223,-0.116231 z m 1.570479,-0.643772 c -0.07004,-0.457759 -0.029,-1.005149 0.09119,-1.216422 0.234881,-0.412872 0.247602,-0.369142 0.316652,1.088532 0.05585,1.179095 -0.233144,1.269717 -0.407844,0.12789 z m 0.828776,0.437674 c -0.432472,-0.521097 -0.03336,-1.269963 0.676832,-1.269963 0.366856,0 0.484268,0.185419 0.484268,0.764759 0,0.883806 -0.622206,1.154531 -1.1611,0.505204 z m 0.905011,-0.117562 c 0.08705,-0.140849 -0.02819,-0.256089 -0.256089,-0.256089 -0.227898,0 -0.343138,0.11524 -0.256089,0.256089 0.08705,0.140849 0.20229,0.256089 0.256089,0.256089 0.0538,0 0.169039,-0.11524 0.256089,-0.256089 z m 0.128044,-0.625108 c 0,-0.270297 -0.491463,-0.383855 -0.63764,-0.147336 -0.08847,0.143146 0.01881,0.260266 0.238393,0.260266 0.219586,0 0.399247,-0.05082 0.399247,-0.11293 z m 0.512178,0.311942 c 0,-0.727751 0.09565,-0.863486 0.640223,-0.908555 0.583598,-0.0483 0.637139,0.0317 0.605348,0.904478 -0.02548,0.699635 -0.06581,0.785063 -0.14973,0.317243 -0.168832,-0.941104 -0.583663,-1.261267 -0.583663,-0.450466 0,0.37198 -0.11524,0.747549 -0.256089,0.834599 -0.151207,0.09345 -0.256089,-0.192131 -0.256089,-0.697299 z m 25.847648,0.280773 c -0.421858,-0.788249 0.07127,-1.76023 0.893043,-1.76023 0.642794,0 1.103582,0.410874 0.800591,0.713866 -0.09219,0.09219 -0.264955,0.01012 -0.383932,-0.182399 -0.324664,-0.525321 -1.036276,-0.123259 -1.036276,0.585498 0,0.637298 0.63246,1.102578 0.903223,0.664474 0.08325,-0.134697 0.27391,-0.244905 0.423691,-0.244905 0.171731,0 0.154565,0.141901 -0.04647,0.384133 -0.457615,0.551396 -1.214747,0.473219 -1.55387,-0.160437 z m 2.095755,-0.287719 c -0.02154,-0.696106 0.07598,-0.960333 0.354427,-0.960333 0.432042,0 0.499547,0.288313 0.1529,0.653027 -0.127176,0.133806 -0.286668,0.473764 -0.354424,0.755462 -0.06958,0.289283 -0.136124,0.09425 -0.152903,-0.448156 z m 1.147586,0.643772 c -0.08412,-0.08411 -0.139303,-0.508257 -0.122639,-0.942543 l 0.0303,-0.789607 0.164283,0.768267 c 0.09035,0.422547 0.277257,0.768267 0.415341,0.768267 0.138083,0 0.324987,-0.34572 0.41534,-0.768267 l 0.164284,-0.768267 0.0303,0.905838 c 0.02405,0.718673 -0.07038,0.913421 -0.456988,0.942543 -0.26801,0.02018 -0.55611,-0.03212 -0.640221,-0.116231 z m 1.503449,-0.08083 c -0.128295,-0.207583 -0.01923,-0.245413 0.360256,-0.124966 0.299337,0.09501 0.544248,0.06317 0.544248,-0.07074 0,-0.133914 -0.23048,-0.30375 -0.512178,-0.377416 -0.281698,-0.07367 -0.512178,-0.263582 -0.512178,-0.42204 0,-0.447502 0.767819,-0.633863 1.105592,-0.268337 0.239362,0.259028 0.208895,0.294704 -0.145258,0.170084 -0.246486,-0.08673 -0.448156,-0.04607 -0.448156,0.09035 0,0.136429 0.181311,0.248053 0.40291,0.248053 0.534916,0 0.36593,0.864528 -0.189908,0.971571 -0.231735,0.04463 -0.504134,-0.05282 -0.605328,-0.216562 z m 1.651433,0.175751 c -0.01173,-0.01895 -0.06721,-0.475485 -0.123268,-1.014532 -0.07246,-0.696713 -0.01076,-0.949401 0.213401,-0.873968 0.173437,0.05837 0.279253,0.405563 0.235146,0.771553 -0.07575,0.628596 -0.04396,0.648627 0.574203,0.36179 0.734394,-0.34077 0.905285,-0.758585 0.210234,-0.514009 -0.354153,0.12462 -0.38462,0.08894 -0.145259,-0.170084 0.473836,-0.512767 1.105592,-0.108178 1.105592,0.708045 0,0.675229 -0.074,0.729174 -1.024356,0.746732 -0.563395,0.0104 -1.033956,0.0034 -1.045693,-0.01552 z m 1.557871,-0.418582 c 0,-0.140849 -0.11524,-0.256089 -0.256089,-0.256089 -0.140849,0 -0.256089,0.11524 -0.256089,0.256089 0,0.140849 0.11524,0.256089 0.256089,0.256089 0.140849,0 0.256089,-0.11524 0.256089,-0.256089 z m 0.866616,0.143002 c -0.246145,-0.641441 0.01841,-1.295403 0.52404,-1.295403 0.268032,0 0.544483,0.17286 0.614339,0.384134 0.108572,0.328372 0.06564,0.333479 -0.295742,0.03518 -0.360373,-0.29747 -0.445433,-0.289833 -0.576515,0.05176 -0.08457,0.220391 -0.08059,0.519111 0.0088,0.663819 0.221387,0.358212 1.093695,-0.201148 1.250846,-0.802089 0.161008,-0.615702 0.851742,-0.585977 1.192819,0.05133 0.241366,0.450998 0.194753,0.512178 -0.390236,0.512178 -0.36539,0 -0.596237,0.110208 -0.512987,0.244905 0.08325,0.134698 0.349338,0.175357 0.591314,0.09035 0.362794,-0.127446 0.382692,-0.09292 0.11345,0.196837 -0.259869,0.279675 -0.427305,0.288438 -0.820416,0.04294 -0.311586,-0.194589 -0.551142,-0.215855 -0.648945,-0.05761 -0.232383,0.376006 -0.88951,0.302009 -1.05081,-0.118331 z m 2.393184,-0.809901 c -0.0851,-0.0851 -0.305975,-0.09419 -0.490838,-0.02021 -0.20429,0.08175 -0.143609,0.142432 0.154721,0.154719 0.269959,0.01111 0.421213,-0.04941 0.336117,-0.134503 z m 0.707157,0.919069 c -0.212265,-0.343451 0.07943,-0.764348 0.529714,-0.764348 0.202961,0 0.369019,-0.123005 0.369019,-0.273347 0,-0.164325 -0.229811,-0.203913 -0.5762,-0.09926 -0.444393,0.134262 -0.509197,0.103424 -0.28329,-0.134805 0.518262,-0.546535 1.237065,-0.195353 1.319631,0.644729 0.06517,0.663102 -0.01516,0.78089 -0.563508,0.826274 -0.351733,0.02911 -0.709648,-0.06055 -0.795366,-0.199243 z m 0.770689,-0.25217 c 0.08705,-0.140849 0.03623,-0.256089 -0.11293,-0.256089 -0.149162,0 -0.271203,0.11524 -0.271203,0.256089 0,0.140849 0.05082,0.256089 0.11293,0.256089 0.06211,0 0.184153,-0.11524 0.271203,-0.256089 z m 0.934681,-0.285145 c -0.0335,-0.808004 0.03471,-0.921685 0.53783,-0.896311 0.474789,0.02394 0.582549,0.186806 0.612266,0.925367 0.02695,0.66979 0.0065,0.718329 -0.08103,0.192066 -0.0644,-0.387334 -0.274648,-0.704244 -0.467211,-0.704244 -0.192564,0 -0.398121,0.31691 -0.456799,0.704244 -0.0892,0.588864 -0.112968,0.552638 -0.145054,-0.221122 z m 1.609253,0.513799 c -0.117916,-0.190794 0.0028,-0.227028 0.369019,-0.110789 0.299337,0.09501 0.544248,0.06317 0.544248,-0.07074 0,-0.133914 -0.23048,-0.30375 -0.512178,-0.377416 -0.281698,-0.07367 -0.512178,-0.263582 -0.512178,-0.42204 0,-0.447502 0.767819,-0.633863 1.105592,-0.268337 0.239362,0.259028 0.208895,0.294704 -0.145258,0.170084 -0.246486,-0.08673 -0.448156,-0.04607 -0.448156,0.09035 0,0.136429 0.17286,0.248053 0.384133,0.248053 0.213407,0 0.384134,0.227635 0.384134,0.512178 0,0.559349 -0.860933,0.727694 -1.169356,0.228654 z m 26.692889,0.112797 c -0.0939,-0.0939 -0.170727,-0.612478 -0.170727,-1.152401 0,-0.970474 0.01096,-0.981235 0.960334,-0.943303 0.772477,0.03086 0.82257,0.05924 0.256089,0.145054 -0.417346,0.06322 -0.704245,0.267408 -0.704245,0.501207 0,0.241648 0.145671,0.338624 0.375931,0.250263 0.206764,-0.07934 0.444046,-0.03405 0.527292,0.100645 0.08325,0.134698 -0.08592,0.244906 -0.375931,0.244906 -0.29001,0 -0.527292,0.11524 -0.527292,0.256089 0,0.140849 0.223679,0.256089 0.497064,0.256089 0.273385,0 0.568287,0.11524 0.655337,0.256089 0.175331,0.283692 -1.216018,0.363198 -1.493852,0.08536 z m 5.207141,-0.112761 c 0,-0.155918 0.17286,-0.217156 0.384134,-0.136081 0.512559,0.196687 0.489091,-0.08744 -0.03912,-0.473682 -0.459729,-0.336163 -0.274861,-0.899372 0.295214,-0.899372 0.194648,0 0.437231,0.134823 0.539075,0.299609 0.124505,0.201452 0.04556,0.246035 -0.240977,0.13608 -0.5479,-0.210249 -0.54959,0.0578 -0.0029,0.457562 0.23279,0.170222 0.341228,0.442217 0.240974,0.604434 -0.23301,0.377035 -1.176401,0.386218 -1.1764,0.01145 z m 32.302083,-0.80489 c -0.03479,-1.21368 -0.033,-1.216367 0.797415,-1.190896 0.709387,0.02177 0.74497,0.05012 0.240974,0.192067 -0.565767,0.159343 -0.815489,0.678717 -0.326336,0.678717 0.129109,0 0.321176,0.08643 0.426813,0.192067 0.105636,0.105637 -0.0496,0.192067 -0.34498,0.192067 -0.353331,0 -0.575015,0.197111 -0.648031,0.5762 -0.06104,0.31691 -0.126674,0.02881 -0.145855,-0.640222 z m 1.822329,0.192066 c 0.0028,-0.563395 0.05529,-0.763721 0.116541,-0.445169 0.06125,0.318551 0.05893,0.779511 -0.0052,1.024355 -0.0641,0.244844 -0.114216,-0.0158 -0.111373,-0.579186 z m 0.558686,0.612788 c -0.117916,-0.190794 0.0028,-0.227028 0.369019,-0.110789 0.299337,0.09501 0.544248,0.06317 0.544248,-0.07074 0,-0.133914 -0.23048,-0.30375 -0.512178,-0.377416 -0.281698,-0.07367 -0.512178,-0.263582 -0.512178,-0.42204 0,-0.447502 0.767819,-0.633863 1.105593,-0.268337 0.239361,0.259028 0.208894,0.294704 -0.145259,0.170084 -0.246486,-0.08673 -0.448156,-0.05952 -0.448156,0.06048 0,0.391573 1.021928,0.513369 1.056367,0.125901 0.0627,-0.705445 0.09839,-0.83201 0.2881,-1.02172 0.105637,-0.105637 0.192067,-0.07106 0.192067,0.07683 0,0.147896 0.23048,0.329174 0.512178,0.402841 0.346099,0.09051 0.512178,0.349308 0.512178,0.798134 0,0.365309 -0.11524,0.664198 -0.256089,0.664198 -0.140849,0 -0.256089,-0.23048 -0.256089,-0.512178 0,-0.281698 -0.11524,-0.512178 -0.256089,-0.512178 -0.140849,0 -0.256089,0.242808 -0.256089,0.539577 0,0.374412 -0.117583,0.494454 -0.384134,0.392169 -0.211273,-0.08107 -0.384133,-0.03578 -0.384133,0.100646 0,0.342237 -0.953801,0.313304 -1.169356,-0.03547 z m -113.814585,-4.2021 c -5.421752,-1.330064 -9.352823,-5.266333 -10.762024,-10.776256 -0.600585,-2.348266 -0.627378,-3.707919 -0.12063,-6.121548 1.178252,-5.611988 5.6548,-10.088536 11.266788,-11.266788 2.262264,-0.474969 3.6317,-0.47458 5.890046,0.0017 2.590929,0.546388 4.684697,1.67772 6.853578,3.703215 4.785729,4.469344 5.871413,10.932437 2.869464,17.081991 -2.759197,5.652282 -9.798035,8.898504 -15.997222,7.377722 z m 4.353513,-5.089694 v -2.660917 l -0.960334,-0.119717 c -0.528183,-0.06585 -0.994839,-0.09196 -1.037012,-0.05804 -0.04217,0.03392 -0.145967,1.285205 -0.230652,2.780634 l -0.153973,2.718958 h 1.190985 1.190986 z m 0.286966,-3.489532 c 1.105011,-0.30694 2.525682,-1.684092 2.952449,-2.862004 0.413453,-1.141169 0.449264,-5.32853 0.04557,-5.32853 -0.403996,0 -2.789263,2.465848 -3.664237,3.788023 l -0.70351,1.063076 -0.634699,-0.953038 c -0.713364,-1.071159 -3.408534,-3.898061 -3.716414,-3.898061 -0.302137,0 -0.239942,4.727149 0.07306,5.553264 0.388426,1.025167 1.230703,1.866701 2.415787,2.413654 1.16812,0.539121 1.911081,0.590525 3.231989,0.223616 z m 2.519915,-10.047179 c 0.0056,-0.809881 -0.08067,-1.472511 -0.191596,-1.472511 -0.276381,0 -2.404827,2.240633 -3.116765,3.281044 l -0.580411,0.8482 -0.392385,-0.592111 c -0.677901,-1.022955 -3.213519,-3.519034 -3.435447,-3.381875 -0.116631,0.07208 -0.212056,0.692583 -0.212056,1.378891 0,1.162953 0.08602,1.32928 1.264662,2.445215 0.695565,0.658561 1.571663,1.640384 1.946885,2.181829 l 0.682222,0.984447 2.012395,-2.100309 2.012395,-2.100308 0.01009,-1.472512 z m -3.575148,1.378452 c 0,-0.122157 0.63382,-0.871297 1.408489,-1.664755 1.332495,-1.364814 1.408489,-1.512728 1.408489,-2.741505 v -1.298855 l -0.658478,0.517959 c -0.362163,0.284877 -1.070437,1.025969 -1.573941,1.64687 l -0.915462,1.128912 -1.050971,-1.281435 c -0.578034,-0.704789 -1.310261,-1.451572 -1.627171,-1.659519 -0.569525,-0.373704 -0.576201,-0.364097 -0.576201,0.829174 0,1.122602 0.112236,1.330571 1.600556,2.965781 1.535369,1.686902 1.98469,2.039481 1.98469,1.557373 z m 0.876291,-4.579563 c 0.949168,-0.994866 1.161629,-1.391336 1.166484,-2.176757 0.0033,-0.528183 -0.09906,-0.960333 -0.227388,-0.960333 -0.246235,0 -1.382023,1.265237 -1.789644,1.993615 -0.206501,0.368997 -0.39212,0.258001 -1.307372,-0.781779 -0.586685,-0.66651 -1.172146,-1.211836 -1.301025,-1.211836 -0.128878,0 -0.234325,0.404848 -0.234325,0.899662 0,0.720505 0.240029,1.15398 1.205342,2.176756 0.662938,0.702402 1.2328,1.277094 1.266361,1.277094 0.03356,0 0.583265,-0.54739 1.221567,-1.216422 z m 33.439629,22.038918 c -3.003698,-0.502242 -6.891889,-2.727965 -8.679856,-4.968623 -2.280531,-2.857935 -3.356325,-5.803014 -3.356325,-9.188236 0,-3.980652 1.171189,-6.993176 3.808998,-9.797476 0.897732,-0.954395 2.280613,-2.127439 3.073067,-2.606765 7.206279,-4.358805 16.55474,-1.651441 20.257392,5.866649 0.5549422,1.126791 1.1262126,2.567291 1.2694867,3.201111 0.385839,1.706883 0.3271895,5.062289 -0.1183848,6.772964 -0.9442102,3.62506 -3.8602799,7.391688 -7.0308279,9.081573 -2.666106,1.421019 -6.476776,2.098083 -9.22355,1.638803 z m 3.873345,-2.896269 c 0.680864,0 0.656617,-1.189928 -0.02868,-1.407432 -0.467532,-0.148388 -0.481017,-0.228106 -0.166084,-0.981845 0.188517,-0.451188 0.423474,-1.358567 0.522119,-2.016398 0.15539,-1.036197 0.111383,-1.232433 -0.329256,-1.468255 -0.661903,-0.354241 -2.480368,-0.349434 -3.148837,0.0083 -0.44698,0.239216 -0.49958,0.437193 -0.357215,1.344468 0.09182,0.585168 0.300446,1.437481 0.463605,1.894031 0.263057,0.736071 0.233899,0.888557 -0.257431,1.3463 -0.304746,0.283916 -0.490592,0.681676 -0.412987,0.883912 0.155462,0.405125 1.353679,0.641377 2.498343,0.492595 0.40494,-0.05263 0.95233,-0.0957 1.216422,-0.0957 z m -9.715103,-5.643934 c -0.308257,-0.287184 -0.560466,-0.587963 -0.560466,-0.668398 0,-0.475662 1.733527,-3.280227 2.227666,-3.603999 0.524496,-0.343664 0.720975,-0.344595 1.742629,-0.0083 1.068729,0.351839 1.151484,0.34705 1.151484,-0.06663 0,-0.522079 -0.394554,-0.891199 -1.334661,-1.248627 -0.55117,-0.209555 -0.832776,-0.152571 -1.508743,0.305299 -0.983753,0.66635 -2.746834,3.372835 -2.772519,4.256068 -0.02067,0.710782 0.643556,1.556698 1.222346,1.556698 0.298072,0 0.257643,-0.125853 -0.167736,-0.522155 z m 3.697889,-0.03819 c -0.253255,-0.141727 -0.417021,-0.563605 -0.417021,-1.07428 0,-1.041452 0.182325,-1.239855 0.823872,-0.896511 0.62102,0.332362 0.733088,0.231714 0.544593,-0.489097 -0.238915,-0.913606 -1.228021,-0.738001 -1.723419,0.305975 -0.227323,0.479045 -0.413313,1.033516 -0.413313,1.232157 0,0.52154 1.005621,1.523903 1.328597,1.324292 0.175191,-0.108272 0.123607,-0.253162 -0.143309,-0.402536 z m 13.199552,0.136516 c 0.257576,-0.233102 0.46832,-0.702693 0.46832,-1.043534 0,-0.908179 -2.131593,-4.063876 -3.074348,-4.551394 -0.744863,-0.385183 -0.852116,-0.380992 -1.61471,0.06309 -0.484247,0.281991 -0.852938,0.7261 -0.905472,1.090683 -0.07477,0.518935 -0.02914,0.565642 0.292134,0.299007 0.209411,-0.173798 0.793097,-0.368789 1.297075,-0.433314 0.748345,-0.09581 1.03192,0.0073 1.54689,0.562715 1.43199,1.544338 2.285107,3.92439 1.406676,3.92439 -0.125778,0 -0.22869,0.11524 -0.22869,0.256089 0,0.372381 0.27897,0.314764 0.812125,-0.167736 z m -3.517667,-0.326091 c 0.476766,-0.526821 0.39566,-1.20034 -0.27205,-2.259129 -0.455803,-0.722768 -1.287073,-0.747387 -1.51009,-0.04472 -0.222337,0.700521 -0.02966,0.854666 0.628214,0.502585 0.414441,-0.221804 0.565434,-0.21187 0.657826,0.04327 0.208989,0.577145 -0.0343,1.779641 -0.407909,2.016173 -0.29744,0.188307 -0.289007,0.228485 0.04864,0.231727 0.224656,0.002 0.609573,-0.2183 0.855372,-0.489906 z m -4.194043,-0.615059 c 0.976685,0.260694 1.06508,0.237833 1.470007,-0.380164 1.069369,-1.632062 0.506193,-6.583894 -0.896654,-7.884009 -0.909052,-0.842481 -2.431772,-0.842799 -3.273887,-6.92e-4 -1.403347,1.403347 -1.955242,6.046383 -0.920425,7.743444 0.476297,0.781107 0.51731,0.795084 1.535576,0.523292 0.752576,-0.200874 1.337867,-0.201401 2.085383,-0.0018 z m 3.807623,-6.606401 c 0.573788,-0.859254 1.04325,-1.719127 1.04325,-1.910829 0,-0.54989 -1.438677,-0.146079 -2.280185,0.640009 -0.694106,0.648391 -0.713459,0.728922 -0.449047,1.868574 0.151976,0.655038 0.358763,1.140027 0.459526,1.077752 0.100763,-0.06227 0.652668,-0.816252 1.226456,-1.675506 z m -7.988313,0.480774 c 0.285731,-1.059748 0.272299,-1.10522 -0.510595,-1.728601 -0.985454,-0.784669 -2.237934,-1.123253 -2.237934,-0.604982 0,0.40849 2.00289,3.421961 2.27439,3.421961 0.09938,0 0.312741,-0.48977 0.474139,-1.088378 z m -0.225415,-3.656779 c 0.581983,-0.489707 0.963166,-1.248333 1.562419,-3.109511 0.435948,-1.353978 0.749668,-2.504744 0.697151,-2.557258 -0.161587,-0.16159 -1.426108,1.215076 -1.589784,1.730779 -0.08489,0.267465 -0.258968,0.4863 -0.386841,0.4863 -0.371465,0 0.236941,-1.342805 0.944523,-2.084642 0.741224,-0.777111 0.504662,-1.07138 -0.605359,-0.75303 -1.416883,0.406357 -1.903442,0.821598 -2.523715,2.153793 -0.599569,1.287729 -0.882263,4.179097 -0.450781,4.610577 0.38335,0.383351 1.630439,0.130471 2.352387,-0.477008 z m 4.903466,0.381243 c 0,-0.08602 -0.289772,-0.428634 -0.643936,-0.761355 -0.529423,-0.497365 -0.763534,-0.562231 -1.316445,-0.364751 -0.369877,0.132108 -0.75703,0.470676 -0.860336,0.752374 -0.174125,0.474803 -0.07806,0.512834 1.316443,0.521159 0.827352,0.0049 1.504274,-0.0614 1.504274,-0.147427 z m 4.214725,-1.782221 c -0.01634,-2.920814 -1.083116,-4.492869 -3.382436,-4.984513 -0.992173,-0.212148 -1.059302,0.07236 -0.20618,0.873832 0.682226,0.640916 1.300484,2.061969 0.897103,2.061969 -0.133522,0 -0.242767,-0.08898 -0.242767,-0.19774 0,-0.305951 -1.579421,-2.149536 -1.72059,-2.008367 -0.06878,0.06878 0.241064,1.223982 0.688533,2.567125 0.937529,2.814134 1.805376,3.819881 3.180551,3.685942 l 0.796529,-0.07758 z m 27.70547,20.337563 C 7.7414444,61.432469 3.4230727,57.129667 2.1206171,52.129205 c -0.5012429,-1.9244 -0.5012429,-5.219303 0,-7.143704 1.202458,-4.616545 5.1206523,-8.764262 9.5837419,-10.145148 3.730389,-1.154186 7.469142,-0.839081 10.961043,0.923808 2.260205,1.141067 3.821969,2.518007 5.285576,4.66007 3.30153,4.831958 3.438087,10.757497 0.365593,15.864043 -0.997551,1.657946 -3.145846,3.710555 -5.104104,4.876764 -2.791923,1.662685 -7.19852,2.27 -10.562353,1.455699 z m 6.346901,-7.117734 c 1.296565,-0.988939 1.772648,-2.043387 1.759136,-3.896209 -0.01396,-1.913062 -0.984895,-4.253083 -2.28933,-5.51739 -0.733723,-0.711153 -1.083922,-0.861207 -2.009901,-0.861207 -1.349169,0 -2.392936,0.857675 -3.366838,2.766566 -1.738032,3.40662 -1.132627,6.61903 1.500597,7.96248 1.246764,0.63609 3.247208,0.429869 4.406336,-0.45424 z M 14.302889,53.90924 c -0.906888,-1.15292 -0.999577,-3.16123 -0.224416,-4.86252 0.318467,-0.698962 0.871873,-0.862532 0.572641,-0.169256 -0.410703,0.951537 -0.702706,2.81107 -0.541982,3.451444 0.09256,0.368791 0.466668,1.025129 0.831352,1.458531 0.490915,0.583417 0.562246,0.788004 0.27475,0.788004 -0.21357,0 -0.624125,-0.299791 -0.912345,-0.666203 z m -2.718284,-2.59893 c 0.264537,-1.766459 0.859657,-3.369548 1.709473,-4.60485 0.70681,-1.027426 0.725559,-1.122136 0.361503,-1.826141 -0.636597,-1.231044 -1.849267,-2.083967 -2.962947,-2.083967 -0.8283428,0 -1.120968,0.159138 -1.8423654,1.001927 -1.8396073,2.149169 -2.3249497,5.869635 -0.9588329,7.350107 0.735467,0.797033 1.8916343,1.355305 2.8358373,1.369323 0.611217,0.0091 0.692421,-0.105191 0.857332,-1.206399 z m 11.54932,0.805026 c 0.999832,-0.474451 1.780642,-1.612836 2.030375,-2.960188 0.363462,-1.960942 -1.259246,-5.473996 -2.88478,-6.245362 -0.78688,-0.3734 -0.921409,-0.368828 -1.797942,0.0611 -0.521082,0.255581 -1.210394,0.859472 -1.531804,1.34198 l -0.584382,0.877286 0.62666,0.659247 c 0.938679,0.987491 1.940908,3.165232 2.205845,4.793073 0.129369,0.794855 0.174156,1.543982 0.09953,1.664728 -0.225804,0.365357 0.912949,0.246391 1.836496,-0.191859 z m -6.097776,-7.420575 c 0.815872,0.128106 1.021375,0.05709 1.413102,-0.488334 0.532634,-0.741616 0.337177,-1.306357 -0.747396,-2.159482 -1.000311,-0.786846 -2.20122,-0.690857 -3.287327,0.262758 -1.046612,0.918937 -1.078792,1.09416 -0.404134,2.200631 0.491727,0.806455 0.510903,0.81282 1.285109,0.426595 0.507302,-0.253075 1.124399,-0.33893 1.740646,-0.242168 z m 32.837788,17.962843 c -6.35326,-1.626311 -10.69103,-6.654585 -11.184965,-12.965434 -0.613135,-7.833858 5.23474,-14.671397 13.250207,-15.492606 2.085809,-0.213697 5.12762,0.374238 7.282004,1.407498 6.052023,2.902599 9.473486,9.989907 7.836051,16.231802 -1.28664,4.90467 -4.383682,8.403319 -9.098945,10.278843 -2.182485,0.868095 -5.846355,1.11278 -8.084352,0.539897 z m 6.287247,-8.970246 c 0.204085,-0.488449 0.371065,-0.996194 0.371065,-1.128325 0,-0.132129 -0.69144,-0.0041 -1.536533,0.284412 -0.845094,0.288556 -1.536534,0.596331 -1.536534,0.683945 0,0.160744 1.745479,1.010483 2.125802,1.034891 0.112823,0.0072 0.372113,-0.386477 0.5762,-0.874923 z m -2.15445,-1.013034 c 1.17776,-0.341372 2.890442,-0.9751 3.80596,-1.408287 2.338241,-1.106363 2.781495,-1.048448 4.748806,0.620473 1.498641,1.271338 2.426441,1.737909 2.418914,1.216422 -0.0015,-0.105636 -0.174386,-0.757772 -0.384133,-1.449189 -0.479371,-1.580199 -0.480551,-3.213004 -0.0036,-5.005148 0.204413,-0.768119 0.318772,-1.449469 0.254132,-1.514111 -0.240772,-0.240771 -1.45941,0.512761 -2.688419,1.662356 -1.194993,1.117775 -1.329007,1.176734 -2.31602,1.018904 -0.576197,-0.09214 -1.592307,-0.443532 -2.258023,-0.780876 -2.612415,-1.32381 -7.778725,-1.81701 -10.808747,-1.031852 -1.839059,0.476546 -4.584325,1.642837 -4.584325,1.947589 0,0.122438 -0.17286,0.222615 -0.384133,0.222615 -0.589097,0 -0.458707,0.471109 0.320111,1.156591 l 0.704244,0.619846 -0.832289,0.0081 c -0.457759,0.0045 -0.832289,0.121887 -0.832289,0.260969 0,0.509486 3.442261,2.362949 5.249824,2.826731 1.740552,0.446589 5.38334,0.268469 7.589998,-0.371126 z m -7.397931,-1.436017 c -0.316911,-0.127382 -0.576201,-0.363983 -0.576201,-0.525778 0,-0.310578 3.155108,-0.237832 3.473015,0.08008 0.618923,0.618921 -1.611934,0.96216 -2.896814,0.445702 z m -3.393179,-2.659613 c 0,-0.223011 0.182463,-0.405474 0.405473,-0.405474 0.452235,0 0.373478,0.551298 -0.101368,0.70958 -0.167259,0.05575 -0.304105,-0.0811 -0.304105,-0.304106 z M 55.118756,45.164175 C 55.01544,44.917689 54.741514,44.206273 54.51003,43.58325 c -0.231484,-0.623022 -0.547948,-1.175124 -0.703251,-1.226892 -0.269564,-0.08986 -2.565074,2.422333 -2.364715,2.587924 0.118882,0.09825 2.736354,0.588235 3.388984,0.634405 0.358384,0.02535 0.429272,-0.07678 0.287708,-0.414512 z"
         id="path4640" /></g><g
       id="g4636"
       style="opacity:0"
       inkscape:label="printBoxes"
       transform="translate(-264.86426,-95.340686)"><rect
         style="opacity:0.777778;fill:#666666;stroke:none;stroke-width:4.99999;stop-color:#000000"
         id="rect3762"
         width="30"
         height="30"
         x="-72.704971"
         y="33.430969"
         inkscape:label="gluten"
         inkscape:export-filename="Gluten.svg"
         inkscape:export-xdpi="67.733337"
         inkscape:export-ydpi="67.733337" /><rect
         style="opacity:0.777778;fill:#666666;stroke:none;stroke-width:4.99999;stop-color:#000000"
         id="rect3762-41"
         width="30"
         height="30"
         x="-72.704971"
         y="70.432899"
         inkscape:label="peanuts"
         inkscape:export-filename="peanuts.svg"
         inkscape:export-xdpi="67.733337"
         inkscape:export-ydpi="67.733337" /><rect
         style="opacity:0.777778;fill:#666666;stroke:none;stroke-width:4.99999;stop-color:#000000"
         id="rect3762-41-5"
         width="30"
         height="30"
         x="-35.729645"
         y="33.430969"
         inkscape:label="crustceans"
         inkscape:export-filename="crustaceans.svg"
         inkscape:export-xdpi="67.733337"
         inkscape:export-ydpi="67.733337" /><rect
         style="opacity:0.777778;fill:#666666;stroke:none;stroke-width:4.99999;stop-color:#000000"
         id="rect3762-41-7"
         width="30"
         height="30"
         x="1.2456793"
         y="33.430969"
         inkscape:label="eggs"
         inkscape:export-filename="eggs.svg"
         inkscape:export-xdpi="67.733337"
         inkscape:export-ydpi="67.733337" /><rect
         style="opacity:0.777778;fill:#666666;stroke:none;stroke-width:4.99999;stop-color:#000000"
         id="rect3762-41-4"
         width="30"
         height="30"
         x="38.221004"
         y="70.432899"
         inkscape:label="nuts"
         inkscape:export-filename="nuts.png"
         inkscape:export-xdpi="67.733337"
         inkscape:export-ydpi="67.733337" /><rect
         style="opacity:0.777778;fill:#666666;stroke:none;stroke-width:4.99999;stop-color:#000000"
         id="rect3762-41-9"
         width="30"
         height="30"
         x="38.221004"
         y="107.43484"
         inkscape:label="sulphites"
         inkscape:export-filename="sulphites.png"
         inkscape:export-xdpi="67.733337"
         inkscape:export-ydpi="67.733337" /><rect
         style="opacity:0.777778;fill:#666666;stroke:none;stroke-width:4.99999;stop-color:#000000"
         id="rect3762-41-77"
         width="30"
         height="30"
         x="1.2456793"
         y="144.43677"
         inkscape:label="propolis"
         inkscape:export-filename="propolis.png"
         inkscape:export-xdpi="67.733337"
         inkscape:export-ydpi="67.733337" /><rect
         style="opacity:0.777778;fill:#666666;stroke:none;stroke-width:4.99999;stop-color:#000000"
         id="rect3762-41-91"
         width="30"
         height="30"
         x="-35.729645"
         y="144.43677"
         inkscape:label="mollusc"
         inkscape:export-filename="mollusc.png"
         inkscape:export-xdpi="67.733337"
         inkscape:export-ydpi="67.733337" /><rect
         style="opacity:0.777778;fill:#666666;stroke:none;stroke-width:4.99999;stop-color:#000000"
         id="rect3762-41-91-6"
         width="30"
         height="30"
         x="-35.729645"
         y="107.43484"
         inkscape:label="mustard"
         inkscape:export-filename="mustard.png"
         inkscape:export-xdpi="67.733337"
         inkscape:export-ydpi="67.733337" /><rect
         style="opacity:0.777778;fill:#666666;stroke:none;stroke-width:4.99999;stop-color:#000000"
         id="rect3762-41-91-60"
         width="30"
         height="30"
         x="-35.729645"
         y="70.432899"
         inkscape:label="soya bean"
         inkscape:export-filename="soya.svg"
         inkscape:export-xdpi="67.733337"
         inkscape:export-ydpi="67.733337" /><rect
         style="opacity:0.777778;fill:#666666;stroke:none;stroke-width:4.99999;stop-color:#000000"
         id="rect3762-41-91-2"
         width="30"
         height="30"
         x="1.2456793"
         y="70.432899"
         inkscape:label="milk"
         inkscape:export-filename="milk.svg"
         inkscape:export-xdpi="67.733337"
         inkscape:export-ydpi="67.733337" /><rect
         style="opacity:0.777778;fill:#666666;stroke:none;stroke-width:4.99999;stop-color:#000000"
         id="rect3762-41-91-8"
         width="30"
         height="30"
         x="1.2456793"
         y="107.43484"
         inkscape:label="seseme"
         inkscape:export-filename="seseme.png"
         inkscape:export-xdpi="67.733337"
         inkscape:export-ydpi="67.733337" /><rect
         style="opacity:0.777778;fill:#666666;stroke:none;stroke-width:4.99999;stop-color:#000000"
         id="rect3762-1"
         width="30"
         height="30"
         x="-72.704971"
         y="107.43484"
         inkscape:label="celery"
         inkscape:export-filename="celery.png"
         inkscape:export-xdpi="67.733337"
         inkscape:export-ydpi="67.733337" /><rect
         style="opacity:0.777778;fill:#666666;stroke:none;stroke-width:4.99999;stop-color:#000000"
         id="rect3762-8"
         width="30"
         height="30"
         x="38.221004"
         y="33.430969"
         inkscape:label="fish"
         inkscape:export-filename="fish.svg"
         inkscape:export-xdpi="67.733337"
         inkscape:export-ydpi="67.733337" /><rect
         style="opacity:0.777778;fill:#666666;stroke:none;stroke-width:4.99999;stop-color:#000000"
         id="rect3762-4"
         width="30"
         height="30"
         x="38.221004"
         y="144.43677"
         inkscape:label="corn"
         inkscape:export-filename="corn.png"
         inkscape:export-xdpi="67.733337"
         inkscape:export-ydpi="67.733337" /><rect
         style="opacity:0.777778;fill:#666666;stroke:none;stroke-width:4.99999;stop-color:#000000"
         id="rect3762-5"
         width="30"
         height="30"
         x="-72.704971"
         y="144.43677"
         inkscape:transform-center-x="-0.23087687"
         inkscape:transform-center-y="3.463153"
         inkscape:label="lupin"
         inkscape:export-filename="lupin.png"
         inkscape:export-xdpi="67.733337"
         inkscape:export-ydpi="67.733337" /></g></g></svg>
